<mxfile host="app.diagrams.net" modified="2021-06-06T08:35:03.049Z" agent="5.0 (Windows NT 10.0; Win64; x64) AppleWebKit/537.36 (KHTML, like Gecko) Chrome/91.0.4472.77 Safari/537.36" etag="NHpnTerghCETjoto_ucV" version="14.7.6" type="github">
  <diagram id="tDh_6qzYO4dgvvDzAEmW" name="Page-1">
    <mxGraphModel dx="1422" dy="772" grid="0" gridSize="10" guides="1" tooltips="1" connect="1" arrows="1" fold="1" page="1" pageScale="1" pageWidth="827" pageHeight="1169" math="0" shadow="0">
      <root>
        <mxCell id="0" />
        <mxCell id="1" parent="0" />
        <mxCell id="LbmgVifA0ND9j1pK7FNZ-1" value="" style="rounded=0;whiteSpace=wrap;html=1;shadow=0;dashed=1;fontSize=14;fontStyle=1" vertex="1" parent="1">
          <mxGeometry x="10" y="120" width="560" height="330" as="geometry" />
        </mxCell>
        <mxCell id="LbmgVifA0ND9j1pK7FNZ-2" value="" style="rounded=0;whiteSpace=wrap;html=1;dashed=1;fontSize=14;fontStyle=1" vertex="1" parent="1">
          <mxGeometry x="10" y="470" width="560" height="240" as="geometry" />
        </mxCell>
        <mxCell id="LbmgVifA0ND9j1pK7FNZ-3" value="" style="rounded=0;whiteSpace=wrap;html=1;dashed=1;fontSize=14;fontStyle=1" vertex="1" parent="1">
          <mxGeometry x="602" y="118" width="490" height="590" as="geometry" />
        </mxCell>
        <mxCell id="LbmgVifA0ND9j1pK7FNZ-5" value="" style="shape=image;verticalLabelPosition=bottom;labelBackgroundColor=#ffffff;verticalAlign=top;aspect=fixed;imageAspect=0;image=data:image/png,iVBORw0KGgoAAAANSUhEUgAAAggAAAA+CAYAAABOQOP6AAAgAElEQVR4Xuy9B5dd6XUduO+9L7+KKKAAFDIajc45sSmJkkyKQaJGMsdLHNvSSMM1XpYtkxKzhsmSrGDLGs1Y1siyZEsUxSRKzKG72YnsAHQ3Gt2NRmgAjYxC5fTyu3nWPuf73rtVKFB/gNWNVUDVe+/e+4Vz9tlnn/M5aZqm+OHXD0fghyPwwxH44Qj8cAR+OAI/HIHMCDgWILRaHbx26gK8Uh6u5wGeCxeO/AGIIRw4DuA4/M6f6ffUAYgxLM5IkgRJmvQvkaR8AZCkiOMY/A3f47n6yY7jms/Tt/C9cZogimJEkV465X9phFQ+N484ShDF/HcKz/NQyOflDhOkSHg9852v5z26jgvXdeG5Dor5HFykyHkO8jkPLt8XBQiDEI6nz+QHYe8Z5PPkfxcRny2JAYd3FOtY8Cn4eHGMNI4RhhFSx0HsuIiTFEmaIghCxBwDx4HnuMjxnnMO8nI9wEk4mi4fAFES420/9aZVY8JxmZ5dwJWZBRQKRbguR45fjowNb8HzcuDY82Y4ptk54Rh1fR9+N5D7yecKcHlhLy9Tw3mJ4hhxHPWu67lALp9D3ssB/Fw+YxQjCHz4cWCu7Zip1XtwOB9JgOcPPodTJ0+g0+kAnM84lHvL5T3ceMst2LJtAvlCHjnHlc/l40RJJHPH8Q2jSMY1l8vJvMLxZOx4MX6OrDveD+eCMxEnSOIErqdriXMdJyHSNJY1xi/X5WeYtWrWCD+Ta4M/5/u5XmSly7zqspXxNdfi7971zp/Dnt17VhmRw8deR7FYhMf1lFnPvNegG8j9FQtFeQRejOOsz6XrsrfuoxheLod83pPXxEGIwPcRRZHMG+8ulDnmg8Q48srLOH3yNVnHnuNgYusEtmzeIuuT+yjkuHMPuA5KcQinNo9yt4Z8HCJMUgRRgDgJ0ExcpENbEVRGEXHfp7GZkwSh7DvOfQrP9RCFgfwudRIkXLjmObh+k1hjjTTha3OyZ7mok5RzwTHVOeD+driHkhSuk6odELvA/aBzyLngc/OPjF+x0Jt3nWNH1ovaHf3+Ox/7/XWN+7nJBRQLBeTzedl/XPv5XF7Ghs/A93LfhgHvV++Goy2fm6Ria2Rzyt7SFRWGCTqdAFHMzesgTrlmE3T8Nh57/BGszM2ims9hdGQEg8PDyJfLKFcHkcizqU3knPLv3H9xEoktEjvJ8fVSeEGACuex3UVaKmE59OGHMSqFPBLuFyeF7/syLx43LIAgCMR+yxjyNWmi+8iMld5/ijiJZYytPRcbEEU6Nl5O3sPXyM/MGpX3qiuQeYojrmMbX3J+zVqWNcr9SXup48s3/tN3/jPcdfs9684Rf7hQ64gd4/W4j2g/ed/y5cnGlNmhrQp87qsYjuei1e1iubGMb3/tayglCW7ctxe5Yh6loWGxu/wE2XPim2jnYrHXOtwcw478nnaSeyUMw/49ik1QuyR+JYrNc+m/udc4l0FI20obpHMhNknGmGtc/USShOh2W+o7XA9OStvjmXHr+zi7V9ycJ76Sz8z1IT5G78YuRzN/HHddm5wX3gPXpTE3Zt8Y20kPWqD95/gm8BxPbYuxvTdcdxPe/fP/svf8PYBQqzXx3ItHkSsV4eVztKjyYD2A0HO0ximaRSK3axa6OKUeQOAmox1L5Gd2I8hrOd8ECK4j37kgFATQuCTo0jBGMdLEmA6+x6FjBqKQC58OUYEBB0McM40JNzyvJUZK/y7OwXFQyOdQzOUEGMRRKJs55/LnBeRdOpgYXb+rn2MWDz9HHIgMtauLjdcAHapuDnlKs05kc3NROC643WXTJTR0BDRcWLrgaczzeRf5nCwbcU6IOMECu/CeX/nnVwGEi5MzOHtxWjau2GRjqDiu3CS5fF6uZ3ew3dR8LRdru91Gu80NmEchX9TNYRYJfy9GSgCCbvJ8zkWhmKc1l7EMul0BUZyk2El7gEc/X+899H0cPvB9PPrIw+i0WzLOCY2rMfY0otft34+3vvMdMh6yISM1UhE3T+DL+PSe0TgNOlJ1GrrIxQmZv1tgar/3DKCMhW5QMSQEZwS+5iv7ell/5nUyngYEZ69hDd0Hfu3Xcfutt60yco8dOIxKpSoOSDaoATC8btAN5fNyXg5hFIqRE+PE/eTl5PU0JNysXFvcDwpwY7RbLYRBoODX7KEodbjMcPzVl/How99BwXNRKhWxdetW7Ny5U4wTnYcfBoq8jAEbCEN4S5Mot2aQi30EcSqvITheDhOkm3ahMzQO36EzCcXUx2mMkCAr5b6jo6FjIhAm4I0Az3gLmQ+OoeI4WjUFqJwrdX78DO4h2hUaOPE15pl5mwrwFGApKIhlHfB1DBbsmufPOV/i9Hp2R0HJt7708LrO5+jpKZTLJQFpBOd5sQM0opGAFToiAl8ChD6fqqZYHSfHQ4GM66kDaXR8NBsdJIkDL5dHlAZotGp49sD38NRTj2Ewn8dNe/dhdGgIpeoASgODGjQY8MNJ5XNaO0WAzHXDe0po69IIpThCvt1Gs9lFNFBGm3fEdSN2JETsJBIscW1YB0cLQpDANUQbwzngvx0GSJ4re5hrjSDUBhp2Twmg5XsFhKtNFrcvtlrfb0JDWVe0G2J/E+4vT52MAeqcR3E8YlfokCP8xr/5MN7yE2+7JkCYXmrKGnNN4BLKsxFs8tomIEUqdoy2mvsqiBMs1pbw5S//Hc6fPI7rJrZi3+49KAyU4JUHEEmQpuPDfRGGgcwfbQHvn56Wzj2KAhkPzjV/b22CBiy+AfcpopBgl85X9ygDEd/vqp/Je7L2da/2/RCBFIGF2iM6ee5/jqWCAw1ENJASQEHwQEREEMzPEdukAbKseSTw+F5HAx/eK6/JZ/JyLsKYPod2h3ZTfaW1ITQeagc5PwkKuaIBPOrH77vzAXz0vZ+8GiCs1Bs4+OJRRdncqFwUxlDa72LQaeCMkc4aW2vAsgZWhkQiMzXs9g/fl8spMNDFx6hKjTltShDpwrfYNBsNc4MwiuYm58OGXV8mVCJA8eV9xsPu9gKjByftRSTcBHwPN2iO0ZcGNopQTchpDX2hkDObQFGiPIs4fkWSYlD4Hm5aC3Lkh32nphGO3pd8ZzTF4FmcET+DzpLRrIMoiPArv/juqwDCpSuzAhAsMLAOU8aQUV/OMgg6K9l5ajZbBhWr8/dcGnqOryMRKY2URMmWcXFdVEoFWZQcK0axfFBuenlG10MQ0qDRsKuRm5y8jNeOH8eJVw5jfm6mF2nyqXOui06nLQtwx55dePM73iZRkmxC2aQpwohGrX/vEmlGsT7bKoBgWYRshMJNYDZazzEpaLGRkTjpnEYn2XVoGQd+F0NmGAo7hlkwwt+vBxC+d/AwSqWyRD8KKjViExDJe3dptBk9dJHPMzrLS9RHo8p1KNGBGFmNtGg6gk4X3ShAQqNFAExwFtFBeTh67Bi+/8R3kfptDFaruO76/RjbtFkcSxQHElXavSXPAwdFRuHNGeRrF1CMW/qsZOmCADOdFM7m7fCHN6CTEhTSbMaEwVAeUTcF1yvXgwAuWUpq/HWsaMTpJBTsCM9h9pI1tmrc9Bn1Ay11QGCdIO/meoxP3/n3M6DZn1n7pEySMnDf/vuH1nU+x1+fRrlcFpaHa4B7nnZJHLQBhtY59iJm2aaprEFegAFG3nUFtNVbTSw2m8IiFPIlcZatTh1f/fqXcebUq8g5Efbv2YcNQ2MYGhpBqTqI1M0hEjZFo1exV7L3FHjQXkSIUG+vIOdGKCJGruNj+fIVFLZOoMuoT4AsHRbngGC+vwcso8Ln0OCA+0TXFgEW1x2fTdgRs885d+oolSngWFgQbe1Mdh/oWlLGJBug8L3ijMiOmeuLD5EAJEYU0kFG+OCv/SZ+6ifffk2AcGVhBXkGLy6jWq5BBwQJDOwKhkHs+F3UGg1xsPwTIcZXvvb3ePXQc9g4UMHunTswvGFM2AMJgIQdJeAki8n9bQCLBG7cdwSIZAzUCVsAQT8oLFZMsEAwR+BAdob+j2ueYMqX+dSx5+f2mXMda4g/jYJQ7Jy1O+JPhYZThlLvS4M062vtfsvOQzboW2UrTQDBnwkrlhL46r5kYCIBl2H/hTM3/knvl0xQbMCIg/vvegN+832f6ttim2JYqTVw4MVXzQbKaXRndrg1Nj06tEcb9efaAoNsRCfxg6G2LICw4EJQTUb+sNog0IivSVsYw03kWyjkZfERJHTabfgdX9aLslHGEesI60YRK2IQuwErNMwSVZLGMRGkfZoeA0HKiEabG5EolANp8IfwKIaHtmibm14WQRwJU6FRKyN+w7LIuHGT6yTxPy4uXRi8jiK/f/3Lv7guQDh55tJV8yKRlOZq+nR1Zn7oLIi4dX40aSTo0YAbdYwmdaKmXqItB3RKvqZVDHJVKopRQ1F+RzTXbNTw3LPP4PKlSxLVTF44jyY3MF9HViHw4RD1CZLN453/9Odx74MP4NT5s72oWNaEpauNIxL3I6AxURdlaGW9V7sR+2BVjWXG+cjG000n5tfMcXbDcUwsaLAbkj/j5rYgWTaduR4/6/2/9j7cfstqBuHJAy+iVCrBdTnXnAcLEJhSYxSQotsljZnI68T4CKVHapvGScdYQQKDxwBOFCJihJQAbT+U98ZhhAvnXscTj3+XnD82bhjBnt07xQmR3fJDgpCOfH5vLZt1lrgxyu0FDCxeQTVoy+e1wjZafhPLYQXu+DZEQ8MIEk+AAw1M6nLsNQ1kx0eNnM4LjaONaixglfGVyEf3rx07+3dhyUyKzL7H/o7UNue6R3dL5EjQYZjALNVt1onaEGX5vn0NBuHY6SlUKpUeQBDGyjjE7PdmsynrjAGFpGksa+C4KOQKMldLi4uYnZtH7HgoVYqcOXS6DXz/yUdw9NWXUPAcbB7ZiI0bN2F4eBSVgSGZx5j7XBxSpN+5LtULyjVjeKjXVvDsEw9h80gZP3b/PViYnUXK1M7mregIM0T7EGiKk/vCtakYTeEJxW0YQEnPxBoVi5MyztCOpwXEdp9lWTT+zI4L94cyY2r4dI3qvrOvsaCbgJd/V+eqi0aYSQkmHLz/334Eb37TW68JEC7P1YW1JP3OQIqfQHBcyOXBlUGQvVKvod3toFgqimM/ceooPv+5T2OkWsXuie0YG92I4bFNiODJGo5T7h06YGWlOH72vjtdpkBT4hF5NmGRyBY5BCaGKZCxVgAl6ybW/UowYdy7AWqapuVN22CX40D7y2toMltBdt+2qb3SdI/+3M7DeoO0FiCsBdGyn4TO1vSiAARh4Syjl8ITZ8HrKHtJfyAMHecU/whAePbQkR6DYAFClkmwf89GWVnDmr1h2fSGas3+3G52CwCyAyPuSXJnShnKvxlBhZE8AAHB0AANsVJBjGIlJ+4HalgNXSP5dVnkRMhKR0ahTrKNEu11aci4gZXmWZs3Y/5WjRPvQ5wqEb9Bs57kT/Va/Nz5+Xms1FYwMzWFkeEBmXxS/3x9tVKRxZKkjhibYqksF6xWq8jlCnKfUeyLwXn/v/5XVwGEC5en8drrF3vUqt2IknsU2rb/ZQ0uryc6gJ7WQykwm0YQepMO1xhzPokYAxqeyEer3cbA4AB8bhxGWkYbkiaesAovHXoeF8+fhd9qoFopYuOGDXjhuYOYm50TgCA5UOb2SAl7HiYmtuG3fv/3UR0dxnMvv4iZuVmZW6HMTA7VOmgTfGqYSWckVKWyDXYjSR7UME9qLPtjIA7XIPpsZGTXq13DawGDjaiym8quS77nQ+99P+647fZV+5cAQahRofs8yb8LkJExU8pccsOuJ7l0zh3XpgVANF69nDf3TeTDSxP4cYq2T02OI3nS5w8+izMnX0Uhl2Lzlgls3rpFnJmNSAOCDQMUsxGJGPW0jWq3gdJKAzvGd+PImUk88eJzGBofxB233ISOC4RlGl2AS55sBPPz1B5wnWgKqm/I1NH3c83ZMZasLZ/dOPbVY2lZhH6azDorRlnUCGSDk7VBhGV8bDSm+1mv99jXv7+eXQUBwsDAgIAzO798Px1+q9WS9/Dv3C/2NRKgcn8Ly5kTRnOlVsfc7LzYnXK5CuQSdII6Hn3023j95KtwogDbNk1g49hWDA0PozQwgEj0NQo2mHKTtWzskOgCJCqny/HQWV7CoUe+htt3T2D/vj04P7+EoW27UHNcBGZx857ICljKmQyk1dbI/FgGrKcNW+3IOX7CuJogIguEs3sjuz/sawUUSvSstPUqZkgCEP0Zv+z8yF6lGyJA+DcfwZt//AcBhKbonixjyH2hdo56CGBubgm1WkuAWb7oYmZuEn/1P/4UneYKdm3fjZ3b92J4eAPcXIGZUWFawoSsr7K0uoZ1noUVMGkH7k8BBExBGOGbBWCWNeC/+T6uM763x+DI5yr9b/Uz2X0iKZuUEoqMRcukPSWwMQGYHf+sT7UL2u4Du5eyr7VzZdl4CxCyts1+DoGW+mAF1S41ELrYxY/cd9eD+M11Uwy1BixA4IWyaQYLDKyhXMsW2MXQjxI0mpUMj2g4VtOEKj5Sel6jbGUTepGC5DBNDocLjwPMBSk5sBikmTihRGzcwKqaot6BG04jAIICZQl0aBLJHel9ZKMaQakmD6kLieOm1KLkhBBhbm4eZ8+dxdjoBgwMDaLb6Yjju3L5giw6OlBGH512R42iLBal+nRDqqhPr2s0C64rwqhyqQLmRrbv2Il2u4VKuYwvf/5v1wEIUzh+6rw4Ij4HN00P2dM5in7BihMhi1nSA0GoFJPkrinOVMDC5+sLMInwUxHI8TMoAPreY9/BzTffhOtvuB7tIECdTE3IiDdBGkV47uBBzM9Ow3NTjG8cw8YNoyJK+/73Hsfrx1+Dm1Ds6SPvuSjmHOzeuhVvfOODeNcv/QqCXB5nL53D4VdeFPaGehPSt9n5sRuB4yyEaYbFEOSuvLJ8kbq31HF/rSkzwtdmAZF1oMLamBiAc27XvIg2zTyJLsAYXN1sDj7yvg/gztvuWOWInnj2kEHqns5PYsCkMGieGB3OQ8kIGSX/bIyTGF8DkCQ/aQR8fE+zGSCIUtEhnDt9DAefeQKD5Rx27NiOsfFtCLlPSLMy9WWEo8J2GYdugblEMJGPQuDjpt37sWPPrXj42cP4yre/gUZjDu/++XegHjTRcULkyPRQS4MYgdBuGhVl96d8PnUFmTWepUe5FnVfEBS5Ernb96sx7FOx1ohJVEdhlZkL63zsHrKRb589MmJSE81yrh/92vfWBQinzs8Lg2DTp9ZBLi0tCUDgNXi/TEPwNWpo+VGaK2ZgWKs3MDO3KH8fGhiE68ToRE08/vTDOHzoWeTiGJsHR7Frx14MbdiMfKWMgAJPforkoAn9qcfp62IkvcaxpN4qjTCQtjFcW8CmXIKL09OYcopobdiCtFiB2zOhSnur1oRRK/PjdFpq+LMBkGXPOLZ8Lv6eNkGdXF8ga+fAAgF+z0aeWWekztEI/DKpZnXkBZPCMIJ0C1aMDf/Ar30Ub/nxa2sQLs42hXGlNozxLM06ReUEDbVOgAvnp0XUVxksI4rbePjRr+HpJx/BhkoVt956F8Y374CXLynbm4TiJ6yNCENfHLnVGHg5pv26Bsgow8Bx5e81zaKMAt9TLBVQr9dl3TIFouyBrmP6CPolFdX2U5QcU9pgSeMQ9K6joxJ/2ktP6Lqwc5EFBHb87V7o7etVLJoufd6LMNGJpjjW+l5RPYjOh0EZWQRNBQnL7np44O434jfft54GYQ1AyKYV9Mb6BtxGcX2joXSpUObmYkJD9aoKDNuvlsYIZXrMpSrqTQQvCNRS5CLuoqguLzQM87BB2NX8Cjcut5wYKxWzuCkdnBHVGBpRqHz+oQG1VKml142DCBNNNyzOz2F6ZhqtRgNLiwuat0ojLC4uitPkZHLjyLW4KelUeb/Ceuh9qNMme0IqToU9FAhyY1qaqlwqyuJRiofgCAj8EEgUULz68os9JG4t3sXL0zh68kyPEud99PKFOSOiEBGGMiedTtdoOlRUykfnvXITU1QjOTLHQ04i91A1EUJ7uzh37hwe/caX8Bu//l7ki3m0oxgLK3V0Qg+LSzWszF7G/NycpHqGhgZU7CSipRCTl87h+w8/jqDly8+Yj91aLmL/tgnc9cb78JZf+GW03SLOXHgdr776AnwCqMRBzqDqrIWXKJT3aXJ0zL9nIxjZqBxr68TNhhAnIiI4k6Yy0ZRsoEzlgFxLiyOMqpzv0/m0xpLzYf8QdX/kvR/AXWsAwmPPPG90BTkRrGkaRFMecUxa0oq5LBtl8oB8LooAJZ2qBoaAl7dTb3URBJFoEQ4++QRee+UQdmwbw85d21AdHkbqFhAkDkKpMKCCXqlQUTr31PGR7BtVULvYsnEct950K85euILnD7+M06+9gvkrZ3DnnfdgdGITYo+fE8ElFUtmTflSFc8a4GHzpoZw7l3Lzps4qVVgTsGXdewK2A07aFTk8pkMYDSbp0bSVpKYSgJr6bPzYg2mjVof+ofH1wUIZydrslYVZKQCChqNhqQn7b0wqCCIsEBRKOmU9iZGo9lBrdbQCgKKUXMefL+JA889iWcPPoHIb2Fi4zh2btmBTZu3A4Uy5WjyR3LTfoA0jKRKSrQddFRkjRiNU3SZpiinbYwlDUykXRSDAEvdBMe6wFR1GKmTR0FshQJl0eeIM+MMMcpWR0BnJIJEwyJZ+7wWXOl6NmytmGRde+qgdFPY+bZOK/se63j6zIJFL4aJXQVAFMwTDH34vR//gRqE0xcXBEwWaNuEdWSwR4Cd4NL0HBqNLiqDw/DcBC8fOYCvfOVzyKcJ9u24Dvv23yyVIhSBWmcv6TtH9U/iyAUIEghw7AkWGEApm6DVDarD4H+0kfwZ9SoM3DiPXENMfSjIUqEtHTKDGH6m5QiEqaC+RzQeqqGimeXaUxZbxbAaHFsRvIr0NY1j9of4UGWtZVbWaD/oN6Vi0FRJqP/le2zFn6brbCkEGVXaCa160TSkVEwY8MI05f13PYiPv/93evuoV8VADQIZBIscrQPqpxX6kXd/F6pRUnGVRqiCRDRuM9a3nwdWQbURLPI1/IGpe+QiklQAUTVLhkQQR2EPQTc3UgSHC41WRNKiFMSkJkeuRt5JSaEbQGBK0zQKZBpBnTnzYQJABL1LBkhoqNdOHMfrp15D3k0REVmGXSmLpEq2XGTemEg2L2kO6hYYbbMCQhBgrPSTbFjZeCncnG7kanVAFlSz2QAjlryXR6lQkrFpt5qS7yW6pDqWBp9T+NyBA1cBhEuTMzh++lwPIFikKZUgRofAyJXjy81O58INzHIuUa6Kcjsn0bbS3QQjVEWb3CW1GFJq6eDZ7z+N+TNH8Z73/AqcYgGNIMSZi5O4PDUnSu+Cy7FUZkQ+Q0o+SdNyjlx862tfxfQk9RIxhr0Ut23YhPHBKm5404P4sXf9S3TyVbx+5hSOvPScKrsl3xj2NB5ilDJGKjCKZUs9c9GLdkPKsJQhsZvHri/rJNeyRnxuqzvovcawSozUFRyoWIvGoYfqZRO6+Oj7PnQVQPjuUwekMsTLF5Ckrhg0ppJUvGJYKTIlHHfH0yohgswIKBRchEkHURKI+hhODn47QrcboNWp4ZXnnsaxp59CJXWw/+Ybse3GfWib0jwBx2QjRA8AUPwuVSeGCpZSSYkkuBkcXLf3BszP1jEwMCIgcPLKeSwuzgrIuunmfUjRQeTQMBLa0/BxXgKj2Faq+upI3gIodSxa5aNfrK7RaNPoX2QMyQja0rf1bMpqgW0vCEmtnkffk51vO49PfPOZdQHCyYsUvylz1u600ag3hPGjI6mUVPDM1EIWdLNKoxN00G510WqSjQtRKjNCTpAvFfD9Z57Eo9/+KkbLLkaGBrBtx25s2LpdgJswSKvKNE25GydJShoZePhwkxBeFKLiOqjEXfjzl7FnfAReWsRikMOpZhsrZQ8hHT5tm9HVWAGcinAJ7tXxWGZAgrOMKNw68izLwOeQUkaTOsqO59o0ThYk26DEDnR2n1mQYq/fmwyxzSk+/L5P4K0/+Y5154g/PPn6JAYHhjQtS91BjuwwsLBQx9z8IorU75RyWF6cxuc+8+doLE9jx/hO3HjDnaiOjsCnqJr23IjWpXIhVdCkjoaMnooNQ7+ronAKgQnUxRHrWqUAnSCXNqbdbgqIsGW2TNla1ttqZfjcUuFBAam5tu4F9YuuS7/IAFFFkhYiy+eIAGJ1WbodIK2w0b1iGdW+5zbBRgY06Lw5cKxGSMlstQ1Shah6Hv49awP5mfbn99/9I/jY+393fYDwzAuvrCtS1BpJdbzWMfU/QYaiR59TlEZqkV/lckXrZS0VJfolLa+wkZsMovp8LMzN4ZmnngJz+/c/8AaMbtoiNKqCBuZRDa0shIPoaQUkaL6XP2PJjdFJy+fqPRPddfxWr2yMUakoaym0kTx9A/VaTT7RSSIUC3mUWb2Q8+DkWRubqbgwkY0OuEXbtkJBfYKWdGnuPJtaYDmgCrxYx+vr/fiBgAPeD509J/jv/u4r64gUZ3Di9Hlx7LYMkFcRR09DLMINLngiYR0TfhGNO1I1oWIlvrdRr8tCFkU0dQJ0xrKwgHwKvHTwIDqzl/Cuf/a/Ii6VMFtv4vDR45J7VQ0MAZw6IomTLOiTvL+DEy++gJMvv4CyF2NiqILrBkZQdoHB/XvxM+/5dwgHRvH84Rdw+sSrcHPUa9MQKOpVh2KFNOpwbH8Gndt+RQwBn7IF+nq7Nm0O0G6q3ubi+jVpnyyFl92Aki02a8eK6exrafg/8cGP4e7b71pl5B596jkUiiURVwUhy6ZiFIplofEY0fOaUjMeU03OSJZRBfcCBVKOgEdG7CHTCZLCibG4MI+HvvM11GcuY6DrY8fYRpSGqhi98Qa0SkXVjZBBER1JDEeiAzejF9DxtEJCzsvQwBiGBt+oMTEAACAASURBVDdidGQTTp9+HTOzl3Hjjdfh0KFD2LV7CxZXpuDmVQHN8j2CHApPhREzorRsOlDTlmrclCEw1Q7ERfxPbMYagaHJfsoOyfRPsQNq5yqbx1Uwq1SonWc7J9l/P/b1p9Z1PifOL8m1uOYJDMgg8O+MCAcrJRRNAGAdIZ+FfUO6ISt4Iul3wGvnCryPBJenLuDzX/gr1JfmsHVsg5S9Do1sQuwURSyqLEFfLa+gPZLghDbMI8hIYpSYJq3VENQb6DJoKJexY/Nm7L/uNjx98CVcWpmFM0RRiAJxTSFo2szWrbueLcXs9yvIppiy42rnSudLe0xYUJGlry2QyIIGO19Z+29TDdm9Z9kc+/wSxTO16Xr46G98Cm/7Jz99TYBw+uwUhgaHhY2TegvHQaPVwuLSsgBWAWhujIcf+gaefvIhbBwewD133IvNW/YgSCIE7BlhRKC2pwwZZwVUCnD9QHsekJXkaiVA4Jrm6yRclFQD+ys4Rr9FKl4B11r9mgVqduzoS7S8sF/lYRkqpsQFHNgyaqOZ6qVO11QGitM24nY7b/2xV3Gj1Z7YudF5oP9RpsBE0j29gU219tk8Te9ngeMD9/woPvHBfj+RPoNQb+DAIa1isEagv4H7wrbszdjFwCUbBT4W5ufw91/6Ii6cPye1/jfedAve/b/9cxHk2RJE21jJlc4XstQ1B5um+OaXvwIvSfAjb3gABSL6yhB8MMKyBkgBgqBjvjeRgMlEoFoiqTm/WCgilveRSuSkxWFLan8F04na0zoURnLsi6DRDZ2mlvRJphuxp6BIVMCs96cTtwuA0ZkRLGarCHhzVnmvk6aGTTe2bbpioktj4NutNjqtBuIwxGc/96WrAMLFSYoUL6wCCLIQjQZDDSDLdPj5SlvJfwkZkIIyHoW8pDvqtbo8f0hEK+VcRL8pSnT4rQYWLp7F+ZPH8DPvehec4VG8fmUGR0+9ruJFodJ0znrROgu46EAkJ9rFSBBi6uXDSJsryCFBmfW5FAIVHLztPb+Gwo69eOLAU6gvc+N7THDYblG9Uh+72MURSlMdUwO8pl+Blo9ajY3S8/a11hJpNKV512x6TAGWRmbq3BR22jIwq1/h/KkxcPHJD34cd99+9yoj99jThyS6oUMNQ6nyF2Ebq0fo2ETHYMqOSsU8hocGtQQt9tFottH1me0n88BS2lCqGL719S9jfuo8NhU87CxXMZjLo9ZtY8Ott2KlUJKSOUuJOmShJFpgflorYXR+tCGRONvYw9YtuzBYHcPm8e3CIBx/7Qhuvvl6NBp1rNTm0fYX4EcN7W8g903AoWpu+9UHAwDzuNb5ZUEWAwJpvJURtOlYaykcbYMYwIyIMQsY7M8tCBA2x2P03u8HYYGEvS4/+1oA4eWT0zJ/jP74x2oQhkeGMFyt9FJ11hAz4iRA6DDFw9RfaiIuagMunsXffvZ/otWcRxKFeMP9b8De3fuQoACpRE05M6qctyDHjhFfQPEpSVDudQIFsqXsGcJGVpsGqhgYHEN1eAeWuh4uLV7Bkj+D2G2L3bBpQhG/ijhTgw3LFtj7t47MBhK9fWreZ7VZEm0aW5Z1Qtburw0G17IFlmlY73X2nmTOTB6eAOEHMQgXJxclqOReJGDudHysmGCmWC7BzTmoNRbw3/6//xfz05dx5y23SOOlNFeScm2CBFbyCNPMIIk/iygsVHElmQMLBDh3Kr7VVI0tdRRtkAEK2idCgzq+NwtobcSdBVYsUWe6QcStZHek9JHAQHNo/J4dbymrpHC1x7n1zQpfJ0GfmR+7J+wr2O9AXU9fV6fzQIeo+gP1Oyr613S39tCxjFJ2T9u5JIPw8Q/8Xu9GMgChiecOH+0piO0A6CtXA4SsdZQIPklx5OWX8J1vfh2Tly5i8yai6luQL5SxY/de3HbHHeKITLwpD+2l2qhDqq3jAE4Y4utf/CJ+9X//FWzdvBFuvoBGmOLYmQvwlTlVpbeJ7pQxYIOdFH4QSeOM2O+ImESiY9MwSe6eTiZoo9VuYWRkRByZlGLp8GlEbF14Twyk0EWuaSg70UpoAwNhNFSGab5sKYmllK1S1Qo+TZcrQX0mASNoUn8g9BYjTC7GP/njP1mHQZjFyTMXMs1+bJRt+kiwRt1nPwjbhEMXEO9xdHRYHEetVkO30zV3bYSKrDnm4qGQqd1Ad/oi3PYK6ktLCPIFjOy9HpdqDSy3OhLxStdJNxalu8v8Oh0Vx4KlnRT4JC0Um3VEU1MI6ytod5riMLlhOVfR1u2oXL8fbZZBihNj8xhXUh1iVJlqYq7YMkBGJ5J19lYQ1zNYdP5GWNSL9nupLm3CY3OuMt4EeQJKFFlI6ksTvPKMPbGq6dJoQQUFSh9/PxmE1QDhyWdfkVwkny9N2f2MgIJ5TKYs6GRT5F2IYHN0uCq0NgHsSquGRqMtaQWyM1FKYV8bp08cxeHnnsVYJY/79+7FVqbemk0sd1twxjainrhoOynapLEJaUi6sHeIpBSUJlUezYivCM58D9u27kW1vAGjo5skin7++WcwOXVB6NOR0SpGNhTR7C4gcVhnb/a9ifStA++zNH2janOY1mCJBqG/o1aBKbJZPS1QRrycjVaz7EAvCJHUic2bq6HNpjv47ye/9eyqa9l/PP/qRaGZLUCgQ6DmYPP4JpQKTD30KVa+R0qDOx2JXqVzqXQpjdBqreDzX/wMZqYuIpdE2L1nL2668RY4ZMFEz0m2UptIWSfNz7NUdNjpoOixQihBvbYs4rduHKLRbsBbXMKw30GnUYPjVDA8cR2SsSGs5NroRi2JCq3TFeGbKf9UJnC1uE1TcP0+LNk9oXZdZtM4kX4J3Nq9szoSVmfEn9loWp2Qar4swMgySj3wZmq9PvTej+GtP3ltBmFqti4aKdp2guZO10eTOhFHu7rG6OLv/v5zeOWlF6Qvwlt/8s0Y37QV3dRFEIcI6NyN8DMJyBb40m1S9kUcihaBjJ3sb3mtdeDqmQRwScmxphm0PwEFxspCcMyzwTOf3aauSsUy2s2OlBkT/LNJlYoetfJBzZkZP0klao+g1X529fJV/9N/X/a3TCvZ8V/L6jAYUdOmgFyrS1TrdrVuZDWT9+B9P4ZPfug/XhsgrKUzdJGoSDGLOASVClUFLMwv4o//7z/E0sIcdmwdx0c+8H5sm9iCRNrb5kWlvrCyjNDkJ2kjWNnK3HsMCoHa4qBOHzmCX/iZn0Ux5yJlAw+vjINHXoXv5bWWmFGIiQbb3S7YHrrVaktrZDrYXNLGpQsXMDExIekBtT90Tol8/uDQoKQ/OuzYZ+2UbBbNC9m8kRQeWf+RpUHNz4QtoNsTKkcdi3ZdM1GuqK207EU3qvl0ARGizzWCI6PUMIuHjoQU5Z/90R9fBRCY/2eZ47rzY7o2ZidfqUMH+QL7RuSwXKtLdEqHJamZOEEuThG4QDdOUYwS5Odn4SxeQQkd0JjNdQLMOXl0yhUEbOwjyrsQHTdGno30IiBiZ8okRDUIMOqHGEibQNRFp74Cv9NCnYLP5TrC1EOZAq4t4+hUyzIGpNIFJbNnhFleWecgG0vYI5uX1soLjZzUyFkmw9ZeZ1G+jTKzOWu7mXppB2PkVlPnGlnxfba0ib/nNT75wU/gnjtWt4t96rmjwsZQe+B6BQFETPUwXUDwTL1GKe9hoFLCYKXIRBhq9RXML9ekvI2OhSiFGdQjr7yAFw48hdFiEQ/ecTP2jY6g2u6ivbSMRtQFCkWECbCSxKg5Djquhy6BWqTtWIncbPMVgeSi3GaVfRUbRiYwNrYVoZ9i48aN+NvP/TWWl+eFacvlY9xy2x44BR+pSwbCNJ4ya9qKHW2ZIFXh2jLWANyMk+IdSEXMGlFVD9BJtZFJ93D8Tdt12UWmPbkYOGmPbnQMab9xW9YOZSOyazEIzx4+I5Ea2TNb8TIyMoqhwQFhjKg9scaeDpfBBvcKo09bStts1fCVr3wJM7OXpNJj34692H/DzUKFW4ZTmEqWT0aMNpXD4xoiMBEAKcAhRHepjtcOH8YdN92MkeFhZTcwgHvvvh/nX3kal08dQ0pQOFpFMMzVkkjbbbu/7Vq1KQJLE1sgYh3H6r3UTwFpNNpPC2fToHbd00Bpftw4EFt9ZQBB1illwZ3Q9BnHx3si4GeKgSLFt/zEtRslTc81tEQ4TVBvtiRVx2oe0XzlHZx47RV89vN/haDTwp233iFAnSk9ETqbaFy6JDKlatJE7OXB9c8yYTrsMGQHRuprQtF/8RGZ7pXW7NL8KBCNkEb/pm+FicitZsPaE4IZHWNtXz88OIpmo456Y0XElV2/JeCiF1MaEagAEyvEl3Xd96298RbmVFtBqy1ffSSBpJwMs5e1aXJv3Je9LsC6jyUjIV1bM0Gt6S+TZewevO9N+NSH1wEItXoTzx46atpvmraWtvY2wyBkDbAMTppKydtn/ubTQpn921/9P/GWH/8RcfKM1AqVATiFCo6dOoNuaBpJCLXDMuIEcWMeaK+gs7woDXZ+6u1vR2l4CLkwxqmXXsUzLx7CzvseQKNYQS0C/OYKOq2WGFVGn5IsIAMRBagkTSxNTWFoaBTOwAA6pkrAI33hpBgx5UKLrQZCqk8FcLB1sK1D1xI3qWeXyE8bxdjubxpZ9hE40yIyHgaN277+ffhllKe9aMqAEPtv03a6z17opv1vf/xf1gUIJ05fWGV0be5Iw1/9WosQtZzHR2hy++xNIRRwyLy1A58UJZ+pXkN5eRGF1jJyqS/CzelWF4teAbVcAT4XMTerMDMmH8p8X+KjEnWxzXGxgTlWdKUVb9DtCIJnS9qFxTpa+SLSnXvQYbtejm9IqjWG70TCSLA+VyL4TPmVjZiUmjPnJZgae6u0tgbNbpL1AII1lFlDls2V2vfajZKNgtYCst/6yL/HvXfeuwrqP/70qz0tjOPlZXu2O4wcWP8cSRe+UrEgDaikHzvTX42aMEYxAbQRtV05fxpPPfptDDkR3njDfuya2CK56rjTxsqsOnKOA8+0oIEQMpsAwcujFqdoOa4aSyeReRWGitEK2yS7w3CdMq7bux+ddoDJK1O4cPEsdu7aIa1t6/UFXJ46hbEtVQUI0sdAmTIVIaujUI0LU2tKptkUW494MyOTpT6zjkp3gAHgFjn3wLkRZJlKJJtO1IVtjZwNWPpr3c7lU995YdW82H+8+Oo5cdJkBaj3qVSr4pjF0cYRukGAQpGRq3ZLlTQPUzXUKTkpGu06Dhx8Cs8d+B42j45gfHwzduy5QXraS8m2qRxh9BqngfQ7YHomCqgTIRDiuLEHSohWo4aZc+cRLS1j80AV+ShCuZjHpl03YPy6G/H80Rex4jfglgvwmBJlk56EFVQ2RaaMhD0vQIuo+qJEqwvI6g0kmMu0nue4uO7qZlrCx5q231xZPZonwyBx5vSMjb7D6u+3/vkOujdNpG7YPQrkWD73g1IMU3MtSXG3/a6wvWTgcoWCCNP9sI3P/c1f4sq517Fz2w7cdfcDcHJVdDn+jj2zg5Q9RYdsRsUuoWygp7qNwGoPTFpbSoPZhjrUcnAqfKViSiJ71WbYMdDo25wNQl8DS9czAFQQxXGplKqY2DKB0Q1jAkheeukFCX55lAy3EtlBjm3MexTfyfZJ2Q4Jq6P5DNmmOyTT8CjbWC4L1vSe9Tn6X/1/aKMkZRXUbQmUMPvbwYP3/ig+8aF1NAjLtQaeeV4bJfErS5FZh5m9QbswuEEOPPMMPv/Zz+CW/fvw8d/8kERJpO4KpTxSN498ZRBnLl3BwnJDo2yiTAqguh3Uzp9CxW+iggTz83PwiiVs3DkBLwxx/NkXMF9fhrdtGwb2XIeuxzIWrVxwXNab6+PlaMTiAKWki4snTmHL1q0ob9yATo4CSdG1IPEjDOaKUkUw16rDzzM7roIOGnEDsVbVvWuZmvYzsF3LREMg6JootY/uLH201hiuVf0aXrtncNdaNG7kP/9/1kkxTM7g2CkVKdp56BsBozjIdIizWhJGNZJ+MY089NAflv50gTSHMA7Qqs3AW1rAcLeFeGkJkqpyE8wFIZbzJdRzRXE8ROVkYqi+98m65GKUEh/jSYjxOECVQhw560I3KiPqTjdCvRtgxStiZmxMNCUc+DJ72Ccx/FwsAAGBdmjLjmN/LG1PCdUQWCNoWxWvHfMetZkR0NmxylKE1rFY52c/J2tcLZVrjTABwn133bdq2h5+4hVxEtIW2suj7TOHHUgFCatiqMbmeQkUJzZbDcn5ix5G2ltTwJhgZX4Gz3z3O+gsTeFH7rgd4wMDGMi7GK4UUFucx8LCojj1S40Gtu/fjyK7MNZqyCUpBgYGJa0RM/qiiLVSxYrfwUoSoUZilvXkQQWRz51XxMDABoyNb0az1cTWia2YnZrElckzaHcWkK8SdgTmEDbuDz2czILPHgCV6pU+LLBjtx4wuIoVypx3sZ5Ht7R1FvQxNWEbX619j/38Zx85fE2AYFur8wWsWGA5nTB/cviapp3YoU9AkGg2tD9BJ2jjke8+hOdfeBabxkYwUq3g5ltuQ7461GOXLLAUmym0ciDppm4UI8fqCwIqnz1BHCzXlrFcX8bG0WHkeA7G5CSWpqbhlgfRTB1s2rUNqBboO1TUxn4x7GhpOinyWqrK16ZmjFB7zEy2l0ympbjdD3ad67j2BZ86aKrD0TLKfqnsKqbAOpbMKFvgIavB6Gzs/Nn7EiaVAOHXP4m3/aAUw1xLmKdmuyVN2qgHIAjzIx9Hj7+ER775dRQQ44F77semLTvQ8GMEDFhYiSWiS7JELWHShOliS+pIz0pQLY62pyaTYLuBaqkjzzsxXUylnTiT2lrJxGexehJNbWokTiaYvkF7PzB9WMBQdQT799+IO+64S8SwTzzxGJaWp+Wz2bZ8eWVRNFpxTBAjihJtZZ5B16v2Cu8i4+jXAwjZ4Kc/j6o90vlevSUIRzRQosYoCxCYKvLwhnt/FB//wDpVDEsrdTz5zIurciwWtUjzEH5gBon2DUGKUydfw5//yR/jTW+4F7/+734VrPNnqYosHjgYGZ/AmctTmJyZ097/piuf63excPxV+JfOY0gMaQ7zy8vIjw0ix3KRxSW0/DaWcg4G91wHd2AEIRvRuHRsgCsGmAAhRadVx0iljINPfB/btmzFxPV7sRR1sFSvoZQroOqWEdZ4gFCC4tgoOkX28TZ6LNM2s7cZjNpdN4wdYKW26d2Yx5JuXxRJmnzfWgrIbo71AILtKbF2cq3x/Yv/8qfrahCOnTyX0SD0c1NSymJ6oFtlrZ07bhrJGRpVq4jYpMUvc3Qxlpdm4NcmsdUJUVheRGdhUYzR4EAZV+otzFFEODSMkB23CKYkL+cidBj1x9iMFFsQoUzIwOgpyUldfhL6YiwpvKOhbCKHmfIAGrkcusyJcf5EL5EilhphFdbYMehvBmm31UutZI2d7TXQmyEzWVkQlRXkWMNlx8YeyrI23ZAFKhZEWEPx2x/9bdx312oG4SsPHRLDUSqzgQtFZ2zhShEfT8N05QAVlsnS8DCyIN1N2jRKXSTUHrRbeObRhxGszOOG7ZsFiPFcgl2bhlFxI7RWFrFYq+H89AxWihVUtu+CQwU6DR/p7IRNw7TPB5mYYq6EWHQKDmpOgjZTOF0PBZRx2+33o+OnGB0bx/ETJ/CGBx9E1K6jVpvBwecfRzdeUkStGlqhK60FyzoiTe5cLV7sR5T99Zkd377TyCq9r/brlu2xv3Hk4La+KGstKOTvrgUQXjp2oVeFwfcRHNCmSSWD6SFCFoGHV4lyw/QToAOYmZnEF77wGfh+C6VCAXfecRc2jG0UxyQnKZomb9Y2kpGQFuVphKWlRQwWSyjDwZA5FGdycQ5xJYcwx6qsGPluiLTRQr3ZRp49RQp5KdXjf7aDKM+fEeGeaZds8+F8ZnvAT9b5WzBr7yk7llkAbrU8q0ef1HX/cCy7J/ldWFWpm19/7jSPr/Y9aw+tXWWP/7f/k3dePdnmJ2QQCNSarZYc3CbXTlMsLs1LaqFbq4kwcdfOXVLd1iQL6jEdoAyCBENsn+woiKJeyrZFVmGmVin0tQXKNsiYSE5fT8e09saOj71//bd21lTwwIO/CNJCKSHfvWMv9u3bj7GxcfjdELX6MubmpnHy9DEs1WbRatdFmCyVXwYgSGiXof2zPsEo4HrjlQXMtt321QCBAGb1vswOuGcOBLwaIChIZIphXQ3C0nINjzx5sDex9mb4nYNg8xdZI6ET6KBZW8Yf/d6n8NY3PYhf/sV/gVKFOeacUKiFYhGVDRtx/OxFXJ6Zk2y/tMFFjLzfhX/+DOaPvgKn1RS02KISvppHPgxQldaWEa74dRS3TsCtDqEyPCIno1H9LvldlvIRbYchBkcHsXR5BgOFMgojg3jixUOojAzLiVUVL4dSTMTGvC3QZK7W1BdTMZvBAb2GSHqqo56apWkiVcOKOlmEZ9p8xW5Ifs/msrMbpe90+q+3uaws3c2r/I//+mfrAgR2UrQbzyL33uI1pyJaAZEseulN0QdkBAcsXwtkIwU4fvwYyoUUw14LOwsJ0vlZdJZWkHo5VD0XV5brmAoieBs3w6tWpL42x9wXmwEhRSkMJbUwyjSF00HLCYEwJ01hUpYN8ZhfGtIwQidKseyWsFAqYKVYQpx6yMepiB05iTEPGpK8vZYJKWNjT2LUk8qsgbTqbBpwbWusqSs6NYnkFeYLwudn2T4JFhhkAcVakZDtwGmBnxUhcdx5/d/5TQKE1QzC337tAAaqVVQqRRS8HDqdlpx+qXbd1aOtcx5araYYdHG+0ojIQ9BuYfriBZw/dQJbx0YQNOvSrZPPtb2Sw3DaQdBYwvxKDScuXoa3bRf8wQ3CorHBV+pECJIuwrgrqvpc6sofng7KJk2ih5DWhnlUSyO49943ot0KMDIyhoMHDuLnfv5n0aw3MDc/ie898x1EaEjJqWhDRACpJwNmnbPuBI0YbS51lWGzqclVKYTVfsE6mfUcvX1lFiwy0rI58bWgz77+mYdfXNf5vHLikqwr/rHgQPL3SSI6BOoSSGtz7cjBPhxbaX4T49vf/ApOHH0JA9US9u7Zh20794rd6fodEc5p45t+C2qK20KefLqyhBOHXsCO8XHcc/udIra7vLyAuFpC6LG7hObFmbYrUSjMo5ql/JogRVknW6bKXHzWUdux03Gw+il99H7glj1quf/z3trvnSeg1SXZvZEFcauum6Gj164HqwfKAoPVKbsEH/uN38Y73vyz1wQIl6e1uopMDsffsjnf/s438Pzz38emoRG88b43YHhkFHW/iy4dq5QQU5SpHVUJbrj/xASwu4rplkjNjB4kxuZHLur1moCJarWsJbCRliiqAFTbURNkWNthBYqOw2owsoFsN68nJrJMtlKuSkn5DftvxPimCdEE0YZRh0D26eKVswIOuj6bNukR8AIORKui+yvL2otdpw00o2WBXQ9sm14o9udZNpSgZxWYyIx43lSuSO8FwyAIWDAHBz5434/jkx/6T31QYg9rEoDwvYOKkDJCFKVbbYMj01tAjINJc0iJXILP/vf/ituu34lf+he/AC9fROIWLImFwvAGvHb+Es5PTWtb4zRCt92A06gBV66gfvYUHJ7J7QFNnrFQKmDQ9TCaxOjGXcwlPqpbtkj6YWioIhNUGRg2XRZzckAKFQV1v4Go0UHaidFJUsz5XRTZecvjaWApiox8WdNcLsEnFR7zsKE22kwymJyr5F3lkAsFICJDFOfT34wy+OzdYIRT1pGpQF5FiVnhifQYMEoV3Xz28KF+d8oee3EtgJBJMViKvb/ZtZGEFGoy6pOSGpYxautQqcs26RAatKXlZSwuLsGfmUFSW8DEUAHbx6ro1BexuLQIvxugyk3UbAtj47BNbamAkbEhDA1WsbBUg99oYQAuhtiAifm5lAbVR0rBjzG+1qFLTjeN0XRSTHlDqA9tQkc6l/EgJ3suuXYd45zICYemwY6md/QUxmx0Kg6cfQRMbk5zelyntkW3VqnwK6trsFGVbijbwMeOJNdEP9ebZRIs+0CAsFaD8PlvvYCBgQrKxaJEA3rUNWvnKb7koT4l00lT50NOCYxjtLuh5ElPvXZMBL6bNo7pcbkc8zTGnkoO446PpLGMhVodx85fQm77drR4jK004dNyU7DJUthSOprlkjxXgVEEl0VEeT17JRSwc2I3brvxVrRXGliZX8TK0gLuvPMOOIUBzC7P4YlnHkbktYQJ6qncRd1kAILRf6iQUDodrOu4euvSVpJkBIzZwONqJ2NbWvTBYS8P7Kioee17stHs0w8dWtf5kEGwzcFYvcD3aCWDdmkV8SKDFcO2sVSOmGp2bhZ//4W/Qbe1jF07tuPW2+5GmHho8vAzsI+CahAsKKcDIrPAg7QGWx2M+gG2bhjFlYV5zLabaJRyqHtk4ahN0I6TXMCsXgnJzHH+pIyYzaS0mkZLVlmlo+vfrkl7XRvtZlkDCxJ0v5hGXXaf9LrUmkjflkqbIEnek+1pYefOdCa1qQkzEdkkU6Y82BwaZL2blOPF+MQHfhc//Zb/5ZoA4dJUTcAZmRxpghbHwiT89V/9BVaWprFjy4T0PeBeb9Dx5z1pLsaqEGoJCBDo3AnCpcSxq+WhCu61kZ3tvspUBG28LWFU1sEyQnpuj2Vls863UNBTW+2hd1LlIpo19pxxMDa2CXv33oBioSpzFUZdvPbaMVyeOg8/aGGltiTA0JY+ajF6v5fMKnAmHWrNXjAHBfZskq1ikBjE6gosSFTfbHTcq1KBZNwVt2cBgl1bCRQg/OHVAGFxpYZHnjoojoWMQY4d36SHJ0S0oxFF3yXZjSkDFQa4eOwIFibP4l+955fgFYpI8gXJ/xAolUa34NiZy7g8PYmZ6XM4e+YIhjiYuQI2REBrYVEQnB/7qC0tYXTTd1n+HgAAIABJREFUVjmQJl1exlx5EMt7d+KOia3YXaTiuCE1yqViCbk8z1zg5GTaRdIgyhfrSDWfKI065AwCc4qh46LLFEYK1GtN1NoBltm5LnXR1XZJorrVfJztiJUtsTIlcRnhiKpHHdnI4tzMMdbWQYlh09pM48A1ul2bmuDr/vrP/vKaKQZ5MmPgeqDCijFMRy7pKyWHlURyqpe0dTXR+OzsDJaXl5SOXm5i6dxZbBp0cPN1WxF0a1ipL2NhcQlbBodESdzwfdx4x23IlYuIpANcglqjA7/eRClKMMyuZxJtae6VzIEcHrTmgB8/6KIWRbjiDqI5shldKZlk/lSbXeU8c1LkGpFidsOs1gxoaSjTGVkQIIZSKmy0eZb93VrHZEGWRe06F3pwiZyQuca58do8VOu3P/pbVwGEbz75kvyOr/E7GomKwJXnEOSpcM5J9Ywc22x0LRRwEixPX7mC6Sl2kKuKU5B8J9duEGD/cBlbcxG8Tg2LKys4fu4cusMb0a0Omgoie3ytOXlOHIKCQWn1a05eJDMz7JRxy8Q2DEZtFFo1xK2GHCUNt4h2y0G9WsCh+Uvwy+TktC+Jnl1vz7VffercWiu/llnMztU1PYJVyPfEvqpEzLJk9r32UBmxO7bEyPzSztWBh15a91KHjpzvlUXyswlAZY7F8SYiepYqAVb18PRMihMR4eFvfxknjx/HcLWK++67H7lSEe04FAq8IuWP2mbXOhmueUas1TTBTUMj2Fat4vCJYzgxP4fS5gl02COf0lJz0h7tizTQkXHWNvXKUmrJr7ZjZykdyyz7ZzhY56U2WMfLAt8sI2N7YaxlBDhIyqUq6ybVU7ZvhWl5bwcyC8DWHdxM91wLGqR0OPtiQ2t//EP/Ae94y7UZhItXloVFZIMxggSO1dTcJD776U9jsFjE7bffgQ3UMfm+gDmOP8uDFUzoUc324CRb2mgF1b7f1pQQxfNyzgLZBgYiahvJMFjmUtMM/S/LClt7XSwOoFwakN4cy8s1CWxGNwxhYLCAcqmK7dv2oFCoGLY5xKEXD2Bm5oKknmiTKZQV9kdVH7255RUt65K9vsxf5kRgYdLYNlUq5XSss1IDB3rkgICJNZNmOgCph1wnVaQphnUYhIWlFXzryQNiIHlwDh2kBQhC96yacf1wfrEbQEpauLmEky8/j5/80Tdg1549CGhoHdLCMeK8i8ef+R7OXzqL+tIiok5TxCZ7x8ZR8WO0V2rwkwDdbhthq4u8V8LIjq2YnFnE4cRDe/8e/NyeHbjTZakeS5BiLX0xXaA4YNpboN9KkpuGi57qZUbFXVLlTAew5CZflNSHlytIM46llSbqYYyOm0ebjpVRpNF3am6hf+CPdSycSGlObOg5ex57L8XA92SoO60RN6dXJVczCAIgjMbjs3/56X8UINiFJChXd6bMHWlKompGwtK4SNiDGH63g4X5edRXljW3KWWhDl4/chg7h4q4//qdSNt1tJdXsLiwiFw5L+WHi/UV7NizG8PjG9El4HNSOUAoarSR7wYo8fwAOTiLegNfmvzQgNmaeFGCUy3MA63iEJcxgO7YNnQpopWDZghpuU4yUWtGrSupFHPAjZbb9nPbUuVrS0Qzwjd5j4joyOgQMGizFlkjpr2pOCHTJtv+nPNDR7TWuVkDTNT9ux/7Xdx/9/2rtt23nnxZjLuURpkDW6yjK3jaH13BaiLAVBtaBZhbmMXKyooYCRoNsg+SE40C5KMO9m0axZibijO/PDWNU5cuIdmwCdHwqAEI6pw49uoYFBiwo5wcNB2EKPBAsMTB9nIJEwNl5DoNOKzi6bSRuHl0EwcrnRRX0ghzJQd+iZ03Wf2gTlIBXJ+uzjJd6zmM9ZzRKqe1TvfEHrgwpQq94COTopDOFaZnvDVu9vr28w8+/PK6PuyFV8716tVXa1z0xIRWs4mcOYGzE4RSjv3ykcNyYNlgpYqbb7oJw+yfIidsanRKNbicgcE5D0O4pkteyUuxfbCI3ZVB5IIQL50/g1O1GkKKGpnpSRVkKztA5kePZDYygx7NbLVEHAtpqCMHvq1WsqvD0kfOpjnsIGjzn356ITt3kqbutaVXcG4ZilW+/Rp6g6scWOaz1nM8/Nk/BhDOXpzXsw4iLRVl/vF7Tz+O7z3xOLaPb8EDb3iDXJbNk3KFvAl8NIDl+NHJK/uo+4E2h7ZD00u0NVoKbDUIcUJbpSDBitDtOGbZSl7TipV5hsHI8BgGB0elpTb9Gzs8su8BnTZ7pWwcG5d9s7Awh6WlOVy5chF+V08NVTCiAEH/rWshu0fWruss+ObfFUAb9tBW0BkWQT/UNMr7ASk+e42sraP/fPB+AoQ/6E1vr1HS/FIN33jsoJ5ESFWm60r9vBg3yfWsLqXjJzBSY002EZTXWsbC+ZNYnpnEL/3SL8ItluB3eEJaHs+/9BQee/pbQrcszC0j6ibYtmkTbt65B06ji3atgU4cyGFMjh9iZX4Fd779rXju0hwe6QKNnVvwf1y3FT8azIjxIkNB7EVKiTQfH7KnpjWOghPNLopysiMFk3JqIA9JYT47j1q9LgZ7oDqIer2NyYUlLPNhylWkZE/MAUxWnWDZB3uEtDgAqS21DkudF+knOgp7UJW01ZVdbBTCFDZKqViiynY5nKffSIOL5bN/cfVpjpeuzOLoa2d7wMEuMNUjixWXjcVmIeKM2KOfzkOoti4mL11AxBpgGnuhv1PkizkkrQY2sCVyuYC4VsPC1AwWFpaFzRnbNIp2t4niQBk7r9+H2ZUaCtUK3LwHv1ZHsROgxM6N3IDsW89DUaR23C5iUnvqELlpW3GESQyiPboFPg+YlEhKTyTUml57joYqiCUiYyQheXD7pXiZG4XHZjM3vdYIiuOXVJY2jOlTwPYwGu2gSPaJX1kWh5tewiqbLpKT5fSazOn//if+QFTU2a9vPnrY9MHQ/CXnUBpcciMnnOeSrD0qszu+nkLKSoZLl88raJUDzAJJ1cmhMmkEL+piz+atWJ6axYsvvIipuTm0Qh8333c3ymPDPYAgDAhPDTQpMua2Iz2UASU/xMbUxd7BUWxEC2m3IT3oW80WWn6EdpiiGSRoenm0BkpY4bkQBN3StCsU5TVLibPju+rBM/9YL4Jd77VrDe8qY2g60K1nvDRCWS2Qsw7PGtfnHnll3ds7fPSiAAQVshmFu+gGeAAcOUMHLE+lLieIAszOT+Mf/uGLiLtt3HTLzdi4aZN8LgMl6ndE48JjsA1A8OIUFabaqPforiDXXsLde64XcfSJ2St4ZXYGnUIRXWEMzEmABIWRHlNvo14tsVN620areiKgts1e26RH17Zt6HO1g7cAYb1BkQose5hZBkTwtdcCges5/rXzaeci+1r79//rA7+Nt7/52iJFAgQeK0/NEp+522nh03/1F5Kyu/uuu7BlyxbRJ5BBZp8baWbElKRJHShroL0LBCiYygZ7iqOewki9gYoTWQLJAJJ+rjcH5uhvu56tfeC8kHUiMBgZ3oB8vqyddeXAphSlEg/7KmN+YcF0vYwxPz+LRmMFfteXngs2PWB9lY617K4MYFh9nEEfSPQr5nQ/qmDeto6Xz1LLKMBlLWO6ap+Zf6yeI0oL8pBGSR9ep8xxbrGGrz7ETmQUfjkoUHlt2jnqUZCrGyXxGhw0ViW4NPS1eZw+9AzOnziC/fuuw+133SUH2ExPX8b5ydPoxHW0o7YAinyujA3lEezdtA3N2SU9KjmK0W624XQCNJeWsfvB+5DbeSP+9Pg5zGwZxzvHh/GuTR4qYQs5cy+6GG0nMI2K7UMLDWWoIs1rhXB5KAtbeVKUAaDTpQI8QbPt4zIBQhAjyrMRjTp/bbVpqZh+kwmdNHZgtD0RNLVgIRRZCvlHhnXRLnBML0hhS7/Rz5pGGHymz/3l567apBcnZ3D0xFmjNdCTwYSi5FkOQSD5bwEDjNapjhfVc4hWs4H5mWkE1HzEgZSEkmWjInsw5yJqtXHh9dPYt2cnpqYncer1s3KsbTEOcev1+1CpeCgN5HHjbbchdHLipNhpz+l0EC/XUQwi6YJJyq7RrCPw9eQzgoLBQZ706KmiOIlQDyNccQbQGt6ErhAzRPpyRqmhw1LZ8L3UpTAJbJayus0p50SYE2o5pGZe2ST90jUh5wmY6ocseLQbxW6gLDgQRor1wb1PMZ8ooFMV3H/wyf+EB+55YJXN/dZ3X9JTE8XBiQjElDFqy1d2eWQzr3anK/uFIPPixfMCqqQ9Mlt9m5MYqV2g4WOFycljp7E4t4Io0Jax3bCLPddNYN/+7XJ9yU9LHwt1Kip+ZFdLlvxGmCiXsGd4GAUKJuuLaHUaWGy3segHaMFD18khdjyEORfNnEMIISJWSS84ERJuAups5Ph1NVxrtSDWIWSNXp9xudo1rRcp9V61BiCsclT28Ks1xi37mmsxCAQImofuV8pIQx0pVY6kKqpDJlO64AV49tkncPzoEWzbvAU7du8CN4wcvkQwRkNv0oXSoTOOpDM1QZUvx8AHAu5u2boT4yMbcWzyAo7PTSIqqrBXWCZpX61t1225nQoSbVTZ71ugEW1fiJh1wDrmmivnONjvdjwJHLMOf5Uz76Vi+2t87d5QR9Qnqa2Ds2vhWkCiH+X2K0/42o998Hd+IEA4c3EOQZKiQ4fPdOTF8/jyFz+HsdER3HX/vWJAeT6GgH/TbIiBFhkcPbhNGRkFAroX9N/aEVHBQywCUwJ5RvzWNtn+Ntl1nGVp+Rksady+bTcGB0algoHBINMUnkd20MdKbRkzM1fkvAf2DxEwyPNxKDK1+c6rtoSmGCyDs5bFWcu+9eeo7590Xi2w0/nKzk22km6tfo2vVRuogew1qxhm51fwxa8/BdrZYiEnnd+IsLTvvhrx7JeAgzBEu9nA+RNHkW8voXHhlJRqJexUCAflgSI2bhoFZXJdGq5KAStBC4mXYt+mfRiIC2gvN9DuBmj6PpbnlzDOwY+7KIyP4PYfeQs+fXYaTwQhbisX8e5bdmJbvIyCoZBs9E5npIdkpMIYZCMLiwTZdENU7Tx+ucOT2UqSv2q1O0g8D8sdH1dqDbSNcyWDoM6q37xHJ9FSc0rtW3rIKusFoBDZ22ZCpjRG2QVb96qGNluSyH9rRJDiC//zC1cDhEvTOHLidWWP+CeOUJIyT6q78+iymU5jCWGhjEacl/r6oLaI2clLCIMm8jHzzsvYMjwo+dMKRTT5HF49cQlPPnUCbmkI7W4NnXZDG3k4Poa9Ydx1wwQGhttw8yXs3nkdVhbOYbCSx0ixjLTRQYF0oN9B2zAISdhBt6Mtr3ft2iWCUlJ9ZDfm/RTTjofW0BD8xJNjbqU0ik1goP03ZFMKrNZkqAjhTLrAbpbeIieb1Ovy2Ufe9ujxPtRYnW+za0LSRD1gYVY3KyNyZM6094U1vLwn7vH/+Kk/wgP3KNVpv77x0GExOLk81c8+cnluOEX4cUw46IKdP9k6lgDhypUptJp1ESeJTofCNNKMjHyCQNvGhjFefuUkGvUYkR8hDlpIkzZKVRd33nObpNh6AixRRcdoNlfg15axZ2QUd26fwFjOQcISxuU5NBbrWOn6mCVorJThV6vowAE5nFwaSWOlQBydiwLZCObLmR6RZi6ru7hZI5rNl64XOV4ND65W0696zRqAsPr92jZ27ZcFeLz+tRiEl45duupcBEk1yREgbIZUwEqzgzCNcenC6/jmN7+I0YEqbrv5NuQ4VmQOaHN4JLL0SEiR2uhdOvKxZLirGhJ2fQ1T7B7ciIsnT+PI6WOobhnBtt07xImoNkadFW2WfqmdsYywOD+j41HjrzS0/bIAzIKHawEE7i3r5LM0tTTQEp3SOofvrXEu2dRDFiD0HcvVzPLaFJ299ic//Lt4x09dW6R46uw0Qvaj4OF1cYSXDhzEKwefwR133IaRreOi4xHBs6NpBX5xvxC0SRrVp6aJgMoCCAUE/RSNHtzH+JKixY6h/XsHz2XaWVtblAXAPJl3//W3SYOjUqmMgcEqhkcG0e02cOTIi5i8ck6aIfGzmZp2kEcSeyI+7R00uGYB27ldO87W7qwF1HYO1qbh9Jmtrm01QMiChfUAut1DrmtFin/Uu8teimFmfgmf+9pjki4o5gty5rnNwzNNTKREx0f159nTp6VpyFClgvMnXkJ79jJGeW72/BySDrscBtJjnO0mx0bGpItfM2ihOj6I0saNcCojCOcDeB0+VBf1VhNL9RbOn5/G2PA4JsaHsH28gvseuA+vpGX898MnMF4t4Wdu2YbrcgmK9ghbEW7oMZ3a0IhHH/f7NYggUAoO2OaUnawYybK5RV66dC0sLsoCK1eqSAoVTC7XMd/syNkERPmiEndUICSHXRhKWiMIVdFn5SHcsJwMCtZYDiPUEZ1Yr7mRjrtUOrCExZxOaPpBCkAg2/GlawCEl4+dRsLcE68bRyiQhu/6WLp0CY3pyxL15cc2o7h5B1b8EPNTl5E2lxB3a0i7dWwYLKGc9ySHVipW4ebzePKpozj40kXE+SEESQcpO77x/Pqkg7g0jDv3bMbNWwp4efI8BsY24v4tQ9g1WoXfaCJuUjmviLzDEp6wi7jTkdaly8vLuO66vVJWxrFudUPMdoC5fAHtwSEEqea6WezHRjB6zMZqqk2MG38htH0fGVvHJIf+mP7i1hD2DKKdmXW0M3Zz2flatYGkOkKFivZ19r5IQ//Bp/4QD9y9GiB89dvPoVIpaZe0hDXRbEKivTKo22DTJC2bYwVJHVeuXBF2Lg0ZcfIwIAMUyB4wQnJS+Alw6tRFzM5Qo5DTdrA8mS7xcctt12NwmEeN82m1G2CSdDB9+QqcxUW8+413YzgNUet2MLeyIkZzDDlcqa3gEsHAwBD8XEEOyUoEbFLIGovhJSsjFDpH3h5SkVE62bFYFY1mjF7WgGVtYfb114o8ZRGY+eqN+ao8qjkorZdvNWeZGLXdC989uh4mwaEjF3tiNHW0ejyvOuUU3SBGrdFGp9vBQ9/6KhamL4juYGzLNrFdZKNEGS/jrMfHqzZGz7/QXiNa7qiBeRVTF1cwNbWMtt9E4tRww02bUSnzzBHS4kqNa7WCEdualJgNOLRJm+1HoHbGsoY2YlSnok6BX2sDI1ZTWAJADiaSSFVbsMsZIRL6maPVMylky8pqC/mMIl6iTWU/LYbv06TS9asHSNab438MIJw4Oym2txtGctLtFz/7GRSdBHfdcxdClh5GkQIEYyf43e+ynFoBlc4DwYLR5piqFEk5CAupLIO2XNYeCbZ8WhcO0z56iJr2CaAdKAoYGBkZxujoiBkMB8PDY9i6ZZv4BPbIeOXIYZw9c1x0dMIEacGfnJMi9qq3h1ZXTslcypk0en37pQBhtcQwO7/2fjXy19fqetC+JeKb7LrI7Ao2BhByu3cyav+X7AXxxvt/Av/+w/95PYCwiL/96nekpzRbwzIy4x86raXFRRw/cRRUgi4uTyPs1JEGLeyaGMdIzsUAJ6fWQNr1tcwr6qJLoZXnoJQrSZlaK2hi054JDE7sxEwDePzRw4i6bCBPVOijE8bwvbI0Vbr5puuwLd/G2x+4BbV8GWc6Dg4/dwB3bBrA7TfuFSQuplFKWnQxWFGi7UvA33PRzM7OYnZuDhM795g8ZIiNGzf1SliYhqAhb0UpFhpdnJuaQa3dFkzPM8lZQ96n1GQbmvw0J98KXKzOwDb6YUtSrZqQd0ge25Dfcky0bjJF/pqIUtWpNqf58qevPs3xwqUpvPzqSWEQWBbl0jAQkIQRpo68gvPPP43BqoflIMSW2+5Gt1DE1NQk8mEDpTREpeBhaLCCsQ1jKJSrcpCW4+Zw4NAZfPfZk4iKIwiiLlyKqNo+cjyffuM4bp3YiDtGPLw4fQHOQAlvGixjYy7EQKkoqlwaTj8KRLMgxrQbCJtBgLBv3/WisyDTVGt2MdmMsFgsoVkdROwWNBpzSI3bsq6+WIpjrgY3gpuzZ1poeZqALIIuc1ZDNjqyTIxUn5icXA80ZGjytZutZ2TNprR0ujW8AvRyefzBJ//zVQzC1x56DoODVXS6TcM6uAgph2efgzQ0FQya/z537rwYupTRI6s45JQ+Gi5fgDWNm5SZOQU0Gj5eO3EOjRZBRihH0NLA7dgxholtw0hTtn3N6yFfaQfzk/NwlpbwjntvQLe5gNl2R04Y3FoZwJDfxaX6EmaLOXQrA4jknE1HSoulL/2akxWthbCRjf2eBWI/iGLOeuq1keda4ND/d7+kkj/L3lPWCVrgtvYaL3z32LoA4cCLZ4zj0jQkqwJoVFnhIyVz7Q58P8RLhw/h2e8/jl0Tm7H/hhsQ54uGedAolDXs9iwKPW9A8/+S1+bZFKLojxGmORw7OYfFFQ8+c6rJCibG89g+wZMj2YqcPzMggyCAh5gRYJiUgLVd/TXaF7KtnYf15qBHkxuq3c6Zfa8cbKYFaj3gfa2o3+4tux+y18vei3yYOWJ+vUng+z71kd/DT7/159adI/7w9KUZ7Znih7h08SIef+Q72LtrO7Zun0BbgFj/D18vZYsCGIxWSUAAgZBlaBS0kTHQPgcB2u2GAASuAQYBfAbxAaYSRE5t1BZ6yHtlbNiwGRtGN6Ba/f8pe9Mgyc7rSuxk5nu5Z1XWvnVXr+hGLwAaQBMNYuEiaxtL4kgztsZ2TMx4xvPDdoTD88eakWxJpDRayBEl0RJFihJFkRQlCpJAgiRAkMRGEDu6gd6rl+qufc+s3PfNce59X+bLrGqArgigqiuzMvN971vOPffcc8OSOlhdmwf7eEyMT2PP1D45C5aXF3D+wjvYTqw4aT/VCxgWQIXL3TbyZhC0LLsDBHpTCu5/u9dA730xa0UBsCu11FviIL4+u5ldKYMlAOFXdilzXN9M4G+f+q44QhFVWz5WMtBz2odL5y/ghy8+D8vfgGWXMToUQjziQ6DVwKAVQbDiQSVbFLMiUt4UypVrHHR1hGNrplK9gsnDBzF21wlcuLGJJ597U8wkLJZ/sb0qg+L+GCITkxjZvx+HY8Av3TeNYIvUnxe3Ll9DfTOBI6fvoRePLEppRkQw49ODmKJFQ8/xgOJNj0TYQjUqBz2BACNaKY+pam94Xh/bUVcbLRQbLbEFnltYQbpQQJXiMe5ZTptas9BMy2fpQunKy5qflc0gQNC8oE4+RYlaeWGoa+0Tzy9NjWhe8sm/fmpHimFufgXnLl5jiCcKdQqkEhsbGOnvQzCfx7vPPgV/I4scbUrtADzxOArVovRMt1st7N+7B6FgUA4nK+gXFTDFmrlaGJ/72vexmiPV2pSKBE+5CstXQmBkL44MD2J/sIL1fAYBy4fjvjL6w16EI2H1MWdjGy4+RqB0aCxXkMvmpBTsyJEjAhA41pl8CUuFCpLBEHLBCKoeSyhbtsYVW1AuoF3q3CkaE48HBw27c4QECJoK6PhJmANdAEKXBqSzaHej7czrGyvSzgJ2aFjH0+CTH/80Hn7wg12b3PefPy/NZFhhQ9tXcaqsSssiMTNi5EYGYH1tFZl0WilOUqQCCJhOqEjFAA8IoYXFuJ0qeQ8KpTquzy1jZSsFOxJFJBxCyF/HnqkovK0KvA1WgEibGSzdWkFpI4GpsSCGJwdQ8foQrjdxyB+CN5/BYiGD7UgIJfrbe2xtbu3MOTMm7kjfzei4gcEdd3jngd1ozN1+535NedyVYnC/t6FA3YeTAR1tsOjx4E4A4ZW3bjibogqqpY8F0wLsu9BoSo+G6zNX8b3vsmohgFP3nkQ0FpM9yURlYrTjaD0EuDrVOR2RoVPaS1fLpgc3Viq4vVWHJxhHfDAGTyuHQWxgMqLKeb6upBGcQ1X9+jv18HqwGYGoghE3EG6PRbv7aFu502l37jTacs9lWR9cL05X2U7w0021uedBG1jsokNrzwUpFeotquvMFAEI/+l38XPvAxDyxTLK1Rpef/VVzN++gftOHBfL/rJE99qy26x3sUjmODp+LzKuojtg4KKgjnstUw9M6zC6JxBnqaMwSGQgKuqPYMZa95c6AoEIAnZEyhVphET2gF1PU5k1YRcO7D8k+2c6ncLi4hyWlubRbFDDstOgSlLVjkbAPW91/itrdqc1s9vv3a9hDvvO85zyZKcxlD7XfR86Tc+6waWGU4+e+ejuAGFjK4Gvf+u7Qp2T/rRoPsQmGaUS5m7dxJWL76Cvn8KMIoK+CgJoIND0YNjqg7fURKVYQZ39zr3sTteUBih0ZCPd6kEApVoFsfFRHH/4Q3jr8jKefPYVNMT1jWrgBuqkrkIB2P19Yop0fM8QHtkbx1RfS1qrFlIFzF68gUOnTgABr7hg8eZTCMeJwckSCoXa5UxuD30OT7VN1zFXbEklgdak1uFjSoXtpYslQa8V+LC4tonlzQSq7TLGTq2xLjLmpHXR9iIy3dzUDVCVxzoRTHTrjqjMDTSlTnzeN7/y7R0A4dbcMs5dnBH6in3RWbZYzhdw175pZNc2MPPKc6gl5uGpFbFVyAPRKJo+IBSNYv/0YQz09Zk6S1gBdstk/t6DIvrx9z94F2uFFrKFLHJbGzh19zFUPSlMxffDV8rDqm9iOBTD3mAEta3r8EVsBEIhx5ykKChecuflMqpl1XVw0R0+dEgaFDG1kykUsVqqYMO2kPYHUaUpMAMpMgg8SplycJm2tMEWozTxWu8sPMMuEBzwGqSc1O2GaQ4q8RnpNB4z96p30bnzf6IYcMCI+36pBsGD//qJT+Ph0490nZE//OEVAQikj7PFnGhbauJi6FUfiloNuWwaa8uLWvcsKmqlQrVnBZkAcT9oC0899J8mwGh5kSjUcH15A8HhMaS2Egg28zh6cAB2s4xmhVGrTzQgN2fmUMnkMBi3MX38IOqeFmLlMk6GglJKvFwpIh0NoWRJsw1hYKjx6D0M3JFhb4TaCyDeDyyNi7xGAAAgAElEQVT8OMCi/Zo9AMH92m4xqQGB7iiKn/Psc1d3/Tgvv3FN5gHXYigUkLa/jBRpTlRizX2piO89/W0szs3i4P59OHjokOwXvCMdoZt2+zNVBqZpVafMkD4gLHskc+nDWtFGMTCEWysbGBgZQKWQwJg3iVFvVlOdBLcigtD5K/S/U43iBgI6Vzu18gY4tSN+19rYMdbsEtrjaimvzVeUJdNJ25lgpg2wXWBvN3bJrKX2e/J6utjWnoZ/Hg9+/f8ig3BnDQIZhGyugO1MFk98/e8wMhjHyWNHZA1VWcbIEm5He8CxFoGhgDUV6xrvA2UQNEWsrAPTCmzKRHCg3hFc4gQbJo2j+i99Pu8pAYKfYvrBUQECdEEdHhlEtVpAOBzByMg4lpeXsbKyhGwuJdVb/K/ttOvyUZEg0YifHVF6mx1yeE4zxr2sWft5PWWk5t71rgsDOjQ9sROwmeDULJTO+tYxefQMGYRdUgwECH/7jaekzDGdSiIej2JtdQlzt28hHPShmFtHIFBnmx/YzRp8lQbidgzhugfeMqMg1sEb61vNl7GVszY28iNfKaIZsnHvox/FSqqFbzzzBjJFdrOTsFqrKOt1TA0P4/jUIKb6wrBaVRw8NI5g1CNNf65duY2J6XH4Q2p/HI1GBBywydPIyEhboEigYCauGUguSjqm8SvglEZK6VOzIfnxcCgg1QVkGiotH0p1D67cmsNSckuqA4hUTSMrWWRCYXfK8tz0T7vgpE1pK2tguoJ1yrU6feh1wanq41t/sxMgzC6u4p2L1+CjItbXQr5eRGZtE8eGJ5HJZJBMLGLz8lvCImzltuHrG4TH34/pvXswODQAUD8hPSQYN4p7BexqCYlWCE+8NY+0J4700gJ8yTn8m1/8CGx/E4MDw8IkFfMpxGklSmezdBKplWU5mJlioCtYo1ZHuZB3Nt4GckUeii3smxjFYDyMUqOBdLGCjUIO3okxZHw2kumS9AuoW0qImWLCNqp2SoBMSyD3wdSJiDriLXWwdLQKDjAw7bc7i8KUSMo22HWYuA8bKT0V5sjxq3CYDXZe+9Rv/SEePt3NIPzoh1cRCFkoVotI57PqFkor8AZZBU1DLc3fQqXEVtj0O6hLmqjIqJT2yGJMJObkImbifMuKXgYCEHJNLxINH4p2CKnVTdS2FnHy8BDsegG+pgV4AtjOZXHzxm1UMzkcP7IPof4o6t4m+uslHI/5kUxmsIkW0mG/tIgmUcFumqLxcCqBOCAGHLgPD/dA7Ty8fhyI8N7PeS+A4F5XuzEIbbDXAt558dqub/TKm9cRCDLVqUZE+XxONnIynflqA8VcGt9/+ik0yiXcfexu+IMh0SyR3+pE+yY61bJd3ci5ATtMgFNaJxR3q4V8w0a1EcDa4iIODPShH2XUUUa6mtMUpW2JYJqvQrMkNk2TkjnHv8XoY8x6cIsUNTXp6ERapq6/90BgzaT6gLj3QgMQPGLl3AEIXevLfa7sEt2670mbXZBmbi6Pkh7DM36GHwcgsKvw9dlbeP4H38eRQwewZ2JM+lJQ9m7sj/mepvmWMgiqLdOSaIoX9b4Z50QRKdbJaHN8tR8Df2eq3HjtRosgrIOPe30A4VA//HYYpWIZ/oAlDAL3FKaoCRpu3bqFHMFBk3oGilWVGXL/x+tWZrSjo+paTz0AoaM76TbRM8Cws/d1t4E2gZD7td2BTwcQdOscfmyAsE6A8M2ncOPaZczfvo7pyTEsLcxhc2MDfj8wOhZGX4htY9mhzIK3DMQ9Nry5MlqMHpns9LI00qkikDr8Jhqcn16gUMhJu+cHPvzfwDc6ha995xXMziUBbxS+vggGx8LILd3Gg2N7cKzfFqdFlhXFJgYwMDWExeVl1ApVjE6PYXh0UBcZNzpHpEN0yeiaVL1bh2A2vUyaHfRsuclS4uIcQFygFTb9YDqFJV80VJJeAV4UajXc3FjBrfkllJlqZMMiryU6C8kVOypI0RToKnQwmwIIsikSJTgHIKMGo8Te7YbS3Ij01TNff3oHgzA7v4x3LlyTkqoKtxrmsDfTaF5dgq/aQqq1iVJmVppRXff40RwbxSOjwxgPeYAwG1yRTnYsohklk9mqlVHw+vH0W1dRavhhlwqINLL4icfvQ6QvIpsXHTRLxTzqxRJGBgZRKxSQnluUw4XIvVwsCJuTz2akprxWriFbZrdOL+6ankA8bKFUq2M7X8R2sYDhY8cwfPgI8pUmUukMrs3PoSDtT7Uu1AACAjcZUpcxUjcIU1ZGc8D61Rvtmo3RfDcAQg13dvonmA3T7ZwmC9wYXjU9+IPf/mM8/IFuBuGVVy/D8lvYTGwK2BEXgiZZqyYa1QbSyQSWb99C0O9DNBxELp9GsV5FoV6B3aygz99Ef8BGs9pEJlNAslxCwUefhzAqlSaqHj+uLC2hbFnYE4rBu72J+HhU0hJsZe6pe1EolXH92jURjR46egiwPPC3qhjzNLA3YOF2Lo8MG2Wx/beIbKms1jkrDTZ7DIyMaMpt4uJmvtxj+/8HIrgBxs57ZtIM3aK7972/XFct4NxL13f9KG++fR0DQ0NyqNADgt0CuRKZBq0067h47izefeMNScNNTk+jLKxVCzVahzsbvtLXnG+0SaYwtyxRP/0iRIvASge2F2Z/BjaEqtaxp68PdrkEdqZZX1vCBoMR2pbTl8WUpzreCkY4yQsw3Ro742MaxXUuzwAUZTE1x232NAN+vU49vPtwkZ8Z7RMgOC/Xy6iBzEN70M2TeoaW+68wLI7Q0WUlb9g/kwowUfH7aRAu3FqVlOW3vvkNrCzO46GHHkI4HBaBbw11Feo694PRP+cu399UAhnPCAIEVpVwXMgWtH0PnGZNyio4zaAcsMUx0LJhTV2HQrxPTI9SE9SSduCFQgHBAAWLZBLYjIu2yWzhzP2rJo3XzKHMtILZm4xhXqc/wc5p2gvMzb139/Yxf+VmGdxVPOZxw+70piIUWHYLSd3pWV43NQgf/0+7aBA2trbwuS9/Cc//4BkUc9sI2l7YHi9ycrB6sXdyEPEwJwXbZ7YQqFsYZsSdy4mwxHTGM8ZFsoGwMRC3Sx9QKVWQy+QxdugIHv75n8c/vXoer52dh883gNBwP+6+Zwqj3jLCW9sYs4HS9pbUhjf8PkwfPywUT9iyEe6PwGa07+Sdu/JRTuRoHBYNbcbv1FO0WzaTpmeHO5IWQvXSDIpMB0s5tQqCBy03j6KniYXVTdxcXBPXOUYH/GINNTePXppO/i0WtsafobuzmUSmPdGrucnS3NDjwXf//rs7Drubcwt45/wMvB4LeUHEdfQlixi4nURzJYnF8iyy3hUkq1F8zzeI2tEp/NvxGO7ylFALOHI9qfjgPSTIUR9ylnBtbm6glM4iu76GQ0f2YWTfBOoer5Tl0dAnGGAr0zB8zSZyyW2U1rZEJCkonD72PNCyWTE0KZcqyNYtEcHtGx/CWJ+NRq0qfR2yxTKGjh7B9H2n4LUpkvShUKvi0s3r2EikkM7ltdsnLYt5X1xyaXP4tw/rtttip1GOe9npQlcQ4EblDpTo6pVhFqObtnO/Vvs9W8Af/PZn8MEPPNq1ws9dmEUmQ/0Hxa0EVWy80xA72GqpipX5eS4AVHI57N0zjq3EunQZ9fi9iNgNHJqMw1OvYCuRQrnqxTa9CvI5BIMxFIsEvh5hv9hgZjreh2oxj1LYhxK1ZtJvQcH00uwcspkcpo/dBX/YQrBexTiaGGi0MMe23raFGjdJKbXjEal/T28obb7UG1EqQ+PekMxzdhwq74ESzN+7NzADMLpBneZjdwPPO8GE6wxzih/OvrQ7g/DuhduIx+NaucRNvapmYtTObGeTePKJf4Dd9ODBU/ezby+qdAttkjJ2RG+OeZG7/FBEiVR+lEvCponBlWMe52k0cWAwjhCrV0o5LG6soeiDaD/qEkCpORKb9ojVspTb6v5k3sM9vlpF1XFRdEeo4p3pSjK7xYZOg0IZKHc0Kfee+9NuuW+nBPI9bmfXQ71zxtwnk55zp6veDyCcvbGMrfVVfOkLn8fUxChOnXpA9DystCEDwLEy5Z+m+RYPewWdDa0gkODNSfdQX9MicCs7aRq1hNfyUDWfMp+f4MIwCZZlS+UC56GbteA1sUKN/j4+H0XEWceyWQXG7Alh3Cm79hzBu3fWZ5j707tO+HszjubQl+tzSmBN2qz3Xu22NjvBlX6W3nPLvNejZz58J5HiBj7x+5/Aa6++JJRn0M8GRzay21nZ8cZG4ohFAMtPh8UIBv0RWKkkqtmU5oYcoxbpkWCppz23oGKtCisaxuFDh3Hu9bPSKOkjH/sYblf8+M7LV5EucEHWcfRgHI/ePYEJmvg0a9iYm0dybR2h/ggO3ntMSvtC7KcgO2JnSExEIhOxJ+fMZ2mTFg8CfuonjGuhNgYSNCUUHHt6q6yXSLxM5yv2+yZa9fqk8dNqMoUrs3MoUljnlCkaayR3nttMBceATj6oG9HxQ5pNgDffdAvU56jN7zNf3wkQbswv4O13r8DbtJBj5F4vIZhMITa3Dt/8KspIYQtJXE418cbQQWxODeMnR2P42dEY7GoGlq8BH0tVm3wfC82GNuuo1yrIba6jvL6OfCaNU48/jGo/mws1BDiwtS3TEqILrbJ0ch3efJE7nDAILMtj1UIxl0M2k0G5ClT8cdh9Q/C1ypiK+mCzqqVYRKFcwsixu3HwgQekm6O4uQXYOtonLYg3t7fx9vnzSLEXPA2WKO6Re91Ni7kPC6177qDiHePtWj0dGlXZChPp9C4oN1Nh/oaKZ86eP/jtP9kBEN44O4PtVNopieNyaaFSr4sOh1FGemsDnmoFQUY22RRSm2voZ3QZsLFnahjREL05siKU5ThQB0NTpWS+gGyphOH+fpTXtxCt1jA8EMfN7XVkgxbyvIwmxYyOnqFYx+baJgYnRhEI+dEqZFFaXsPRyUls2y1p+6wyyE75Gu8BN2CjaHePpf7cbbPszlW/1yHiPvjdh4R7YzL3yrWaHaFid/7aPL4bQ8THRFgKD+4EEC7PLIm1OsWIG5sJeH1sF68W1WfPvYmzb7yJuw4cwr7paRUu0reFPUVazHHTIEmdDc2hJOu3yUCpLHNCym2laVZLPFrGIlGEfD5srK8hVcii7PehStdS0X0wk6pCRX4nC8GAxjQO0sPLdDE16QEt4eaX0ubKmsl348e/iyWy207ZjKEcQoI2FBSae+COJD0Og9DLGL1Xiqc3WnVHtmb/ez+A8MbVBdyYuYzvfvubuPfEcUzt2YMGjYZoblQrOdUKqjfja5rWzKaSzVgrd7wPjLBUgR7/0xQE93l+V/2YEbfzNbnOyRxwX+a/O43jdASZYiBLHgiE5DEyCNU6NVcV0WBoeWPnANa5T8fD7lJt99rhZzD31X2WuPenbsConhgGPOj1dMCOuZduUGECJhX0dwTbbraHPz98+nH85q/s0ovh9tws/v3/+j9JVzlGh2Eq4eteZJJZtFoWwpEATpw8CDscQCAURqDRRGl+Fo30tgwIbY2DgQCi0agYzcjW0mii4vEgPjWBxx//MF7+wQvY2tjE3fedwMCRB/G9c7dw/lYCpWoF+4d9+OWfehAxD8sOPUgtbyC9ui41yIfuuRv+cFCsTJlDMgcG35cDa8pVxFpYWn/qzTAtOhnhMu/ORSj17V6RPbSfoy2dyQio4lPrnMXIUtIiTBewmiFVLuPc5WvIV0l4datDu1SwkoPWCNYY8Rh0SPct8e13zFDMTXaLTZ594gc7GIRrCwt4/Z3LsKoelOpVlFHGzNmXEU4ksKdYQSO1jW1uHnsP4NVaAwvROJrBPvyrQ1O4L9iAv1WE31MGxKmPwihbejHU2ItibROFzW3EoiHsu+cw8qEW6mUV+bBKhBQeN8J6qSKgzS6RTiM4YG0+e2iUUMznpTNmrupFMzaO8OgejA/1oZFYgFXMSP+NWqsG79AATj7yKEKRmOQMWxZBZB0+KyoOlol8EW9fOI/FzQQaUo4lsj6nRrQbGCpQ6K5OMOPcteHtyMPKX96h3Effo3ehyoJEC3/0O5/FBx96rOtsfP6HZ8X+lT0wOGeEUWvUUapWRZhYLGQFHHirJXhLeQEJ3kYTU3smEB+MIldIiVkU9S+FSkPSBV6/H8VWA9u5DMq0uM7kcCgWlzrY69ubSNkWqv6g1GpLZ0DOyCatnT3SOpu14eVsDtXtHPqDYfgGAqiwpbakQxk9anMQAQiuw8KMXyea6YgYzQGxW4TS+zuzHvj73SKjXcFFj1HSnYBb79+KeSWAd16+sevLXriqRkmpTEYE1EZwn8tl8OyzTyOdTOL+U6ekwolBAfeRKkVt0kxMD2tzUBhqX5XxquWRcl2nF0OU8o7UtuixGmThvC1UKSr2aQfHlrQIZuDiWJKLGFyDFQNA3IBID94Ok+M+CGSeejuHkZm3ZtxEBOyUr5rv5tDg/uQmMtsHvItB6L3fvSDgToCtKyBy3ZH3AwivXJzFtauX8dYrL+PB++9FMBQSAW5JqoP0Hkj1SYViQJ2XooFqqOhXGQbtmCqVQ9Wy7PdkezjGZBiEOZYxVf8Kc1/Netczg+GQBnJm3Axwk7RBywN2dVS2i+mmgqRXuZC4t5vrN3NH/t0jCjUgwoypYULc7JmbDXIDPHOmuMfZgEY3wDeHvwGB+u/O/ube58y9PPPgY/jEf95FpHh15iL+zb/7mAjPiMjDFillG/lMCa1KC2Hbxk/8zKMosDSLqYVsBs3V26jnMxr5lNhbO6JlhI7QhlRW1Wfh8AP34/4HT4va/vlnnsHAYAyHT57G7UwLz75L96kWpvu9+O9/9jR8niJaPhuVRB6r129K3m/84F4MjY/K5qgKVF0Uhmrj4HDQ2BqUF6r2meqBL5aqLGX0+0XxSlW9ZWsagWBDXoP2qKy2kAie1Dstf7lx+tD0aVdKCpNY9pgu1nH5xm2kiiWURYfQzRBIhMUozaFmlZbqdAfkH6hYsZty0n/ron3+yZd2UODX5hbw2juXJKfNz5NKrWH+6ttILc9iyrYQLDWwuZHB8QcfQvDIYXxrfgkXmjbutur42N5R7A9Z8NUKqLWqKHFDtQKwSlWkNjaQzWSFwj553wlY0QCqPlrKVtGSInltcMJ+CdWajXIRaG3MolXJolrOoS5d0tjhropcqY6tqheJkge+8CD6wiEcGgwhVNyCVctptzw7CERjOHTvvRienEC+UUSZolcryDNNxI3lRgOXZmcxu7oihltaK+yICnl/HJQuEK7HCMkdoe52wOi86bjWccBNdKYLRhG2e/EYhE5h0h+RQXioO8VAgFAyNspkoESwW0diO4nc1qaUMzLZxgqT4bAfC9euYHJkBBN7JlAoFyQ64uE1Mj4h6S6JYgn2xG2zidT6JvJM/4xNIJPdxlI2hZw/LL4hcuJT2U1rZMf3lHXcTM9VChVU81XktnMY3TeIltVCk5oYiuO0tEYAQqdnY0fZvhtAMJuUO0Jy/859Ors3t90AxW4nuQomd7JFZoPrPTjb7+1QuxdevbUrQHj74qzcn3Q2JyVrKgxsYGlxAS/+4HsYHx/Dnum9bbdFim4r9bKABB46JhAx9K5GfMw7N7R/BiPJckm6dtJHJJPYQLRvAIVyVUTYZF2lDl9KGh1xIdMGLnasY7jkdOhzTWzTJ6AXHOgk7QZw7qjfMAju8bsTQDDPkcdFC9UB0O411Xsvdrvnd7rfv/mff+89yxx/dP4GXnn5JSzNzeLMBx5UsEahrzi7djwQOA6G+q8RPEjPEPoZlAUMyOMU/1o+p+pBx4hlyIyg+Xi1SmChbIz5vMoeqH+N9o9R4ztzzcaISW3XtbxaAk3UUCzmxYVUH+vMYV0raqrlPrzdc5k/m89hAhs3UHADP3fg4t6jzH01e5UBHEz5u++ZOTt79zej26PV8q4Mwsy1S/j3/+EXpVSDiuqAJ4C+0ACKmQryiSL64MNYfwinz5yC1RfE5SvvopXaQq1cwujeaaxvrEvkr9G80+HMY6HuD+Lo6dO46+Q9KKXSuPDGqyimk9g/fRDZph+3UmVUGi0Mhnz4yAfvJbmHfK2GmBVGYm4JqUQC0eEBTByYFtUxBYKsYzU+5nIgs1GR2CYXBQjwi4cwwYCmOminTserCsKRkOgHRN8oWgQ2qSAfoJ5iovp1JggdGL1WUFu6Sk65gWyhjIbXxtkr17DJjngSjTmo0RH/ic2y069bgYhZbArfxDnRaYFqbrgBO/z3c9/YCRCu3pzHK2+dVzFMvYSZi69h5dYF+Oo5oTSbmTq8ZR/ioSjue/yDWI/G8NTNeVjpbdzta+HRE3fDhwpKzaqIBv3eEJWjSG5uIJHexpFjRxGNRyEtepjDY4OkBlMR0kACHlJu3jjifXsx+9pz8NZzqJUzqJdL0tOiUKwjU25io+XDZq4CXyAGX7OB/fEg9gRq8Ja3KUVB0xeQlEIzHMLBE0cxOD4s5Xgey498Jg/b55dGX/lmC5v5DC5cvYIUwajj6SagTcRR3Bw7AkUz4d0bljnkzCI333sjWnck1Puz+/7wzn3mdz+LR3oYhO8+97qwBjwAWB5HXwM6vL177i2wzY8VDMIXstAXAvoDLawuzGPfvgPI5ZLIlwqIxfokopeUihhHagkiGQWOfzgQQJONnjIpqbf2Dw3AGx9BrgZUijUauoIW17kS1xKjqKqId1sNr/Ry2NhIYmLfALx+lreRYSAbbrQFmkqTqhwn2tRUm9NvRPK4JkrVn+8ECroOC0cEqpuTu1W8mwxSUWrny9HKmBoTN/pzvS97Q7ibx3FP4Nf5V9QQqffr1XMzKBSKcp1ML7AdNgHCpUsXcOHc2zh5z0kpfdY1qKkzRvh1J8rUPgzaH0DAAQ2IRGSoCvpqpaopAt77Ks2pKo5PP8eRe0sdTTr3McUpLeeN34G+hnnfHePkjLvp16BjaQISU8HoGO2YYWy3pze+BM4DMn4d0zc5uAy4dtoJG3pcPEkc99fesXSzCL2PuVkj94FlDsaPEyD8zC/ueo/4y+fevoQvf+ELGBkYwL33nURdmBanGqHFNLbjlOh4HDAQJIPAKN50bJSSUBFtdlI1RsxMdoF7Gf+O91eSLM68MtfLvZqgvAOCFSzxaWqixN3HEVQ7paoMNEvFoqzdnePDZ5t7rGGOEXZqF2LDWIsATc5PXoNWYOnnIHjg/NJ29LLTOUDa6QLqpBiMq6IaK8gLO+DAGXLNLLWZI1l7jiZOU+4e6eb4m7uJFGdmLuJ/+Xf/HLbVQsjvQ3+0H33BAeTTVSzeXEGg1MIIWpgYCCE+HUeikpI+DKRj7j99GhcvXZQ6eNsR74nHZMtCKxDGmZ/8aQSGhrG+vob0yjKSSwuI2gFpfkMRojcQwNS+vRgdHdXyI08TNuWQmSIWb80jGIkivmcCdb8FVCsI2ERuLdh+RXE1NlmqA+Wi1rUSDRE5hYIh6eRIMQmrF5hrYgUDaXNa45KGksPbqzk+DpChb4jAiCL9vqCMrmlYJapWrxepYgXvzi5gZWtLqHBN27HUR0uppEzA+bpT6Yo5fNrRlqPk//43XtzBIFy5No8fvnYWtWoSS/Pnkdy8iUYpCT/q6A8NIGYNoLiVgydTwOToIPbccw/SkTisJrB48SLifUEM7xlBmr4GDQ9GgnEk1lewsrGG6EAMB44eRlVqsYm0qyhViqiVqXT3Sk8NOYqtIezdexJPfPXL2FhdQNDyYnpqCsNDY/D4/Lg2u4BNVoQEwwKcmuUCwvU8JvwtBFssySP9wGIQn+SAWXoZG4zDDrNDZEAYhmAogj2HD0m78LLHg810Cstra5idmxMBY5PVGGLwwxKxbheyXkquN93Qfdi7jqUeT/pe6tRN6f3x7/4ZHn3o8a5N7smnXxRwSSaNkT/dEdPJTWwuz6M2dxv5lg/Tdx3EnpEg7HpKOgeubaVRq+Skvz09OCgIXVxaxcTEhMxb5l7J1LFqxmbQXy0ju76CudtzOHTPKQQHBlARVoc9ObyoFfKifaDvhSi7W0288ca7WFtLolIDTn/wGGr1Egol5kxrKFXKyOZybd2EVI1wv3DakrfV6c4omwqdNohoH0S77/dq6KpfvRGVrBRXZNZ+npMbdx8u7Rch63OHo8Uos+8EEF5+85J0alTPAZ/TWbOEmZkr2E5sCINgSt80kufBwwNEu5GKU59j1atsguN46Rzu5jDhOietzcOHLKXmevXw4nfS22bDN2yE+dteIWIvZewGu+60gVuV7h5rGXPHCr6XAZDx77had+XMzRD3Rqru1+Y62w1873ZPzd/xM3z8V38fP/8eAOGfXvgRnvjSV3DiyN2YOLAPdaZPmK5j4z1xvVTXSqY0xXWUXS4lylf/Ao69AQM8yE1bZRWFqiGZ3l9lHHqFg+ZeGF2TuUaeJco6KDPtZtAMIJDXZGFsT9tsGUfJt3frEjguuwEqPt/ce7Ue704hmb/TwLNjEmcYCNGzeNRTxoy9ez9zsyLudcgzkWv8zOnH8Ju/ukuKYfbGFfzv/+FfSOvKoaF+xFhO1Qri8oWbqOebCJabiNRqmJ7ox9B4HNuFbVRqZew5tB/7Dh3E2TfeQDGXhSXRj/oGiKe814cHP/JTCA9PYn1jCxtzt4F8FnajgcMHD6J/bATekF86prEFM/EW67dJc1XSBeTTRaoHkKlU0QwE4GsVMT46IJ+xWlNfg1AoBsvnF4DCAdBylyb6+mLtdIcBAJwoXOxETDRZYqAjHficG2YGXg8FSc4KipUNkx79PMjQEl+GVKmG2cVFzC4vk0CWzngiYAQbwXQDBLPpubUKfE9z+OiCFL4Kz3/r5R0A4er1OXzvuZfw5utPwfYkEPSWYJMBaVmYmtyPqbEDsGo+rFy5htTSbfQPDuDEBx9Hi6ZEhQIuvHsOY/umYEdC6AtGEK37cPvWDLay28VO3i4AACAASURBVDj2wH2os+yJgp1iWao5ShVGQX5R5nptXlsLsOIY33McT7/wQzz77DNoVuo4evgIfv7nPoZypY6bt+elJHRsagLR/ihK+RQm+6Mob66inmOaIYEADzspC6sJQGC9OY2qpCujbSM2OIS7T51C02+LOJRsRzqXw2YiiRtzt1GoVtFgFCyGop34003J9dJz7g2yF+Gbxe5mF9wCK/6+I/pp4v/9vc/j0TMf6jqq/vHbzwtAIBMm5bb1ClZXFlHOplFZ38Rrr7+Gxx9/CCcOj0slEDey5bUt9MX7peae82pri+I5G0NDw8IklKva+c9v+RBkc9BSHqm1VWxsbWPfsZMi9i1UK9IinZ1X/T4PAmIhTJGkBx47gBdfeRuLy0kEw314/JGT8HrVXIYVDwQCjIQZWa8lk7L2uAlTXCkpB8McGMWzU0ooaQndWXakyTqIoEtHfIdjfRf3OMf9cjeAwINAq4p3wgRV+N+ZQXjxtfOaMtR9GsVyRdjGGzeugTDTZsrRqZ2XWnoREWr/Ff5bWAVJdRnPf21Bbj4n9xweEHo4aPQqrqgCIAyN7bAGzmsYxrADojrpMvNY58DaWWHC5+g876Rb3YDs/QCCdkLdCeB6QV0vE+AGDr3rqhdU9DJ17wUQeIZ++aln8N1//AYeeuBBxIYHJXsmAKFaRc3xe1BTPK0aENMkGWsFCBxrThJ93IgR9Z5IaaPcM32uE2J3eRaYw5NBpKHoOR7Srl3YCi2NdAMEszcIWHExEl3jyLRym8jptmFWsGV6bmiQKuWzko1SEGPugfnOcTWpa7Of8TEzJ9wAwQ0CzGcy12nOOgmMBWwADz14B4Bw++ZV/Mr/9q8Q7Q+LNfHExB6ktkt4+ukXEWwGEIUHEyP9ePj+k0hvriCZ3IQVDeLQvccRjIRx8a1zKKZS0pOPi5WLgx3iKlYAB+59CH3jB8Rj4MaFc9g31I/C5hr27p3E6J5JtCiEI5ioVYWaJbXHCWy3bKytbmF+YRVFdsQKBLF3oh9TE0Poj0dRb6gIJRSMQTwEZCLoZFAbZlWi6uGvzAERmS5gsgUe2H7qAzq91M2BwL/l5qv9BrhZ04uf7T1ZyeEXKpzlUpVGEzcWl3Hh+k2UWJ4nyhWvtMwVIsrZSA0q7FBZisLNotKNT47JXQHClWs38Pkv/BkyiRkEvEkEPXX4EUFfbAqjI2MYGRmD5Q2jkc/jypuviGnHqUceRy3kQ6texdbsopTiHb77qKRh8olt8bsY2zuOvolxJAsFoV3L+SJi4ajU6XtbfullbvkBb8AHrz2AkfEjePPSVXzzyadQLdYQDUTwL//lL8PyB1EolXDlyiXUPQ3c++A9yBeyCHi88DdZmVJBcfUyGoUMrAbbG9fRPzwEOxrFdnIbrVIBsCyM7pvG+IGD8ISCUmrJ8Waf8iLdGEtFvHHuLLbzeQEJbG3N++IeQzPpezc2M+7vBRD4mDsCMM9t/x51fPaTX8RjD3+469D7h289J5+TrWrJjJTyWawuL4qOw643UEquIOwtY+/4IEbGBpHLpmQD8/kjQjnn8wX4A+wO1yfzt8V0WK0JP5kyTws+glq27V5Zw3auiD2HjyCTz4Iu5nQGlMOz0UQ05IdledHgdXgsXL7O0tjrsPwRPPbIveiLBtqVG4VcHulMRpg1upgSqFHDs7GdQDKTQpZjLF0dzc7m8NuOuHE3gNDeOLsLjboOdTeb4I5WZePlf86ptQMkOAxC7/3T11AwfvG127uCked+dE6c7Hg9nOP5UgmJRBKJxKa0PpeDX4yO1HZX9AUS8Wk5olYc0EnROWicn80+YlT1KmozrYbVwKhTBWLSCZ0oszsK73YLNXuDXJ1J/bgO9M44dke07oPJ7cxoAhMDsHwuH/Lee9JhNUx3wO5unibKNQeVG7T1Ajj3fXyvFAPv/Z989e9w/tU3cebB0+xHL12ADUCoSvM82iWzVTP3Bcd3goyn6Am0oRb3cjKgktpx9l5lFrTkUftnKBgzroeGzXGDLjdTYBgT8zszxua+tOe9I7J13y9+LjFxcxgEMx5mDNWaRllvw1LwOUYT4AYAZmxV+9Dprty7Jth91djW9y6I3cB3B9g38ciZD+Pjv7ZLN8fbN67gE//nv8bw2CDGJifgD/chm2vgn558FoGGF8P9QRy79yj2jQ9i/do1bC4v467778GB+04i4A/hpaefRX5jC5bkM5k/bYplca7hRys6golDJzA2Po7zr72AI1NDKGwu03EAJx88BX8sjBppvGpV2gQzv8h9KeDzI0+DnXRONr34yAj6grYYzgSCbLlJwxHaWGp3RkZbBjG5I3Mu4GAoIFsQbVb54hRTchKZPg7mhnEACTqIGrlZ2CJq0faikmOm4t7vRzgYBOuduUvnyjWcv34Tl+eWUKZAk/0BXDlTc/PdG4IBIt0TQFsDv/CdV3bc4EtXzuFzn/8kyrl1eOpZBH024pExjA3vx8jQqNh/sma4kElL6emtmau4+/hx+AdiQq0lFlfh99nYd+CAREWz16+jUszivgfuR6newEYmK/bQ/Ngs4+EhpZu2CnoYqwdC/eiPTyGd8+GrX/s6VtZWxEr70Ycfx73H7kE+l8cbF94S46NDRw5jenoS2a01jA+EMRy20EovY+biJUCMqQBf2I+Tp+9HJBpEIZtDoRnAM8/9CD6rhV/+7z4Gf9BSo5KGBy26bQYCWE9u4/Vz57CdyUCyiEryOAeZyQ46eW6XGZJ7g+wFD+5F62YU3AtP710Tn/3UX+4ACE889YM2QCB9v7a8hFIhK9oVy9PEvnADo0Fesw81y490LomQ7UEylRfWgKYs4UgUpXJN5p10DeXGIZ0e61JpQh+RpYV1bCZTGJ0aRzTqBzNuXANBf0AiDrYw14OuBssfQDpbxuUrsyiW69h/eC+m906KnwjzYVTUs2OeuMP5fJJ6oNDYx94mloVSuYzNrU2sJZiiqErJJq2JW4yunJy1KfN1b0Jy2PQAhN7H3YeI+17wXprHdkSuAhQ7tGn3xvfeAOH5V94Rdo7MSaVaE7+KxcUlseWqs5xRNDcKEJQN6AYIImZz7HvbkapH69G5t5iIzESmBnCYtIFx9pMDyFGRm0Ops/6VnXBHp2Ys3AeOm1XQva7j5tp7GIi42MlDm9cy7+dmEMzrG1Oe3vdwM2pmf3Wr7t2H1W4Rq/lc7wkQWi188i++hKWZmzh9H7s3Qjw7aD7EFAMBggFq8t3pg0O2ulTKq/+B0zxPhOlsde54BvC+aiTeKXM0Dpgd5qfD0vD1DVFlwFPvmMje6KQm9TFNBxhA5/47017bjLMZT5k3UoWiXrLmNWXXdQCqCX5M4MPnuM2T2mPv0rTR8E+UD7s0YHODum5gKOV7eOTMR3YHCEu3r+OvP/2riA8NwObh2PSiVPXgnXeuYt/UFMbG+lCs5bG9siRNk3KJBO7/0AcxfuQIPC0f3njxZSQXV+ElQGDe0ttEsR7ARhZIVr3oH5/GRz/yOLYWZ2DX0xgKepHa2sT+I4cQG4hLLbYs0irJeh0E6hu0s52WjnGT8nu0IoF2mOygx3crFoqg/wKjKRESiQ5Cx5w9FyhE5IQQI5K65rGkGsIxT+Kg86aJl7oIRZR54MbAnhTG00GdE7XKgROC1K745Tc9KDa8uDK3iIs3b6EsHvcdQRe7pxnBsgnAzM1xi4HEDa3lwcvPvrEDILz88rfwxb/8L7Do6eC1EPAGMBKfwMToXvTHBsH3KJWLKOTSiEfD2F5bQy6ZxOjUFAoVtgluiFmM7fdjYXEBN27cwGA0gkceOoONxLaUc7LxHIcnyhp92y+bIoWABFI0B2EDqkK+hsXFGmaXlnDx+iVpwtUf6cPxQ8cQtEKo23XMLi4jEIrg6F0HcfLIJEYiLdjNHOx6DnM35zE7Mwu/P8ChxJ6De3D47iNI5mv43muXMDM7jzP3HcU/++gZWD6VJtZq2l+NwIsixXylhhu3bmHm5qyAEWET+FmN46HosTTfLJFD25q2s4W6N1/35rlbCOo+tP70k1/AYw93pxj+/slnxFqZDRxJXa8uLcBTLwHNCgZCXuyJehD11tTG2+NDIrUFSyhonwADio9owMIGY/39cTm4SHbpRtVCucSyLWB2dhGLy6vw2T5M7x3H/ukJ0eMQGBMo+yymv7Sci/oZHoqWFUQ6nUPT54U/yPpuH6plVqhwblvw2zZ8fq/0B6D/B8etJFoebTDDlBkNn0r1OrZzaVydvSHMjaiynU1ImTKFC70AQbZMt7DRBQI6G6Iz6vpC+g/FGW09FkWbvcDC3Cv1MwEuvro7g/DKW5eE7WPZablaR559QVZWNB3g+OebEjmCZx40bgbB5LX5HIIH7iUE3XyuWc/cKzTX3ekJwDHSBmxKczskYbsqwuwBmlIwnSH1qtxzrttmubvM21DQO8bSEYeaJJxJKLSTcq6cONEt90zpNyKpnM5Ym0DGHHwGYLiZNhPtmuvpZRHaAOE9NAicIn/y5b/D0q3bOH70bkkpUDBNgCBVIixjdAAc9yNNCVE4WkWpyOBGnRCNBJZRudEbyPNlH1CjJA0G1W65F5TpNZh7ps6Z7r2iI9LtAAozx03/WPMcs+9QRN+gQ69jhkUgQaF8pcqKC3V15FrUaa+W/HLmyHurTbOcUabSTirl6tLkkPs575sGQE5lBdP0YvHOzqXaNLB3fuxgepwA6NGHP7o7QFhfuo0nPvcJBIIRoTtZXiIcJrsvsAtWs4r11WX4eVBvJJBKbOC+x85g6tgx1Ft+vPrCK0isJSUCLnKDalVRqPmwtJ5HeHAKwf4BPPrIBzAYasBf30a/DRRyGRFTxdlnmxoJouG28YmzTzheBwYNBVhV0KSQroJYLIZg0EIul5eFGAoHpFzPDIqh9UUZKgIXBQL8t7ADtt3ur2AWAN9HxYwqdDTMgokSzN+KKEbsOrnxhlH32Ci3fHjl7EUsJ7ak5pyUJqMieV9Rp9MB15KDzL3AXMeWjN9uAOGFF57AV778O/DBgo0ARuPjmBydxlD/mFwP8270jCB1z66LnnpdovVUNi02s/sOHUAgHJLc/VYqiRs3b8JTLOHBex+Qltj5UlkEgqS8yUYQJHHBRWPsa8FS0JZ0NqPBUrnoxzuXrogDYjKbE/3B8btPihlWo8FW303cWlgRsDY2GMSHHjqBobgXlieHar6I1bklJFfXUSuWEfJbGJqYxkuXbmNhu4BoXwT/8//4Cxjpt9FolmEHQmhIt0LS5j7xcGj5LNFI3Li9gMvXriFXKYn7Helwdap0AIJTwWIWqhvx9y4ag9TNvXBHsOYxvs6ffvLPdzAIX//Hb6MBG9V6Cxtb6yikE2iVthG1m5iM+dAXCbYrZthuVhqLseW1R+cuGYBYNCobYalQEjGbP2A7AtuczFnO1Vw2i8XVdWwmUjh04ABGRwakxYZtUfMCFEsUl9bFnpZ/Q28SVU1zbREMOHX+bBDFqMrDFEUQfqspjF8oHKX/laSiCkVqUHyoVRoociNjMZcHyJYKePfSRWET6q5GWIzuTT+N7sikR6ToBgE9Akb3wbjbgbfz4DTlqJLVuyNAePXtC8gXKyhWaVHewsbGJjLpbXgl19vx7NeOf2rIoweHoaHpZqnUNMeNew2tfE2rZ9Mdkn/P5m+1GtMJxv2wAxDkMBeFeqdrY4cx6HasNNevY6lUvwG7nf2ikw/vHfPe8et93E2hm3FVcMfare5SU/Pe3aDFjP1Ow7FeoCC23gA+8X9/Cj//s7/k/vjtn/lqf/MPz+D6jeuY3rdHNEpkCZgeUG8KdQvtpBEoBq3K3GfKjtejqWWtKDMBnt4348CowEJ1Cqotce/D7s+t6aKd6Rvu6e4ePJ2LkXzUrlE710WtwnJ7HuAtlCt5VGtaZul3Wo97aeEvpXW8zwyOWRVjOgFrKTY9T8ju2azEqZdEDO3l2UZwLikKFsrQN70h6XG+PvcCA7Z5D4yIX0THTjEEx9cwLI9/8Cfwif/n0+3L8rScUdlcmcc3v/hJEU2RaubfFEoVodQ3N9cxONInjmF9viAWLl3F2tIyTj1CgHASNYTw8g/fQqnUxNTeQ3jn0mXkSiUcO34UiVQKK5sp+ENRxIJenLlnP+LBKqIWUZRS2LKBM2JykLvUEztlNlpNoLXIsmm3NP9inBANKpNmSE7fA16dGQg+VxYkB9M5mM0k4oTnxsvnGMMlPpfvx9+7VaZmwfFvBPHLALPdMCcu20J7UfMGsJJI47Vz76JISpJCMNPx0aFIbR9fV/NNvYuW4ICIcTeA8OKLT+Crf/1fgIYPUX8ce8b2YTA2hHgsLmiR0SHfi4uIqnfm7niPthIbOHL8boTCIXGHYkkh7+n1m9exubiC0/feryY/srhoKlIVm1GmjTjXQiF/u4bXAzbV4r8tsUa+MbeEa7cX4bFC4lA3OTmBB04cQyDUh5sLq5IGyKY3cOb+I7jvxD4ErDzq1TKCPh+q2Tzmr91CYTsDjx3F5fWsNBH66Z/5MPaNhWF5SlKx4LNDWhZKEWjTIxFgy+ODz7KxtZXCViaDhfU1zC7No8X8u5iSaLMlMQPqoQJ3IOcePwp3xYKbfTBz5rOfIoPQrUH42yd+IMK+UrWE9bUF1IvbaBQ2EQ94MBHvQyQUcrpMcN44uVEC6WpdNoG+WEzmEWl/ltOKWptg0rLE/12aR4m9t1dKPkn505SMDBuvMEJg12wgz2Zk7Qi90+yFa4TWz9Q3UHcj1yKKaz3EAsGAjC+rilg1IW3A80URMJaKBAdwegw04fXb2M6kcfP2bWxsJ3VtyQljmtLsFB+657kW6uxe4fBeAMEANjdY62zoup9den13BuGFV8+i2gByhYqIXhcXFtDkQc+SYTFXo8Jd89Y8gPgeInSjv4JDTXeqHPTA4V7FcTSMg+wbddr1anWZ8TgwXQYlupXLVoCwc/3vtLTugActlTbzcTcA9uMAhK774OoOuBtAMONs9jvzt4Yt6AYw3eLR3QAC5/fHf+2T7wkQvvbk97GyvISBwX6nA2NVAkFhCoTdNLoO9TTgIU/dWa2m3WMNSDCnm2n/zLJfHUvVmnRYHg0a3WZ2chaJyZ/eI+MXYl5TrfZ3pnUIGphSNF9dAQfnBFkEec0a8vmsOHGyko4HPtecLiFdg9TLSKDDtcp3azRFi8S0NYXI8T6aDrB9gCX7PffzYrGsvXY4v+p1WdNyr9qcimpZTGUHm5cxPaztrhnM0mzNiw899hP4jV/bxUkxsbaIp7/8GRHgkcrY3EpijSY6WfrHTyIc9sMOBRGCD7ffvSK+7/ecPo3pk8eQq9aRyFTx5jtXcfj4g2IkNLe4jOmpSaH9mQMl3VnJJnHq7r2YHA5hMOqFt1lTNbuMji5GYQpI89sdcyFuktQM8CYTPSmyJ2WjIkOzeNygoBcNSvNdpyyE3zV/SCCg9c9u8WA3A6FD7E5BSG7L+R0biPC9vIEQqk0vcpUG3r16HXOra2j4vNoRTmrSdeLRj0HQogM03BOKkO5OAOHlHz6Jr3zpd8Dk3HD/OMaHxjHUHxe0zwnFUlC691G0V6ETX8sj9shsDU0qn3ltGRPn2hmNXr0yg/6+OEadTphslMJrDYejkjbiZmmxjbGwL0QdLPnwoeFhy+kgstkaLl+dQzJbQnxoGOfOvo2RWAQPPvQYKvDj+tw85m5fx+RoDD/94dOYHKLFLRXGFenhEPDYuHT2EpZXNpFt2fjZX/wFRMJAAFn4SbkEImKgxEVC/QeXS7nSQCQSk82bnhTrW0k0bR+uL83j9uK8gAphfWROdTdkcrMCZtx7N9ZelzJ3Ho/P/ex//Qs83gMQvvy159H0VFGp57GyOINqdh12JYPBiB8Tw+OSTuFcVd8N0xvCI1UfLGvspzixRrdK48TW1Lp6p4zOMGFMAVg2D7qs3PNAMCz6G44FxXdBYR28KLORjYcNZ0La4IZCKYugSl+TbBo/DzcHScdxFrFRWZ3NzoLCJGQyOTEX4p7HFAM3RuoTOJ/ZhZBuj0srq5i5dk0iPHYHFCWACJR3uvu1x/t9AMKu4aUL5Lkf7713l9/YHSB87+W3UK7SPrmBbL6AlcUF9toUjYd6fhhHPQoRnVy10NdqSq0pBgYqWr3gjizVmEfbdEu0SkEzIz8fA4kOLS5rSEpIO2LE7sPEMA0amXfAgf6NmiV1onbztwa4uuezmedy3520m5tFM6/dDrra/jVkCtUdshcImM/kBnG9jIL783Wlg7int1rCIPzCP/sXu95iXtrXvvmcAOJGi2OvlQpanqidTfUeaGRM4KBNsniGaHUBAYNpB81/G2GpeuZQf6AW1+YwdltJMg0tXgbSh6faBuWy/uW07lTttBkEpmmcq5F75Agj3YGljIkEtrr+OV/4ObkWeUAziBEYIKhEPVCExWHwKgraBkJ+G+Mjwxga6MfU6AiGBwfFlIn7MYE/U2Y8pyW4l8/axNDgAMKhkIiNyeAII0FBZ6WKXD6H8fFxTS9aFhJbCaxvbuLm/CI+8NBj+I//8Tc6QMcwCIm1JXzva3+meahWCwtLi8gVCxgcHETIDiIcCsMbpA9BDZuzC7hx8RIOHb0L+47fhTJr0+0oXjt3FYHYKJZWNrG4vCbOiocPH0E0OoDl5VWxnR2M+XHq5F3YN2IhaLF9tMQu4pJI6C3RvEDwTp2oDKjkXxwjI7NxNpVZCIWVwuVA83nmMOcCEQ99qj4dq8teVoApCXkNRnkeWmhqWkEmilO+xJ+VtVDhngAEboLM20kERTaBmo0majQKyhTx6rnz0qiKSlzRMjvIlBNFuwnqe3Spi2USAa98/60dGoQfvfhNfPkvfw994T6MD04gHutHiEJL0kiRfilty+Ry0nWsWq7A9noRsP3SaIuHkr6fRqhiWdrgxCoISIqEI/L5mBeTOlpOXKe3u/SvkMmvJj7Su57HhGxWlmy8SytJrK4nEYnGkUykML+8JoZI5Xod4WAAYyMDGIl58fDJKWmLXHE2WYKlxbllXJ25jrtPnMDI+DhCIS+CVgNBv42mzyayQcAfkMOKzFa9RqGZRuEVjndD+31sZdK4eG0GBYrOnIi7vYHJJt9O5XWZ/bh3K4P63Rud+dlspp/7gy/i8Q92Mwhf/JtnAW8Nie1lJNdmUUuvI9Yq4+DEBALhqPQB0ANfI3YeNMz5r61vYv/+/aJwZrVINBLRjYlAwqve/7IxA5JeoICR/yqXCwiFIxp50LbbqZ7g/aNoS0CA5JVVV0MhIieBjAcFxMyde8lQKLtGcWulToqWN5hAwo9SiZstmxpBtAlkmBhlMOcpzEapJCmQG7O3ML+0oC3RpWOoEuluQyX3YdHtXLF72WIXaG5vwB3au/eEMXqBq2/tDhCeev4N1OqsMGlia3NDvA98PLDZT0FywFojr90BlVEwKQZejbHkJUOgVQoOCHX0BoYlUL8Emihp+aFGvKZ3gl65SV8Y4Nk56PUnk37oPvC7u5beCUS5gYXZX3oPbcNCuF/fPe/lMHEInt60W+/7ugGGee/d0hGOu9P7AoSvfON5FEsFx2eCqR8epuorwdJrzdcrOFDhJz1HagImOJ7cyzsARq2rpcTRsWLm3xk9BzVWBNn6uQnANLoWM6S6Bp9GiyHiUycUNw2uZBxd7KOAeSeN7QZOBmCoX4Pu+wrWNM0spmgCChrwOOCMmiKyjiPxKA5N78HRI0cxODAgQcT66qpsCBSSc8/gQub65bq1/QFlIrlOLa9oyVj6z5Q535dpY9vPgKIu+4x09WTKXXxpmlhPJDCx9zB+7pf+7W4AYRnf/eqfCn25tLQMr+1FOMpctIVosA9+K4Sapy5URy2ZwpsvvojJPZNSQ19oetHwBbGeKuL7L76GQ3edRGIrhY3kFo4cO4Z77nlA2ti+8MLz8LbqeOzRhzAaLiNqVRCiBbCqe7QbGoGC0+qZFyvRiCA1rTzQulcPMtmUozewMDAwIDlb3nA+pqVKmlKQ0RR0pq2g3ZsPH5coysmlkjmQXg3O4c0JQ2W3LIQm5O8FQFBQ2WxKuRTjJuKEYCgqdfCkMksND966OIP51RU0uAnz/htFqXwcMV9wkKkjyJKySBWkvP48y7JcHakAvP7yM/jKn/8+RgaGMEgTqwjd91hyGUR8cATrFI7mchgejIvqNxCwRbzGQ8PkMDm26iJGJF0Xi2WiTLeQhYcQNyka6TB/ZSIPjpuyLF40602UKgV4LdrI+lGrk/4P4srMHN6+eB25XBGRaAT7p/dhanIKqe1tFNLrePTUJAYG4mJUQ7ZDKFrZRJvCDPH+0iWT90xSR3T3IjALhJDL56VBijBRlQqKBTo4UoDql/vDMsgrszewtLWJqqThGk4THaW0hQh3Gt5ozq37y71JGkbJgEH3Zvu5T38RH/rgR7r++M+/8i3UmyUsLc1gY34Go2Evhi0fDk5NocmSWElXMWIvw/brHN3Y2FLRqG1LmSfTDAR08l5CbSp1r+BWGS/ZXEREpgpc/p/MAKN6+haIMr0JGR/Jz9q6GQj4Zd5SIkr9HBxf6bNBir3F9EhNzITEDVgalQHZXF7mF0EkGT0B3LYtguBSuSQNzcgmsJfKG2fPosgWyATEBNcdc+y2SEriAONd0ckydB7f5Z64D7I7HYxM8fG1Z97eHSB84wdvygZIkfPy4jyqpTw8jPaaNVRZLseDQZz1tOSRaSAeGCxvVuc9plpJxdYkmCGIJq0rz+f1OmWQCi64R7KkUoGBKaVTkaICNE15sqKhky/viBl3GupI8OOMVy+wcI+JmxnQOasaCs4V45TnBghuAGB+L1oS8bHRfdMtou4cvt1gxryOe510/awD+74A4a//6bk2QKA4WhohiZCPlmFqdqRpBNpcK6vCHgiNuvrfSMrB2cs1uNO/FbGi06OBtD0/Cz1e3CaePHx5zfTIsblfuHA2TAAAIABJREFUM9XXUCaPBn798X4sLy0jmU0569PROzl7ioyf7jLtL13HTD0QjDbg82qPItEEOD8EfBZCliUR/+TYGEYHB1GrlHDPyePwVgqIBaQDkQQB1AYy0C5Xaoj2xQSMyvkkzQN9KFfooArEIkzRKhAxpf5kCqVLZSAge3M6nRbQJUJ9n1f2iHK9ipGJ/Th55md3AoT15Tl89bO/hUw6I/ndeHxAoshIJIoA/fOFhmwhl03DV6/jwmuvYzgcwcmHziBJR0KpCvBha7uI+dUsgpFhLG5uIpPLYt++Q7jnxL24ce0Gbt26iQceuA9jkYBQydFwifpveFpUW9qysJpNpYJ4QPNAFotUyfU35OBjFYNpbEJKKtYXQyQclk2MI0QUqP0WTNkQmQm7rUswtJw5MDkanFA8HHmj282fJBqgeSN7OFBtToGj1uAWuMmIGrYpZWr8Ln2t6ajXBFa2t/HCm2+hzM1EmA9t9kMNhZlE7TykE95KvSw8ePOFCzsAwkvffxLffuLP0R+OYmKE9FBADtdY/wACoahs4kSK5WJB3iscCsgBSYDABcLPbsw+TH8KUqhEj/xylypJ7o1KelvBEv/r6Db0MzIHKOi8xUVE4SgPEBpF+WQOZRLbGIj1CQChCU8isYqTJ/fDT98JD/UtCrx4wPD1wzQMcrICxviGGyOFlfCxqoT0Jz+nLSJVlrWmswUUSlVhFRgh07vh/LUZYRPckaqgfuPS17Y63XncuCPdXubApKU+/+m/woce6QYIf/LXT6FUy2B54QKy89cx5Gng2OFDGBwekms0Y9upkrGQSCQwOBCXeczIh0xde/OnxWyjKikHggOxZGUekv1GymVZEyqSrcn4qR4G8FNY6rwe35evyTnNvzH1+AYUG/pZ/EpYsSC+ILZa23I81cVDfp/J5mSwtNGZR6jJaoXrVNNWwUhI/PKTqSS2kgnM3LqFPBuCOXSpVAyZjdGYvzjMSJcmgRa/zm0xNLnOCV0zhto1d07Wn8kTA7j21vyuGOKbz7yJWquBfLmAxcXbUsEBUs3NhjQ+Y9MxggWvUMR6KOaLrPxRgzAawlFxzoODf0cmpcYgQUyx1HaZa0yAmyNi0yoSbSfPe9yxW9dcs6RiZM/QL0bKmqbYBSDI/DUSBocNcw7d3gs281Yf7jquZN2Y3zN2cke65nWklJSfy3mujL+zB2g/AbUE5v007KcuXA6cUzUkwY6G3PIZGOA1mvjtX/8UfuG/vVOKoYXP/+23wd4KYmMt1tZVBQDSzVG9bUSP4KSEuAfx3OH9E1ZX0jDqN6GAj6wy9QqapjCBAel9egXopGpJ47SBvn7YXh/8Nh14AwKCo+EIBvr7BXgzr8/9MJHbQLFSkQBq9vZtJFNpuXZWuAQDfjl3yLjxuoXh4Keo1eV84uND8X5EQgFZ+6PDw5gaGUWEVWl+uqmWJCXIv6UA39eswu/VIEyExvBiYyuJXL4gQXGRpcllMqvcwC1hhKPRGEIBlv2XlTlkukvNFvQzhMM6J+s1FMtlAQYsj+Y+EfDbiI/uxcF7ProTICzP38SXPvMbCLLzGymHWgMBf1AU7UF/UNTkqfQ2CoUsYn4/bpy/iMp2Gh/40GNoRIOIxcLiUOYLRLG0msLNuQ0Mjk1j5sZtJJMZTO89KNHf5OSYNLY4cWAaYW8OaCWkLbC3pQK4bCHjeGtX5cMbXYHQpbWaAAR3xMt2upwcTGeoxgAoV8oYGhqUaI1fZmN2I0z+XheupiXMc8yiMkyCuDLWOd21kUdfXwQV8QVoCJAiOBCnRSLbmlKB7NlQqDfEG+HK3IJY4hrSQJt56OI1B4LJMTPy4I08+9Ll7sUH4JXnv4Vn//EvJMqcHJ8UtsQXCKBvYEC6UFbKNZTKBQeiMIdFvYNaxXLS8bPzK08DHCc3yaidi5/jwgnJL2EMpORJo3jzWd3UIaPRYrEgkYbwIdRVOO/cKJewdGsO2a2k9BPwB4LIFnI4cvIY+kYHZKzJUlFQxwiaB5zcA7pUSnUJo1XOP5aTtYTFou8EN1OOnVjmSilfGU34kC/VBJCIUx439loFb194F3l2fHPyrwYgaJmqFiO5v8y1uQ8ed57ZDRw+/2mmGLoBwl998e+xkVnBysoMqokVROtVfOD+B+EPh+B3GnWZTnQmBZZOpzA8NCQ5V84xLnito4cAXaZhRJzZbAqIs6Rk0ZL7Z2hK0oVeanU8kJRFvcooSHPcXA/8j+/H8kltctYJ29Xzna6CJRSEgvQiFAxLeSvnCgEYdQj0J+EmxC8yPAQn/AzlUhnhQEROLTFbatZED8TPQUfRF988i82tbSlX42RUvwrHp8IRNnJNm/shQMHR6XQOMad3CenQOwAEuU9Mp7RauHJ2ofe8lH9//Tuvod6si3ZjbW0ZoMBQHPUaMk9QK4K2PFE/DW3IKFSRTOfh8UdQYb67qSI36W/BSJNpHsmTs0ySQEn1I6RvuJFXmCdnvbBT9sjPINGaXJjj2iql17reVITHUtaOGNs8Jn8izpbdl2bmsHix/BhfZr/ppAXUPM58tR9nMEZTOMcHhY9rIKQ+DQyOZI5aFLNq2tXktw28czMZeskKON4PIHz2q99weuzUxdyNfRaq0muBEbTOAPWkUM0H/VnI2vAw1M/P32tQyHQQmSxhh3joCkMtMnC5tnhfFFPjo7IG6Q/DiJuVBkHbL14fpiJH2NYqD3+WeXswONSHrcSW7Fs8uNfX18W0LN4Xw8TIoDCgBBm8Z9QFMG04MjCIPjsoFQtkEygolkoY7mHCbtTF/6eQL8i1kbmN98e1+kL2QwJ/DYI2thIyHuyanKEXDFsPBMNisZ7O5GQ+9feFdU3yfGsp810qFOWzpLMZhCMREabzGvr6+1WE3myhry+KwbH9uOv+n2zPi3YVw8riLXz1T39blNHiSghaEccQCkUQCLL3dQPpbEoOoYjPh+zaOhauXsP4nknsv+coQrEIalxEFjcLC0urW1jdKAC+GLYSWSwvb0jO9PBdh3HmzEMItOpIrl1HwM4gZBHR07OA0bsHA0N9smmSPjEHm6lkYB23qTCQSLfZFGqd9Aknrd9vy+Emm6qwCI462KlHlsUq/detdjTGBcD3M9EeB9QABx5MhUIZlk9V41TEUrjHiUfAw+oAPr/TglQPTVK26XIN78zcxM2lFYk42kvZFZGbzVBoRxl3D955+eoOgPD2j57Fd5/4AmKRCAb6BlGu1tA3NIhwX58cjpwAkqtzKiskbeOIpoTi4mFQ5HOUhuP1sbyOIIzjzN91UjDM17IsR3US/I+fr/04/ewr9KvQ+gKW50nlCXO8c3PIJ1NolNT3vMRSydEhHD55DC0/zap4vntk8fI+SqTvbPI65izxY9pAIwLxr/domR/fjyiZ85OLkCVr9B8o5thutS69GmgVfPH6NSwlt6QMTzdYNVQyAEF+6ToszT3gdRpKdTeAwMc//4d/tSPF8H/8D/8a0bEIUsVNNItpjEaiuPfEvYLqgwLMOqVtPAw43ky1aOZLNzZ+GWaHC7fldOnjxiqlSw2H2q4SIDm94Ck8FcvkhggIGUpwk+FnJ/gy94sHOoG1iWp6hZhFbsJMH4HCx6Ckbwh6OW5k2ZnG4NziGuM84efk5sZcrZYL082U9di8ZFaSeFCDH8trq5JmW1hdQ7FWc2zIaa2h4i4CUbMmDN0ucWePGI/3xByQbopdUy5NaeDGcbr8zuKuR+VXvvMj2Zjz2TQ211e40UienZRsgRtwvYDhsAdR24N8Ji2AKZkpAHZEKmOoI2JKkR+6QXdVspvOQckxl/SBI27j82q8PpnT+jdK22sHUWHiRFhM5kdTfnwSO0calsd0/tM6eEanXAde0XjINRuNB1mfdmfTO6MENzgwzzI9HNwAQTQvZFCheWkzz8z6EB2Yt6PN4mcxgFdAthOVc+2awMLsH/zFb/36p/Cx92AQPvOlf5Ax4AHaopWyVJJUlDmiz4HDEGjliPoYyO8cPQJTDwYoEMgwrSQNnsg+sFooEMZwnFT+OPr6wgISuf7EmZF+OR6vAAEyc1r9prqEaDSiewjPmxrTm3mZ52QEuD/198ckWPI1SmKsR+DO4Fq0QJznvEeM2JmSFq2AdozkfScLQC2BKc/nveZ784BnYzHqgsyeRH0GH+NeyECJAJcRMV+X/V148FNPVq0W5ByVdVPVNcrPQIDCE4aMAf+G7bSD4ZCaANbrsl8MTx7EsdO7pBhWFm7hr/7443phTVWyE6WwPSo35EK5iGKFask09gwPo7C5hZvnL8qG/cCjZzC5fxoVburiNMzKACCZqeH5H74Dry+EmRtzCEf7EYnF8KEPfwhH9h1Aq5rCysJZ+FGC1fAKBRIf6BP7BS4cyVE7JY4cGJ1sKjzkgWyifINmmRLRjZ1RsKJNyQn6vCJU4fMYBblzb2azdIuDjLCRN4ALJZlIw7aDYmLD3JjJgVGkJ73DPZxI2t9BNgEpk2GU4UWuCnz7+ReRqVRQJrp1ytAMZW++K12pMda7P5rZARDOv/ECnv/mlwUgVCs1AW0jk5OCYumIl89kZDIyMCHVzA2FRhqkxiSf6KRRTDmQW/Qpi9zRPKjuQ/tZWE6+3FCi8hwR2bEunGY+NmzeF26yXh9S6xsoLC2jUSrp5svmXf1RHLzvBJqkpy0Kg6grYN6LPpq6ARohJF+cC0Pz3foepuMaFyvLL1mjz9VKtX2TJXn+IMqFslQ55AoFYbHS+QJeO/8uyuLqSYOljrreBE0EHRrS6Zc5eGQzd1ku66MOXQpgtxTDr/zCz6ASaqApAXUDe4fHsW/6IHx2GNp7slMWZUCv1icreDVlb0ZUK90CtdeP0oPcHKXiRlkgE/0TFPD6uMB5iJcKBeSyOfT397c1C1zD+rq6low+h2vJaG58tooZuTkVixWJVvj5GJxSA0IQrH/XkEhHALHk5dUafXs7iamJMXEXJYBnqoJrsVipIhCNolRtiKnVpWvXkMkVBPBx3pPqVDDUuRFm7BXD6e9ljZgGdS4K3gAEbjYcx5l3lnY9Jb/41EvwNhrIJpJIJzbgaRDU+LC5nRRdVcyu48jEIAKoYDudRr7SRJl+H+UaMuWSVCOR4ua8J6KR8jnHeI2RKdvFEwzw4OCcVoGb7gNStdSCCIonJyYQ6YtqDlyqmViVo+xNvpAT/QZNqsx1i89LiOXGXly7fg0bW1tiCMa0njaPY1mqqt57o3azx+32ex3T3koJp4qCwjn2R3EYBDfrJCkFB7gaTYw5vOQ706cuZtT93vy878cg/OFf/r34BBAgSBUDRYVSnq66Gd3buTepsyt/ZiTMTVftrlUELLoF7rWsfqjXMDY0jMP7D2BqZAzZZFruRTpD5rkhZxw/u2GluT8x8tbDXbuG8rPLmmQq1B9AhQJdYYBoNgbE4zERvQacrsCk680alb4n1PhUythOpeSAjkT7xOlU15uK5LluhUkmI2f7ESejyDOkXBGWgdcUsCyMjY3Inuu1bCltTKa25XswHBFAwfuVzyeEQRemmJ+9VpfX5FkQCYWlgoL7L3VdNtMp7OtSoNdRC+N7j+DUY/+8vY7aDMLq4m186Y9/C/H4oOYVA1zsdF6z5Saw1IkAgVHpcH8/6pkszr78CprVGo7edxLThw+LpzsFeczRWTxIEMT8UhLvXLiKXL6KQCQupUakfg/uOYj7ju1H0E4jt7WAiB1AX7SPQZeo7mkJa/Lm7ohHqWed4VwjErn6VMjl9WhpJKN82UzbvdIJGDoNLvgcs4BMpy6tCe9QmjwglUolEAnA8tnSeU96CTr5R2JtTe84XSFF/yJwUQ77ljeAXKWFq3OLeOvKFZQoYpF6ZnMJHVWrLCxHbPXuLgzCO689hxe+87fqQCh0vI2xsXHpCZHLbIuwhdupYUdk8xEFa0lyxkawpo2sdNL6g+oBQRAk1RVO/wih6JyumGasOgBNFzD7s3OiSetsBh7lBlZuLaC2nUC5UhIb5PDQEIanp2BFIvDQvMmJojjWnJSmPCwYDMiC5gbMCNbLxlGOcxg3XuYAtdpILUiJuPk9GInBCqiIjikLghL+zMhhZWsb52euIVcuSSMwVmh2TGAcxMB7IZFPp1xJ1P+OUNBcu6Yq1eXyc3/0xR0ahN/9pZ/CViOP+nBYruPUoWMYHBwTNo2UNRepim2VyjMlToT1emirwIr3jLlIiYq8WtLLzyxUtpimKPHJGmcdIG09TFrfJvDlfSMopIA2n9c8pkMBRyL0N2m2mTJTIcHDX4pxpC2xF9n/r70zC7b8qs77OvN87ti3J3Wr1ZqQ1JKQREAyCWDwUAYTcBxwHpypkspL4qq85cl+iCtVTmEj5BI2GBkUiIMcgbGNDRQJBRJoQkJCaGiVEOq5+87DmeeT+n1r73MP0m1V3t2Xom6r+wz///7vvYZvfetbtYbWkGCMzZ0tFFRK4/UEByoBpR35YXYGewGnxmeQPVHHLEAGVp2TDgnsASW2tLKcc8srdnp5WXMgtna2RXBkr2nNA/nEHYGDPHGE7V4BgtoGQWA0Jntkr1wmQHjgq9+xzNjs0pkztnb+rB05eMC6vZatbqzaONWzpWrOrj+8YL123br9sdUHBDdeB6cTp9bp2FYdcRvg4VBXD1A2OxV0hm4dEge4P+WiC19VSmV1qNCx22q09Kw0MGgSdHoniYjSqXRQxXNUSYTOMCOG76SM1+51pINxaW3F1jY3NFqc4NcRF++QiJ+tMuGU/r/WM0THnu179xif7ZC9nw+hqOyEYCNd3tqvB1sJsCDeB0FrIIyL6Cb+lKv/Rec6zangc3//dz9hH/7gZYSSxmP7o889ZMlkGHhFwNrrANloXgasfPYLlyMyHr6GLhQCg4C+4ZvYB7RrozFwYG7Gbjh6xI5cddgGnZ71O10b9l1BVPtuMBBPh0CbM0jQuLW1beOuExbVmYPDbTV0z5zb2UpV0D/tlfksJQOmC6fl70q5XYK17JuQW1aFlv6xWmybzbYt7tsvdBEHTYkLxMKRUZ/JQKcQSADnR8kZXU02stlKxSrlopCVLsq3/YHVGnWdEQKEdMbVWHvdus3MgiwPrYxomiWELOIrCeJ53lwX/EA6rDI5RhZQbuzZ4sHjdvcv/dbeAcIX//i/KUvG2eqNqn0QGHQUAZGlUMcgKJjNFuypRx+3tZWLds977rGlwwdlDOhDpwbP9lOkCwoyRoAnYc+98DMrLR6xUxfXZFQyo7bdfHzeqrmezRQzqqPkSzOWS42s025MYBeuI9bpyT526i1rtvsir+H8gDeZZpdJEth49snB83GZgcnLCOnA6p6Oet0JeDblfbSusOhkx6Fl0nmVMPjMpf2Mo4Z8RD8pvAMctWcCIBNRhAKCWT9BkARUnrLNRse+9YPHbI2BSEqKAvQ91eaoJ4IjHI7s2UdeehOC8Mxj/8e+/63/HZj8Pvlx374lHUygU5MEbICeg1qk309PaxSjeTJBDBJRLoxeoStkoAxVCsI7Kp+EqDqWF2I5R5kD2U+K2jiASt+GrZ5tXlqzxhYZbMsSmYwdPHLYSguzNkqxJ1ySAGNDMABT2AlHXrfmWvh8iYZo0JDrNgh2lkypB29OFPSWJNVFR2aZHAFF2ra2dxyupfzRH9rAUvba6bP23MmXrBeQG3c6sXvEv8e90C6hGYP+RgQhZlG8/08++eYA4b9+/D02GBTsJKMai1n7jaM32lwpY9u5oaX6AK8J1arhETRpRWXWRyEv9VCMHa2iXHuplJehEUuCgV8BQYs1YEc6hppS6v3g7FEQMlp5gSUzPmtkilgWEYeC1BxdQY7fcB8IIKvVqgwtZgzDBJfFg4cAH6P0lkp6wKCWP8961tbWLF9Co8Jn0seAA+RBZy84K4Ibng2CS9XqjFUrs4JzjfM2Gtva9rZdXFuz0+fO2srmlo+41vMIbcChkylsIEd7gqZAfGqjASS4sZ18dm8Owue+8m0FmRdOnbJRs2HZ0cD2zZbs5Zd/bMXZrF177Cor59LS5kDOuzM0a9Sbls+lxL1q9/u2XauLFJvO56yQzVu1ULBcBig5Ja0XGTobWamYsaRGO6cUFDUaiPiMJDoXR85vrK9rrSPJj/st5DMqEUlTAk7UiOyxI9h43Of+zHiGiKHVW3UFdN9/4gnbafeEyIxGdGPB4vVZMDigBA5GujKUM7wsSrDnhiKqJiYEweMhQDtkJ0SIHVkuk7LFuartX9hnxVzBFubmNf+DoV6QkSkdnb14SWPi+31HHsQVk06Ml1QF4cO7Gvbt93/vE/brH3qLAOHPH7bU2Pldnf7Yhr2OFQdNK6cgYLfswvK6pYplG6XyNmaYHvwYuqmkMzCyZL9nM4WCHbvqsB1a2mcLM2XzqdtM3+1IXRC+VoJEMjW2Urks+wc6USzkJ41lrWZXgTKt1bEEJNuOJkGG9xVs+dJFm5upBvI5bcg7dmBx3rJZzgrjANJekhv5LB94KUpqda6yemaDwdhqzYaSGxBQlfSGYyuUSuK24fCblAezaSsV8uJlEIQ36juWRPo+hV/1uREEN6B63IvRXl4sebAXOHbaVyRtBRJMU0AC/4g1AKUSCNAZ2My+q+0ffeBjewUIp+xL9/+BoEXq0rE9gkWi9gHcXCgWLce4Y8iCMCrPXbCfvvaK3X7nbWLTkyVSf0S8gQXpKDJNWKtWt9nynL108nWrdcd2/G0nrL5es40Lp63XXLY7bz1m+5ZmbQyElQIK6erAkQUBAalWHck846TtEI2PU7oxImHkekv5rOUzxL5O+kGQgo+jni0I26VztGixdjYNn/Ea158Pyo6KnOk+8MCB1xZLDHgik/PecBu7HHOEfnGeMpRpE2ua8L7XN+uMEvadJ35oZ9bXhLJM1+emyx3KGobjPTkIP3n6EQUIPA+cAUgPAUKz3rRet2XjPgbIxaScrOlwn+qbGt3s7XWxZKNODRvKUaCbQM2aUd1EmdSnCBD5iSUJ/6zAKKcsgKwxRCJIdrWmbaxt2vpGzZpWFHGO2uHhq5bswMFFy+aBnR2hEOGKMcZYGrgiaQysEz3jd0aOgmraOEqA+qACBnBLaYOIn02NOIjrkSfF7sUQ0BJEkNAfJ+wHTz9llzY2bRCcjtTKAmKg4UASCtoNELzRdJd7EU+Koxdmn7n38/aed/88SfF3f+/f2+gnm/ZEYmjNGw/Yrx88ZjcmupYodi0xgEk81hoThHHgxYyGW5EEqfH/c/8qpxA8mWdrseU07lnfv3TN+PhZ9iDrQDmQ5+rnxNtGJ2WIIBmey2dVEuB1/Buljvjn0RhdBIRZOHsQ0ejcwfHQxujBB9fD/mI/qMTX68pox8B6ukzC+YhnQue/1bLtrVqYM+Gon5wI2SuJBG21vb4tb3hWjGPk2kAxsT3LK6saiDYKdXE1kwlxCKx8pLiHlBguEyB8+RtyJmfPn7XEoGu5fsfSzbplhj11n7zt5htkc6gHYyXylaoccoesTg47Y3kSI2XePh2smM14C/F4aBlpVnSVqACRp1I8TyBpjDZKd/Tiu7EGceE5sJYEXT6AyGe+1FDJZKz9GAVWv0cFfnou3vqKxDP8oHwx721u3YG1cCJpAuae7TRr1uz0bAO57DawMd/tQQLPEwdEUEf7HJkvwQ4Bq0bUh06nffv3WzadsKXFOdu/tGAZFPu6A1u5tKJMnutjeF6nP1KQl8yAeo0sk0hZuVKSOA8zSXiuXLNGmY/N/uN/+i/23vf96p5lIPb4Jz//sKVGHRuN+84vajdtKWdWTvWs0W5Yuz+2ziBpg3HSumptppTZFp+kWirZ/rlZO37ksBUzGSuxvrmUdBJ4Fk4AhlvhyRLjACgT8RxA7UD4SAIJmHe2myIYsg81wExEaoZ99a3IvHqNdYb95M3GZOrA/vgfOvCYwkqggNKh6DEQqEnAcnklnWl1oLktxYbVxWnIWobBaQS7SqTwbfgZ+G8JqxQLGk1AoFXf2bZyddaHv4Xx5KVS0XXh4JBAYA/TIbEFkdDIvVbKJW9xb9QUiLLHKOliO0FeFw9dZ3e//+NvDhCWz5+xL3/2kwoQokPGkLNQhVLB0jknQdEfmqf0wAVo4ZFidQEVrpCMiNGxInmME/bKyyftledfsNvedpOi8lqnZ4eOHrdea2Cba8t2YKlst564xpLpofqUATqBd2IrFzcYgxVlQAxGQign6aQM2lwyiaHmD9AqF0VLyKQwphAVIS5K5nqqPoaRc8PrjpQDAvTCdeM0FSRxMEO2ymfQXoN9IFqjrpNMumhMrCPzOZoZTtYMa5yBV52BjdN5e+SZZ+3k+XOaShhbmSTwEuA7OXalTkl79vtvJim+8PSj9t2//1+CwHAmJ07cpiiRCYqMFwbKdiEdr1FPBwggBDEQiVC2asDDvq1vrIuzgNMFfoLPwA9RLO+J3R2Tz1V2M3JBnm7XnnriaSsVK9ZqDe3Fn56yZWYUkUGNu3bXHTfZL7zzdj9UY58sp5IGgRxkSup7er5cr6t6iQsQGN7SeYD9HST6nCQK9Ou9/kCZ7AHex8GTqlijKcNECREju9Vu2/eefNJ2mmQmPtAEx8KenQ4QeCbc7/Tc9umA8q0ChN/5nX9hpdWxfb/esrNHj1o2k7dfOX7Q3l1OW3FQt1GfgTKe2VMeoFNAPfVJh/WA4MUSH/SEhLGnowZFRLumUTSCLQ9GB+JkoCxJ8MH+ZYBZRBDcuDH1NK8AXyp1Q+cXxBKUAhVzQhjlK7JdeEds9FarbV0OMw5Fc08wcLt7qRVafR3ZcEIWwQBQ+y6XwMtoGcp0lCZGA+N9Qre6feu0Ua1z3XlKFslcVq2x3gnowmg4nNOrG1LmlOPRECkQIHfYzgMYXj5A+NLXrTXq29nlcxqgVbWRVfodu3quahtbl2xuYd6WN1atVK7YKOME2n5vaIW0E5PFcYKBHpCmCBnzHNqthobvtlssAAAgAElEQVS28We2rScafUvpGY9tZ6chFEKoGwFvKiGjz/OM6yk+ioislIaaUsbrEMhlMlars39wQGkrl4viLLgGAC3gTHStCnUaDzqSHWZ/EWoSOKsFFvhdQj/SXHVHOU5YLjG0aqVsGxsbE14RiQTPsVgqSu2UbNPLC5yLlJ05dcZKBE9qc+a8Ib2d1W+uFQSShAynRQs2MD8HkaCH93zwI79tt779XZcPEL7wVUsOm+7UgfhbNbvpwLyVkl3bbjdpvLaRpSXq1YTE3vEJpAcP7LMjh6+yfDqltsBhtyNo3cZ8L5kzSE5H/DrP+1jnHe1l2vh57gwDFFE3kbTaTl06Aexbymo4WDqCQIAySVfHlFBTryfnDT+I0h5/zmUJ6gALRgqs0qmsBwkM2ZN+CAOWoi6JI3KaLlxgzbFfEA5BprNKmCRcRfAO4trvyM+x52gdJ/hmP8AvwoZubKwKsamWZ7S/uD+CApI/nivn3zvxqtbstFViEPpNez+dUP2BLR681t753t98c4CwcuGsPfz5+93JBHIQh50jmM5mrNNvKcNkzDA1azE8keLFqEu+MqlNAruShSb6J1o9//oZe+bxx2z//IIgHsSEWmyofMEWFufs2uOHbGEeOIR2QorZKOT558YsJDo7ovnuOGmtbl9KcjDZGadbyJjmDzDQQf3IU1oImtEgMo/rG8SfGGFhnLhOh06dIBTbw6LRi0xdk4Ig2ZlHlH0ED6bUzwhqpDUw6ApCHnRpDUroml88ddYef/7HEk4KXeFBPAkSjNdQVa0aJ+yZx95MUnzk239tj3zjIW3gpaX9trR0QEgEHIntjTUZKTJLfqJ+gaaIMWVuyoBPB0lsTAVRqbREk7wbISNREB+MEmenx/kXTiyEY8Jntuot+/rffss2tuo2Suas1h1ZG/jPRrZYzdmv/fJ77PD+qhUylAnoy805Uhx0ogQkBya0YJfYkgrZM0yXA0HA+bHemj0Qap1sfvqGxRgOEqMcRBAENBaoOaY4JPTHnzptTz73vIYjUc3zoWBOYPRMNNRxyZhj/7fKrgE1CYOI2Cd/+qk9Sgwf/qh1rG0vJwd2Kr1oWwwny4/tQ7ms3bEvYeWiE0lZN9TNgJ8l8gLPpdmxcZIyC7LJFOz7MjRqXAjaHDFQi0GatDjEM2iF0lvS5ucXwmyFXclegqgY8NOGiGPyTpFphjo1Y0cWvJUYNrfPuuAZkOl4pwItva5VEfcQpYnIE5puoyU4l8NMeQal5woEHYipcIT4vn7XWwX5TnVz8MJkwqozVfklPpP3gCSu1ps2SCQlCPb62XPWpE7M2XXYTff+8o/21kH407/4uvTvpaA47FolNbR95ayGadmwrcyJALIqLYqBnb9wxg4sHbB8lvILAjdB+h2nEDqCcNiqdQuaHigIpE0MASXOJfVjshLKkKAHmr8yHlqrWde+whZFMpuXy8YK9ECFNrfgZvSUXRK49rsQoNEKQT+fQT3+39TTy6WsHCOy9eg0eDCDI03aULMKXI+i3mwpiSOLFcfDfCgd6430bpv6/Ai9l7zuQ/0l6gYjkcIJjqX8mS+jujpWyWRMYMsSwgeiZt7vCh3ivdlsytJCU7y7odMb2q999F/ZibffffkA4cGv2bhXM/pGGs22pUcdu+v4IZFHa/2etVoElSMNlcOmM9K5wHh0SmAI5bFWnZbbQtCcNPwKNBFAHQsKVHDcw1HX8ln4U6Ah8JPYRwnb2q77LBvOJzwphhYO+gpK8Ql0M/RaDY1n7oHY4k9AhCCgdzrqgOh06KgjUIDbBUrjCCdIDvdEa7YUD5MZrRnoDW3zsQQE4RDkBzl+iIriJPUZ996yYi4jtKTZIDhwn0UwXaoU5TtB9VwwaqjEkfMTxdgc+U5K/AwtBOxeV9MxR94BRTfUYGgLB66xd7xnV6tiQlJcuXDOHv7C/ZPsk02LsxNJkcEY/bYYnNU8USya8BnVdjFCMCMZuVxQBu+0DBa/3ibK69ilc2fsB488ai1qOtReLOUkrHTS7rrzhN11+62WHPUsSU1a0pGeySujC3A5G58aWpuef5INIvtUwgppmKVJH1BkbtT4E7WYCXogJqrL80aHvtueg1F0lIKfqI0QM+5oTP1Q+ahoRynY/K4qtytlyVRFoueeAgRYvb3u2NpDs1fOX7BHn3lGJYZIuIs1yElLnbf62o8ef+VNHISnHv2Wfftr/0Mw7Rx9tdVZZWutJnAsz6Ag4gwHB+hQQUGQio4Ew4h0xMwyK8a5ay+41nnMHp0JzD8Q9WJ8MXDalHzmGPQE+C5h6+tbdv48pLOGrW9s2Ua7a9VKye555512YP+sIm7Kq1wXRtolTgnYPB3jcONI/BpxirR0+bhT76hw6WBvYyU4dcib1zLGGv4bQU0Manl+LhrVdlIk0Gwybc+ffNWeePGkteX8vBQlZ8f/p/rBE9Qop1rtWJO4F/jOT9/7gP2TX/h5qeVPv/9fWnd01k5Vd6xy851WWLjBztVWrNxct8LWtl139dWWZT8QOGNg1co1Vnsm2ReTUyvlioKC0QCGNMiNd91EkmHcI2xhMhnnl7i4F7/ZCwRgGPfpa56gICmcVl/nlKBhN+jFMPS8jU6oNtk8ezutzBMkLHJryKRikMLexbDFPRzPjrdqeonG0SemSqIH73B5FLrh7yEnNhkyQ6mBQVUaWe2qbvzE7hqgfwSxUNSkFLG6tW2vvHZKBEJQSgw2jv1yAcK9X/orG9Tqdu7lk5bpNmxhLm+Hj8xbsZyx9KhrP33tZzazsN8WFvZZt9OwC6d/Ztdee4ONEnk5ApwQmiqcM0oEKrF0cBx81ow7IzhHtHgOx8ER8Axps0NAjj2LyBQBu7eLRmSU+9TzSmY0AwOEECPOnmy2XM5a6A5OfzCwarlkm2urIkFyz7k857dnlRz1bucSkeWzryBZEuhxFuiRZ4PxHaw9yiWcE0hudRxgBX0XHy9eTKWtWKKE4YRUY1It3JTB2NpMEeTZMiolB/JB2awllIQ1cv0ViMRNOep83oXNas2efeif/Vu77c53XzZA+BSKpK0NSybgSXUsPejYPTcetVG3Zm11F4wNpWsSH8SMyiXXyaGjgIBHMyRIBJOUHIo2Sg60v9otjBslO/hPBEV9q+SzOgd0p6CQwLwgEk+mxKalOshexQ856kIZFO2XnPY2HBPP6rudtqTg8XfYSloMSSTh0FGOTyUyKh3sNBu2vrZpxXLV5hcWFRDMzi1IzK7Vqmk4GgkPo9kRMMLOz87Pi+eCXaeswH0lCOLg3IGKB8Et0AzsK89Z4kxwnRot2QbOLLaCPaaAkMBW6FR20i6ruUdB/2L+wDG78317Igjn7KEH7gsGydv1dmvYnv2xSTUpCj12LpzpUrmcdOK5CCBKkc3CFKmm+js7greefe4n9uQPn7Ee6VoqbQszRZsp5ez22262a45eZYyBIb/DU1HPIqohGlW2InXDMHkqmddWIHqH2FMqZqliaqFZMDY0iyVSY1BFVNY78ME0sY1NxpdsXiMgPEPlnsVWnZJAjdlSHMsNVMy1sCG5Xxj38C3E5FUneUIBDg6XLIPD0R8l7KcXV+zRZ561Ji2Cl+nBV61qOLLnnnx1zwDh7/7yc9o4Bw8yBKukB761uaP+Vs0XJ3rOZqxc9OmBlEEm3IFQLogQsQcGE+ma4AQdgpfxEkM3BFXUqUKbqdjutCKJXS/KjeBGeueBZrtpd2AYB8oQ6dTY8qyROg+At13QyhnquyqNMXDjdwzklLlmMxNDxXoLhVD1z9sXGTusxDOIIk3XwjV8JRBmu6OE/fCFl+0nr/7MBgzSCWaKYMCZ2pGsvUsgjcY7WjSaTD4DgvAGDsJ//6Vftu3Ghi0Panb1bbfZ7e94h3VHXctlk9beqtu506dVt2buQnmmqsCa8gf6GqwLGQiZGwQk9i4dBxA5eUbeput7X226QTQK443RchnmkZ0/f84WFvc5e1ks86GeIQiRgiUUEINeB0FtLG1594DzK3AudC4RJAi1oN2MEcia+AZcSbbMBFSvWZNlRfIw1zeNTmhWCeQs9bIjBFOXIXU0xPkmBDawugnwOOO81iW2Uxo45UG5Px9IWUCg1Ncl1NUb2Jnzl2xjc8sa3YYg7ctxEO578GHrNJq2s3LJti+esa2Lp+3OW661o1fts2I1Z+cvXpRcOYgkrHgCawRkKAuAcOTzlAt6ysg5E/A5WFMCGc5bHPjmg3gg8SJh7cQ47jlyOuAmQGjU82QqqVoVaT8dWLNJvz92xcXM+HvWA4+rLh/WP4M88NAG/H1A8RjvTm/+zExZvAElTWhSKMDKBPJbwtY3NnVNjH7HJkHEw35wgltt71JTPTqdUbCq5ELDjZg4SjadV6A0MnQ8mLI40uA0niOtm+oCU6DnbYk8P3QCpFegGRVD+6cf/w92022XLzHc9z+/Zr1m3dI2sBGZeL9td992ve1srlmt2bI5UDLQmIAqYg/wmpDCM9j4btuW5qqWzRCMgnQmVSIDoSJwI7nAjsN/yiAEp8TRJP1OV4DYGWF8MgkS50pqhIELcP78eVuYqyhAwI4ibkYG73tfl+IKwGF2EGUC6V0AxqRzOk9jZI0JONNpCdl1WnCBBpqjI8XHngvwcV5oP15aBHlH6Kmn3QFxlCAsW8hor2Lj+D59ppIn9o0j8Owv/AQaMQT8lK5S+Yz1Qvt/TLp5vtwDJP8DR260u96/RxfD8oWz9tDn7gsIgg98cOnKkVqXohQumwq4hYw71jHZ0HHIUTRkLCoRGAN2gKGApB75wWP28iuvisH5j991hx09vGSzM1VBJ+kgmYkMKtGNJsdNtdpJMpYWPToD4Dq0myKDVCtFV4njQEha2Pu93ZA5RCl1w47XgOPCcb38WRwDlj4GEyHziU4hlg18EIfXzcm2BKdluRZvudSkPCJOCcKBYPQFH5HZjRIZe315VTwEyg0xQIjOOzoimNhcz14BAl0MX/3i/SInHjlyRIacjXXp4rJgTgyDnEIqZSWGV2nWvcPN0XnSjRHXRU5agZT34QMjSiscCgDEwSJZAyQdJ6LJOWgYkCqZKkdwn9KBAM5US9vQRnlCE1QlgWYJEtjUzMmAfVu3YrEQWPdem/b/exY1TcZjTVi7cqUcmj6CljglMNaQrCuT1maPAcV0kKARpiBOgVMxgCw3MPvR8y/Yi6dPm/QYg2Ss7x2XLCYjVVdD4CTEbBzDDbP8s3sECP/5w++ycd9sZ7OmOudNJ26yYzcet2Qevga6PEM7+/opW1xYtAXkl5MJXff6xrbt7Gy7uAp67HNz2mNE9D7YaXfEL+eK4IjX8Xnsa80mMVMd9uLFi2rDrTAKNuwFnBcZObVHIUuCQF1eNX62ulLipMlQWlAHAwQrSnUhAJsOluJ6x88QNygIOHFexMWhRj2ljT8pE0aIPuN93OwTV8jsinBGDZuf+Hl8Fpleg1JaDSNKcAX/L2OJVE5n77mXnreLK8v2yo/3Fkq698GvqNOnub1p6V7T6sunbT6ftOuOHrTFA/O2srYqAna3zxTGlFUqMwpKlRkGvgfiSvTfkyRhoHuQHYOyJAYWR4mx3tquWSbrQ7XicB63NUDa7DlHFCAwSua6BxLRtm53oPIsNkXJEQz2dkttazMzVWnEKIGhLRZIOux7Shv8GTQWxgFdXBDkKJ2CYEhJJCBDsN69PdzPPWUF0B1KIKibkphRky+WKhMhokjEVDsg+2HgUH8TvYwhLbeUMyCWtmxuZlZ7MaKNPkPC6+N0PvzqR/+N3XjinZdFEP7koa9bfWvTCpAHx12zzo7dcsNVIueJ5yBELS2nB2mTAHnM3J5x3zLYuWHf5quUnh0x3qq1rNd3BEzdOkNKKAXXz0Exs+MIDUkh/CUCY0qAiNBRdmHP4ne8+43AD4SP7iGXR+cMRjEyEONcxlRKxOeRCKncLD9AkJiydJ6JyC7HTDCFbBFnGYJgrd6U/Lp4UiAAzabGXmMb0IKghFLKkQz7zCLUPVXuQv+lVlOAwPepJBTKBQSClXI1DLqjUy9nQ8ouQf49nk9H+/risCwdvs7u+sXLBAh/+cAfB0Kgk2BiiQGyCkQ2FjrWNVm8CFtE5UEPCnxIif6dTcgUPi6IqKje1IhYtN2vvfqQzVQKCj5w7OR0w773grOpiZ75c6zVcRj5PuY/coMcSto/gJo4dOoVFeHQuxAirB6vicg7chBUdw/tPh4he42QzcN7Y8tWZHvzGiAlZXlhPsGkK0KMlNCWLnEUVz7jUMIngLWeyOTt9NqGfeeJpwyOOvWu6eDg/ydAeOK737Cvful+u+aa4yoxAFlCaIJQM1MpB2IYcHtKdSqMhiQ/gyAOQVyElTlkmmoGE1nZYSASjUx1UGVGOe6jN9EGFwk1NGi6/rlnQLvlCwSkhqCRCjA0KpdnEQR2pVMxSrkDUCnB/10lHTocAqIQIfXofKRxrnVnkFEY30zQyR4DGhM07oGQCJBEzphn4N0e2W9Twdza6qamT+7ff8j+9nuP2umVFSfSRRnboO5IWSiWGOI16Dflp9HYPnPvA/beNyAIv/WxOyzTGdvsMG+lEbXpnh25/pgdv+V6G8HfQZlvfd0qpYo02OUQ4R902hrNzafjeNTKFCaZ8n1xLabPFXuRTNJ70r27A6IZhoz6cl7EMh9s48Fswur12uQcqd4dnHQMyjK52PEiLCagCNTdM+qwUF1W8ss+2EzoUfg7rWHQXaDeqWsSGrCLfPCMcfIxeBAhk86FNvCvq8g5d4mhZ86jwfbEGn2EtOkjp47bhhxNIJvJiX9S7zTt1OlT9nd/8+iezuePHvyKZsi0tjcsN2rbQsFsMZ+w2aKPx97aqekegdznF/cpQSGYhqzHvtWIeWRvNRvGywM+i8TboznvZJI800mZRmS/klqIvX0XRJG1IrA21aFxHvTjKxgD8Aztz66V7wPNNG2V4TvpjByawm+1cbvmwLAPj6UuWBxnTnmRPQSqKNkuDanLeQeDJnzCxndbyRmmnEHA4kPX/DlT4+cz2kDqdIGFrhRUJLsqfbE+bYmVESBsb2+o3AGPhvtkD/BsQYPiLB3a6n7lI//aTtxxuRKD2QMPf9O2V1esSJfTsGmHFou2OJ+35ZULVqrMC1mZm6WVkI6cgQI5gpPesGO4TngYtJ+q3JAx29yGhOftpLyHfSjUF7+SHNlAYnD+33A0GAZH9NegBT+ohnL/rrZIOda74WLpm2AoasrgFyhv8MNzjaVQiZglIFGPrVgpWbYIN6+vchGEwwGS5vWG/AUD3C4tryhg47xcdeSQpKbhVoCWU9LgWczOVMLwMLQievIxBITsVSlgMo691XY7QDeI2lYh22ati2SxUKn8hIDuCrtdIT77Dl1rd71vjzZHEIQv/9mnwgGL2ZzrwrN7OSRRRyC2ysVAgOgschamswbKANwAzp3IHLWmCHMCjbFAHB6Ptr3+TAmD9sXYXsfnRsKiMv6Eq1LBbkeIBJiGbFnoQMbH17qB3M3ARKTEoUxB+9FJ+gP0DSQHGKD46Pz4bxitbDoCBJdy9k4GLtrpPk5no70EF8ahBNLSaGX6ztM52+z07Bvfe9R2kCAOAcJ0JiZYGARhMNwTQXj8u39vf/Fnf2g33XSLVSr036ZkPCDegCBAUsFxeyeEs7rZ5HFIDGxcDHgMTLRO0rhP2NbmtjY1ESY1KyDNVJqgwY1gRB2oU2EE+W7XcY+CU37POEbqgdTeaAcQmYeZ7iJ6JS09duZ2DCy99Qgul9f1+NFExzCyW5G+Wrpd4teH/5Ddu+EjC+cwxOw6Ok05Qdoc1WpGPbBpa6vrlklmLZ8tWi9btCef+7G9dua02h/RphhyvTIyPlMz3vfk91sECB/52M1WTRVsKTNnR2f2Wz6ZtTPnz9goMbJb33GnIHH6nSszFaFvPnGxI51/1bQxPmIqJxWUiX8RVNFiF4OycjpkxMljaBldAQ4pYjgxKGo1I+BW0OQtcfEZiaya8G4E1l+fJUJrRsqlOHXmKxDk0WIFPE1WHdsOYyAQf0eOUCzpcO65Bq4LaB2nE1FGvi+eSa43dmSAIBDg0omh9t2UExTj0DQPIpznQLsxKpk7jaam2tE2BoGSv5OqYSppn7rvwT0DhE/8+cNWr21aa2fDysmezefHdnguZ6W0o24E2sDMxVJZNegySneaC4IIlRvOrM+LVwAuexISkbiH5RiCrcO5YzejngTOQ2sh1Ao4F7l2nDa1bwJE1iTrpRYpgnqJgWcpdGYwtNXVVQUBBAuUpNCjodSAJDcGHzvYbNRdkltrjGosg+5ck4aWNrXYZXOysRJJV/mWQIsJtSkFC0IwNNjOpYxBLrY21/RaMepVbwcZ7YmUR9kEXoWkgcOauQCat7NiK9EUoLvtg7/57+zm2+/Z8xnx+gce+qY119dsfylvieaGHT08Y7lszy6uXrT5fYf0nOao28PnSICIFdRt0e01LQfBVkRBCIEDS2V9umGhSEnA/Rk/E34L2igEWhIm88BJOgQjRoJvyKFiB6OQHvuds4s9i58VUWf2J/uArgpPVBzex57i99IJBM+wtWMhHo1mTYOh4M0hkd8fjCR0xvrX602VfDgDi/vmVV5ABK9MRwh+OGk2Pw/S6KqmLp3momr4G/yZykXJpK2vrSto40wzxIl9kC7m1CWh9knanRGSI2GT/0EH4ajd/YG9hJLOnbYvfvoTE211J495Pz0TtgrZghaMD2Xjc3Fyyun0hPUf0YNJhkIWA2mFSAkoLMjK8megEzYqD4wbIFMkuhOJTQzo3b79GAEqe0kCy3U0HEhcCPUvBm0Bc23uCKt7CSEgB3ABRKDy+rUi26AoyOfGv+ffvIY7TU4DAXF0wmMMYGDfULT8CcgLLXni8LrwWBieQw9s2hrjpP3N//2OrTFQI7ZWBoh98p1vESA8+cg37Qv3/4GduOXtNjMzpwAEJyCNfNEJYGb4fWj2uGSX3VHEyZjTAYLuD7buwA8wtS+MTyZDucQ5AlGEg6CIMg7/8yzSswQZfk+3JzB/RAJ8rbye7xm41w7jvcqghvkX3mnhB5g9py4RkYP8edEjDMJDFiVRoMnAK/WVhCDNlecKkkL1iYci0kq33R0N+429BoMYePqlU6ft6RdfsgbSudh/lFVHlEV+PkCICAVsZxCEN3IQfuODV1upULXFmf124/Eb7fD8QVu/cMFePXnS5lEHhTdRzNqR646rI0gZcbcnZTyJWKG2KG0JiEYtQafAjLEEoyAq9KiLCzLyzDU+A2cuYwzphY4cCuqk9NTj8B1VmN7TMbjX+YYBDRSqkoWPDpRiJ/yGhGf78UzHz4lnK34Oe4XgUmeHMlSKslRO7xMCF66fe8f48exBDepBkIbnyrlmFK2CjHZ7IouuAVUGs5xgMi1Uo9aGhAysOhCJmv3yh/d+fu8A4bMPWaO+be2dDcuNG7a/krLDc1krpr1NErSArJn714Q78WSck6Ssk6BA58ptC/uV9eF9OFQFeIEvwv0hKEeQwH4jIItrRcAspFQliYJKVmSrPGcGBrEHhELIoTuCQ7kBop1k36W735SgE8grpYfOwKf5OT/My4rUtQk2MHW0GhJEra6vCxnhPglAi7TsiUEP0uQBLCRygu98oShbINVMSizin+REcN1BP6NLKdWl8XvdpmWz3iVGeU4OMcy5wd5wr9gXgtcPfOi37W2X5SCYPfjwt+3iq6/a9fsWrLN1wY4dnbVMtmurW+t24PAxcR/gR5AJe8szgSGE347mR1gYoz1EmyKfFQmW/cKzhGAYB5hxVuhbIDNXS+tgJPSNZFVIUqen/RcF5SJqPjc/L+fqc3gcOYtlcOmKDOEF4SchT3rrPNeKfRz1GUMw1nhx1pXvzlN6abUlJBa5IMr0Mzn5V0oM7DkSPyY0tlt1zXZBtVOqkVGbBiRXXAeStC6RmTq5eF5cB+UOLxGnbaw2Xlda9TZPF1TCTlLmW7rqenvXL/7zyTmadDHgaNZXLunFu8zkYPiDXoBDKx55Uv+O2SkPwH/iKFL/HR2qHIXsvzsBGarwewJRTwn8RKeidwR53olwfnBI068JH+vQchgUEq/Nr8vV8yKsPm14J4scrnFKdDfcktcSoyMMKODE+en9geO2e5+hfU6ZU5jLbmZbtZo2bfiwiaJiXDvPjs1OMOjnDT8+aOaiaoTT5ZPd9Zk8Al1OJJlO6yxMt3n6dbvmhM8sD+RS14ea3DuvcUcfJIiDHKv/jffIT//ovyYE17D6AZaOAUNc87gXfOv4p00/tzjLXtMi1f0xvTfDt4YgxLOhKEYDK9wJf3HEbXRw+m5dthMVga2ROnX9wjim9g2LH66N1xy7+hoZqemf1159PhD0vKtFmSDZZwsibd6zYDI64PMJIdJhej9ruwGWAr2guBaWcrKFuRcFYFIb3CVTxrKB1Ps4L5OBE04mja+N2gJxT4RjMSnROFrh3JDJntw9Pm/6TmWVwUjxWwHp1Dvj7A4NLQp7wJ+17x0FSqFUxXdrrLvakh0JnEYp4iLodUOIzE68UgeEgnmzo1cff9O54S8urQCBu3QyyCUEWuB+AjI1vEqDxO9bg6+m2qF5P457d8/u8nriMKXddQ03RxgQpg96a+5ucBZ11iXQFfahyze7vLTznFyua/ccOe9Jr1OJwSV4Y8eW25ggGqVM321SPLeRZyRkLo53D6ReLzMx8MtH2/slOWrrM1zC/gmy1iAt6j4KAZRUWFUi9BB/F/HiWfp+5PlwfdXZRXVRXO5nfasm2F/N1HS0KVnxTiYcrc6GCPC6OTfJuuiQzIUzrM+fmCUvXzrM7mR0ESrDRuTeY9Y/2aNTsy2mz1bcj/H6o83ZNZe+7tEf7u4Pt7P+pfGEhMRJQYa3rymxDM8RewyCFH1lRGz17ANvy1fAP1NF+pDUyrZNnU0lVPHcBfsu2fm7xY4AAABOSURBVPeQRMZ5EbyfyZClCghFOHHjaWt92Ud35R+urMCVFbiyAldW4MoKXFmBf0grMEEQ/iHd9JV7vbICV1bgygpcWYErK3BlBd56Bf4fjk1nAcLaNjgAAAAASUVORK5CYII=;fontSize=14;fontStyle=1" vertex="1" parent="1">
          <mxGeometry x="30" y="210" width="520" height="62" as="geometry" />
        </mxCell>
        <mxCell id="LbmgVifA0ND9j1pK7FNZ-9" value="输入未裁剪视频" style="text;html=1;strokeColor=none;fillColor=none;align=center;verticalAlign=middle;whiteSpace=wrap;rounded=0;fontSize=14;fontStyle=1" vertex="1" parent="1">
          <mxGeometry x="200" y="130" width="130" height="20" as="geometry" />
        </mxCell>
        <mxCell id="LbmgVifA0ND9j1pK7FNZ-10" style="edgeStyle=orthogonalEdgeStyle;rounded=0;orthogonalLoop=1;jettySize=auto;html=1;exitX=0.5;exitY=1;exitDx=0;exitDy=0;fontSize=14;fontStyle=1" edge="1" parent="1" source="LbmgVifA0ND9j1pK7FNZ-9" target="LbmgVifA0ND9j1pK7FNZ-9">
          <mxGeometry relative="1" as="geometry" />
        </mxCell>
        <mxCell id="LbmgVifA0ND9j1pK7FNZ-15" style="edgeStyle=orthogonalEdgeStyle;rounded=0;orthogonalLoop=1;jettySize=auto;html=1;fontSize=14;fontStyle=1" edge="1" parent="1" source="LbmgVifA0ND9j1pK7FNZ-11">
          <mxGeometry relative="1" as="geometry">
            <mxPoint x="491" y="210" as="targetPoint" />
          </mxGeometry>
        </mxCell>
        <mxCell id="LbmgVifA0ND9j1pK7FNZ-11" value="背景" style="shape=cube;whiteSpace=wrap;html=1;boundedLbl=1;backgroundOutline=1;darkOpacity=0.05;darkOpacity2=0.1;size=10;fillColor=#CFF0FF;fontSize=14;fontStyle=1" vertex="1" parent="1">
          <mxGeometry x="442" y="160" width="98" height="30" as="geometry" />
        </mxCell>
        <mxCell id="LbmgVifA0ND9j1pK7FNZ-25" style="edgeStyle=elbowEdgeStyle;rounded=0;orthogonalLoop=1;jettySize=auto;html=1;fontSize=14;fontStyle=1" edge="1" parent="1" source="LbmgVifA0ND9j1pK7FNZ-12" target="LbmgVifA0ND9j1pK7FNZ-5">
          <mxGeometry relative="1" as="geometry" />
        </mxCell>
        <mxCell id="LbmgVifA0ND9j1pK7FNZ-12" value="悬崖跳水" style="shape=cube;whiteSpace=wrap;html=1;boundedLbl=1;backgroundOutline=1;darkOpacity=0.05;darkOpacity2=0.1;size=10;fillColor=#99CCFF;fontSize=14;fontStyle=1" vertex="1" parent="1">
          <mxGeometry x="139" y="160" width="310" height="30" as="geometry" />
        </mxCell>
        <mxCell id="LbmgVifA0ND9j1pK7FNZ-21" style="edgeStyle=elbowEdgeStyle;rounded=0;orthogonalLoop=1;jettySize=auto;html=1;exitX=0;exitY=0;exitDx=0;exitDy=10;exitPerimeter=0;fontSize=14;fontStyle=1" edge="1" parent="1" source="LbmgVifA0ND9j1pK7FNZ-13">
          <mxGeometry relative="1" as="geometry">
            <mxPoint x="140" y="345" as="targetPoint" />
            <Array as="points">
              <mxPoint x="20" y="300" />
            </Array>
          </mxGeometry>
        </mxCell>
        <mxCell id="LbmgVifA0ND9j1pK7FNZ-22" style="edgeStyle=elbowEdgeStyle;rounded=0;orthogonalLoop=1;jettySize=auto;html=1;fontSize=14;fontStyle=1" edge="1" parent="1" source="LbmgVifA0ND9j1pK7FNZ-13" target="LbmgVifA0ND9j1pK7FNZ-5">
          <mxGeometry relative="1" as="geometry" />
        </mxCell>
        <mxCell id="LbmgVifA0ND9j1pK7FNZ-13" value="背景" style="shape=cube;whiteSpace=wrap;html=1;boundedLbl=1;backgroundOutline=1;darkOpacity=0.05;darkOpacity2=0.1;size=10;fillColor=#CFF0FF;fontSize=14;fontStyle=1" vertex="1" parent="1">
          <mxGeometry x="29" y="160" width="116" height="30" as="geometry" />
        </mxCell>
        <mxCell id="LbmgVifA0ND9j1pK7FNZ-18" value="16帧" style="shape=cube;whiteSpace=wrap;html=1;boundedLbl=1;backgroundOutline=1;darkOpacity=0.05;darkOpacity2=0.1;fillColor=#99CCFF;size=10;fontSize=14;fontStyle=1" vertex="1" parent="1">
          <mxGeometry x="160" y="280" width="70" height="30" as="geometry" />
        </mxCell>
        <mxCell id="LbmgVifA0ND9j1pK7FNZ-19" value="32帧" style="shape=cube;whiteSpace=wrap;html=1;boundedLbl=1;backgroundOutline=1;darkOpacity=0.05;darkOpacity2=0.1;fillColor=#99CCFF;size=10;fontSize=14;fontStyle=1" vertex="1" parent="1">
          <mxGeometry x="160" y="320" width="140" height="30" as="geometry" />
        </mxCell>
        <mxCell id="LbmgVifA0ND9j1pK7FNZ-20" value="64帧" style="shape=cube;whiteSpace=wrap;html=1;boundedLbl=1;backgroundOutline=1;darkOpacity=0.05;darkOpacity2=0.1;fillColor=#99CCFF;size=10;fontSize=14;fontStyle=1" vertex="1" parent="1">
          <mxGeometry x="160" y="360" width="210" height="30" as="geometry" />
        </mxCell>
        <mxCell id="LbmgVifA0ND9j1pK7FNZ-26" value="生成多尺度的片段" style="text;html=1;strokeColor=none;fillColor=none;align=center;verticalAlign=middle;whiteSpace=wrap;rounded=0;fontSize=14;fontStyle=1" vertex="1" parent="1">
          <mxGeometry x="180" y="420" width="130" height="20" as="geometry" />
        </mxCell>
        <mxCell id="LbmgVifA0ND9j1pK7FNZ-29" value="" style="shape=singleArrow;direction=east;whiteSpace=wrap;html=1;fillColor=#99CCFF;arrowWidth=0.3;arrowSize=0.45;fontSize=14;fontStyle=1" vertex="1" parent="1">
          <mxGeometry x="574" y="231" width="20" height="20" as="geometry" />
        </mxCell>
        <mxCell id="LbmgVifA0ND9j1pK7FNZ-31" value="" style="shape=singleArrow;direction=west;whiteSpace=wrap;html=1;fillColor=#99CCFF;arrowWidth=0.3;arrowSize=0.45;fontSize=14;fontStyle=1" vertex="1" parent="1">
          <mxGeometry x="574" y="520" width="20" height="20" as="geometry" />
        </mxCell>
        <mxCell id="LbmgVifA0ND9j1pK7FNZ-33" value="&lt;font style=&quot;font-size: 14px;&quot;&gt;&lt;span style=&quot;font-size: 14px;&quot;&gt;···&lt;/span&gt;&lt;/font&gt;" style="text;html=1;strokeColor=none;fillColor=none;align=center;verticalAlign=middle;whiteSpace=wrap;rounded=0;shadow=0;dashed=1;fontSize=14;fontStyle=1" vertex="1" parent="1">
          <mxGeometry x="230" y="400" width="40" height="20" as="geometry" />
        </mxCell>
        <mxCell id="LbmgVifA0ND9j1pK7FNZ-34" value="生成片段" style="text;html=1;strokeColor=none;fillColor=none;align=center;verticalAlign=middle;whiteSpace=wrap;rounded=0;shadow=0;dashed=1;fontSize=14;fontStyle=1" vertex="1" parent="1">
          <mxGeometry x="40" y="310" width="60" height="20" as="geometry" />
        </mxCell>
        <mxCell id="LbmgVifA0ND9j1pK7FNZ-35" value="" style="rounded=1;whiteSpace=wrap;html=1;shadow=0;fillColor=#F1F5BD;fontSize=14;fontStyle=1" vertex="1" parent="1">
          <mxGeometry x="610" y="131" width="470" height="180" as="geometry" />
        </mxCell>
        <mxCell id="LbmgVifA0ND9j1pK7FNZ-38" value="" style="rounded=1;whiteSpace=wrap;html=1;shadow=0;fillColor=#F1F5BD;fontSize=14;fontStyle=1" vertex="1" parent="1">
          <mxGeometry x="610" y="325" width="470" height="180" as="geometry" />
        </mxCell>
        <mxCell id="LbmgVifA0ND9j1pK7FNZ-39" value="" style="rounded=1;whiteSpace=wrap;html=1;shadow=0;fillColor=#F1F5BD;fontSize=14;fontStyle=1" vertex="1" parent="1">
          <mxGeometry x="614" y="518" width="470" height="180" as="geometry" />
        </mxCell>
        <mxCell id="LbmgVifA0ND9j1pK7FNZ-52" style="edgeStyle=elbowEdgeStyle;rounded=0;orthogonalLoop=1;jettySize=auto;html=1;fontSize=14;fontStyle=1" edge="1" parent="1" source="LbmgVifA0ND9j1pK7FNZ-40">
          <mxGeometry relative="1" as="geometry">
            <mxPoint x="728" y="196" as="targetPoint" />
          </mxGeometry>
        </mxCell>
        <mxCell id="LbmgVifA0ND9j1pK7FNZ-40" value="" style="shape=cube;whiteSpace=wrap;html=1;boundedLbl=1;backgroundOutline=1;darkOpacity=0.05;darkOpacity2=0.1;fillColor=#99CCFF;size=10;fontSize=14;fontStyle=1" vertex="1" parent="1">
          <mxGeometry x="635" y="181" width="70" height="30" as="geometry" />
        </mxCell>
        <mxCell id="LbmgVifA0ND9j1pK7FNZ-41" value="片段" style="text;html=1;strokeColor=none;fillColor=none;align=center;verticalAlign=middle;whiteSpace=wrap;rounded=0;shadow=0;dashed=1;fontSize=14;fontStyle=1" vertex="1" parent="1">
          <mxGeometry x="650" y="251" width="40" height="20" as="geometry" />
        </mxCell>
        <mxCell id="LbmgVifA0ND9j1pK7FNZ-54" style="edgeStyle=elbowEdgeStyle;rounded=0;orthogonalLoop=1;jettySize=auto;html=1;fontSize=14;fontStyle=1" edge="1" parent="1" source="LbmgVifA0ND9j1pK7FNZ-42">
          <mxGeometry relative="1" as="geometry">
            <mxPoint x="850" y="195" as="targetPoint" />
            <Array as="points">
              <mxPoint x="840" y="195" />
            </Array>
          </mxGeometry>
        </mxCell>
        <mxCell id="LbmgVifA0ND9j1pK7FNZ-42" value="" style="shape=cube;whiteSpace=wrap;html=1;boundedLbl=1;backgroundOutline=1;darkOpacity=0.05;darkOpacity2=0.1;shadow=0;fillColor=#D6FFFE;fontSize=14;fontStyle=1" vertex="1" parent="1">
          <mxGeometry x="740" y="160" width="70" height="70" as="geometry" />
        </mxCell>
        <mxCell id="LbmgVifA0ND9j1pK7FNZ-43" value="多级CNN神经网络" style="text;html=1;strokeColor=none;fillColor=none;align=center;verticalAlign=middle;whiteSpace=wrap;rounded=0;shadow=0;fontSize=14;fontStyle=1" vertex="1" parent="1">
          <mxGeometry x="718.5" y="251" width="113" height="20" as="geometry" />
        </mxCell>
        <mxCell id="LbmgVifA0ND9j1pK7FNZ-62" style="edgeStyle=elbowEdgeStyle;rounded=0;orthogonalLoop=1;jettySize=auto;html=1;entryX=0.5;entryY=1;entryDx=0;entryDy=0;fontColor=#FF0000;fontSize=14;fontStyle=1" edge="1" parent="1" source="LbmgVifA0ND9j1pK7FNZ-44" target="LbmgVifA0ND9j1pK7FNZ-48">
          <mxGeometry relative="1" as="geometry" />
        </mxCell>
        <mxCell id="LbmgVifA0ND9j1pK7FNZ-44" value="" style="rounded=0;whiteSpace=wrap;html=1;shadow=0;fillColor=none;dashed=1;fontSize=14;fontStyle=1" vertex="1" parent="1">
          <mxGeometry x="920" y="150" width="40" height="100" as="geometry" />
        </mxCell>
        <mxCell id="LbmgVifA0ND9j1pK7FNZ-45" value="background：" style="text;html=1;strokeColor=none;fillColor=none;align=center;verticalAlign=middle;whiteSpace=wrap;rounded=0;shadow=0;fontColor=#FF0000;fontSize=14;fontStyle=1" vertex="1" parent="1">
          <mxGeometry x="844" y="155" width="70" height="20" as="geometry" />
        </mxCell>
        <mxCell id="LbmgVifA0ND9j1pK7FNZ-46" value="action：" style="text;html=1;strokeColor=none;fillColor=none;align=center;verticalAlign=middle;whiteSpace=wrap;rounded=0;shadow=0;fontColor=#006600;fontSize=14;fontStyle=1" vertex="1" parent="1">
          <mxGeometry x="860" y="210" width="40" height="20" as="geometry" />
        </mxCell>
        <mxCell id="LbmgVifA0ND9j1pK7FNZ-48" value="" style="rounded=0;whiteSpace=wrap;html=1;shadow=0;fillColor=#99CCFF;direction=south;fontSize=14;fontStyle=1" vertex="1" parent="1">
          <mxGeometry x="985" y="165.5" width="30" height="69" as="geometry" />
        </mxCell>
        <mxCell id="LbmgVifA0ND9j1pK7FNZ-56" value="0.85" style="text;html=1;strokeColor=none;fillColor=none;align=center;verticalAlign=middle;whiteSpace=wrap;rounded=0;shadow=0;fontColor=#006600;fontSize=14;fontStyle=1" vertex="1" parent="1">
          <mxGeometry x="920" y="209" width="40" height="20" as="geometry" />
        </mxCell>
        <mxCell id="LbmgVifA0ND9j1pK7FNZ-57" value="0.15" style="text;html=1;strokeColor=none;fillColor=none;align=center;verticalAlign=middle;whiteSpace=wrap;rounded=0;shadow=0;fontColor=#FF0000;fontSize=14;fontStyle=1" vertex="1" parent="1">
          <mxGeometry x="920" y="155" width="40" height="20" as="geometry" />
        </mxCell>
        <mxCell id="LbmgVifA0ND9j1pK7FNZ-58" value="softmax&lt;br style=&quot;font-size: 14px;&quot;&gt;Loss" style="text;html=1;strokeColor=none;fillColor=none;align=center;verticalAlign=middle;whiteSpace=wrap;rounded=0;shadow=0;dashed=1;rotation=90;fontSize=14;fontStyle=1" vertex="1" parent="1">
          <mxGeometry x="970" y="183.25" width="65" height="33.5" as="geometry" />
        </mxCell>
        <mxCell id="LbmgVifA0ND9j1pK7FNZ-66" style="edgeStyle=elbowEdgeStyle;rounded=0;orthogonalLoop=1;jettySize=auto;html=1;fontColor=#FF0000;fontSize=14;fontStyle=1" edge="1" parent="1" source="LbmgVifA0ND9j1pK7FNZ-64" target="LbmgVifA0ND9j1pK7FNZ-48">
          <mxGeometry relative="1" as="geometry" />
        </mxCell>
        <mxCell id="LbmgVifA0ND9j1pK7FNZ-64" value="是否是动作片段" style="rounded=0;whiteSpace=wrap;html=1;shadow=0;fillColor=#99CCFF;direction=west;fontSize=14;fontStyle=1" vertex="1" parent="1">
          <mxGeometry x="952.75" y="267" width="94.5" height="30" as="geometry" />
        </mxCell>
        <mxCell id="LbmgVifA0ND9j1pK7FNZ-80" style="edgeStyle=elbowEdgeStyle;rounded=0;orthogonalLoop=1;jettySize=auto;html=1;fontSize=14;fontStyle=1" edge="1" parent="1" source="LbmgVifA0ND9j1pK7FNZ-81">
          <mxGeometry relative="1" as="geometry">
            <mxPoint x="736" y="396" as="targetPoint" />
          </mxGeometry>
        </mxCell>
        <mxCell id="LbmgVifA0ND9j1pK7FNZ-81" value="" style="shape=cube;whiteSpace=wrap;html=1;boundedLbl=1;backgroundOutline=1;darkOpacity=0.05;darkOpacity2=0.1;fillColor=#99CCFF;size=10;fontSize=14;fontStyle=1" vertex="1" parent="1">
          <mxGeometry x="643" y="381" width="70" height="30" as="geometry" />
        </mxCell>
        <mxCell id="LbmgVifA0ND9j1pK7FNZ-82" value="片段" style="text;html=1;strokeColor=none;fillColor=none;align=center;verticalAlign=middle;whiteSpace=wrap;rounded=0;shadow=0;dashed=1;fontSize=14;fontStyle=1" vertex="1" parent="1">
          <mxGeometry x="658" y="451" width="40" height="20" as="geometry" />
        </mxCell>
        <mxCell id="LbmgVifA0ND9j1pK7FNZ-83" style="edgeStyle=elbowEdgeStyle;rounded=0;orthogonalLoop=1;jettySize=auto;html=1;fontSize=14;fontStyle=1" edge="1" parent="1">
          <mxGeometry relative="1" as="geometry">
            <mxPoint x="857" y="391" as="targetPoint" />
            <Array as="points">
              <mxPoint x="847" y="391" />
            </Array>
            <mxPoint x="817" y="391" as="sourcePoint" />
          </mxGeometry>
        </mxCell>
        <mxCell id="LbmgVifA0ND9j1pK7FNZ-84" value="" style="shape=cube;whiteSpace=wrap;html=1;boundedLbl=1;backgroundOutline=1;darkOpacity=0.05;darkOpacity2=0.1;shadow=0;fillColor=#D6FFFE;fontSize=14;fontStyle=1" vertex="1" parent="1">
          <mxGeometry x="748" y="360" width="70" height="70" as="geometry" />
        </mxCell>
        <mxCell id="LbmgVifA0ND9j1pK7FNZ-85" value="多级CNN神经网络" style="text;html=1;strokeColor=none;fillColor=none;align=center;verticalAlign=middle;whiteSpace=wrap;rounded=0;shadow=0;fontSize=14;fontStyle=1" vertex="1" parent="1">
          <mxGeometry x="726.5" y="451" width="113" height="20" as="geometry" />
        </mxCell>
        <mxCell id="LbmgVifA0ND9j1pK7FNZ-86" style="edgeStyle=elbowEdgeStyle;rounded=0;orthogonalLoop=1;jettySize=auto;html=1;entryX=0.5;entryY=1;entryDx=0;entryDy=0;fontColor=#FF0000;fontSize=14;fontStyle=1" edge="1" parent="1" source="LbmgVifA0ND9j1pK7FNZ-87" target="LbmgVifA0ND9j1pK7FNZ-90">
          <mxGeometry relative="1" as="geometry" />
        </mxCell>
        <mxCell id="LbmgVifA0ND9j1pK7FNZ-87" value="" style="rounded=0;whiteSpace=wrap;html=1;shadow=0;fillColor=none;dashed=1;fontSize=14;fontStyle=1" vertex="1" parent="1">
          <mxGeometry x="928" y="350" width="40" height="100" as="geometry" />
        </mxCell>
        <mxCell id="LbmgVifA0ND9j1pK7FNZ-88" value="background：" style="text;html=1;strokeColor=none;fillColor=none;align=center;verticalAlign=middle;whiteSpace=wrap;rounded=0;shadow=0;fontColor=#FF0000;fontSize=14;fontStyle=1" vertex="1" parent="1">
          <mxGeometry x="853" y="358" width="70" height="20" as="geometry" />
        </mxCell>
        <mxCell id="LbmgVifA0ND9j1pK7FNZ-89" value="action 1：" style="text;html=1;strokeColor=none;fillColor=none;align=center;verticalAlign=middle;whiteSpace=wrap;rounded=0;shadow=0;fontColor=#006600;fontSize=14;fontStyle=1" vertex="1" parent="1">
          <mxGeometry x="856" y="381" width="72" height="20" as="geometry" />
        </mxCell>
        <mxCell id="LbmgVifA0ND9j1pK7FNZ-90" value="" style="rounded=0;whiteSpace=wrap;html=1;shadow=0;fillColor=#99CCFF;direction=south;fontSize=14;fontStyle=1" vertex="1" parent="1">
          <mxGeometry x="993" y="365.5" width="30" height="69" as="geometry" />
        </mxCell>
        <mxCell id="LbmgVifA0ND9j1pK7FNZ-91" value="0.01" style="text;html=1;strokeColor=none;fillColor=none;align=center;verticalAlign=middle;whiteSpace=wrap;rounded=0;shadow=0;fontColor=#006600;fontSize=14;fontStyle=1" vertex="1" parent="1">
          <mxGeometry x="927" y="380" width="40" height="20" as="geometry" />
        </mxCell>
        <mxCell id="LbmgVifA0ND9j1pK7FNZ-92" value="0.01" style="text;html=1;strokeColor=none;fillColor=none;align=center;verticalAlign=middle;whiteSpace=wrap;rounded=0;shadow=0;fontColor=#FF0000;fontSize=14;fontStyle=1" vertex="1" parent="1">
          <mxGeometry x="927" y="358" width="40" height="20" as="geometry" />
        </mxCell>
        <mxCell id="LbmgVifA0ND9j1pK7FNZ-93" value="softmax&lt;br style=&quot;font-size: 14px;&quot;&gt;Loss" style="text;html=1;strokeColor=none;fillColor=none;align=center;verticalAlign=middle;whiteSpace=wrap;rounded=0;shadow=0;dashed=1;rotation=90;fontSize=14;fontStyle=1" vertex="1" parent="1">
          <mxGeometry x="978" y="383.25" width="65" height="33.5" as="geometry" />
        </mxCell>
        <mxCell id="LbmgVifA0ND9j1pK7FNZ-94" style="edgeStyle=elbowEdgeStyle;rounded=0;orthogonalLoop=1;jettySize=auto;html=1;fontColor=#FF0000;fontSize=14;fontStyle=1" edge="1" parent="1" source="LbmgVifA0ND9j1pK7FNZ-95" target="LbmgVifA0ND9j1pK7FNZ-90">
          <mxGeometry relative="1" as="geometry" />
        </mxCell>
        <mxCell id="LbmgVifA0ND9j1pK7FNZ-95" value="分类标签" style="rounded=0;whiteSpace=wrap;html=1;shadow=0;fillColor=#99CCFF;direction=west;fontSize=14;fontStyle=1" vertex="1" parent="1">
          <mxGeometry x="960.75" y="467" width="94.5" height="30" as="geometry" />
        </mxCell>
        <mxCell id="LbmgVifA0ND9j1pK7FNZ-96" style="edgeStyle=elbowEdgeStyle;rounded=0;orthogonalLoop=1;jettySize=auto;html=1;fontSize=14;fontStyle=1" edge="1" parent="1" source="LbmgVifA0ND9j1pK7FNZ-97">
          <mxGeometry relative="1" as="geometry">
            <mxPoint x="740" y="586" as="targetPoint" />
          </mxGeometry>
        </mxCell>
        <mxCell id="LbmgVifA0ND9j1pK7FNZ-97" value="" style="shape=cube;whiteSpace=wrap;html=1;boundedLbl=1;backgroundOutline=1;darkOpacity=0.05;darkOpacity2=0.1;fillColor=#99CCFF;size=10;fontSize=14;fontStyle=1" vertex="1" parent="1">
          <mxGeometry x="647" y="571" width="70" height="30" as="geometry" />
        </mxCell>
        <mxCell id="LbmgVifA0ND9j1pK7FNZ-98" value="片段" style="text;html=1;strokeColor=none;fillColor=none;align=center;verticalAlign=middle;whiteSpace=wrap;rounded=0;shadow=0;dashed=1;fontSize=14;fontStyle=1" vertex="1" parent="1">
          <mxGeometry x="662" y="641" width="40" height="20" as="geometry" />
        </mxCell>
        <mxCell id="LbmgVifA0ND9j1pK7FNZ-99" style="edgeStyle=elbowEdgeStyle;rounded=0;orthogonalLoop=1;jettySize=auto;html=1;fontSize=14;fontStyle=1" edge="1" parent="1" source="LbmgVifA0ND9j1pK7FNZ-100">
          <mxGeometry relative="1" as="geometry">
            <mxPoint x="862" y="585" as="targetPoint" />
            <Array as="points">
              <mxPoint x="852" y="585" />
            </Array>
          </mxGeometry>
        </mxCell>
        <mxCell id="LbmgVifA0ND9j1pK7FNZ-100" value="" style="shape=cube;whiteSpace=wrap;html=1;boundedLbl=1;backgroundOutline=1;darkOpacity=0.05;darkOpacity2=0.1;shadow=0;fillColor=#D6FFFE;fontSize=14;fontStyle=1" vertex="1" parent="1">
          <mxGeometry x="752" y="550" width="70" height="70" as="geometry" />
        </mxCell>
        <mxCell id="LbmgVifA0ND9j1pK7FNZ-101" value="多级CNN神经网络" style="text;html=1;strokeColor=none;fillColor=none;align=center;verticalAlign=middle;whiteSpace=wrap;rounded=0;shadow=0;fontSize=14;fontStyle=1" vertex="1" parent="1">
          <mxGeometry x="730.5" y="641" width="113" height="20" as="geometry" />
        </mxCell>
        <mxCell id="LbmgVifA0ND9j1pK7FNZ-102" style="edgeStyle=elbowEdgeStyle;rounded=0;orthogonalLoop=1;jettySize=auto;html=1;entryX=0.5;entryY=1;entryDx=0;entryDy=0;fontColor=#FF0000;fontSize=14;fontStyle=1" edge="1" parent="1" target="LbmgVifA0ND9j1pK7FNZ-106">
          <mxGeometry relative="1" as="geometry">
            <mxPoint x="972" y="590" as="sourcePoint" />
          </mxGeometry>
        </mxCell>
        <mxCell id="LbmgVifA0ND9j1pK7FNZ-106" value="" style="rounded=0;whiteSpace=wrap;html=1;shadow=0;fillColor=#99CCFF;direction=south;fontSize=14;fontStyle=1" vertex="1" parent="1">
          <mxGeometry x="997" y="555.5" width="30" height="69" as="geometry" />
        </mxCell>
        <mxCell id="LbmgVifA0ND9j1pK7FNZ-109" value="softmax&lt;br style=&quot;font-size: 14px;&quot;&gt;Loss" style="text;html=1;strokeColor=none;fillColor=none;align=center;verticalAlign=middle;whiteSpace=wrap;rounded=0;shadow=0;dashed=1;rotation=90;fontSize=14;fontStyle=1" vertex="1" parent="1">
          <mxGeometry x="982" y="573.25" width="65" height="33.5" as="geometry" />
        </mxCell>
        <mxCell id="LbmgVifA0ND9j1pK7FNZ-110" style="edgeStyle=elbowEdgeStyle;rounded=0;orthogonalLoop=1;jettySize=auto;html=1;fontColor=#FF0000;fontSize=14;fontStyle=1" edge="1" parent="1" source="LbmgVifA0ND9j1pK7FNZ-111" target="LbmgVifA0ND9j1pK7FNZ-106">
          <mxGeometry relative="1" as="geometry" />
        </mxCell>
        <mxCell id="LbmgVifA0ND9j1pK7FNZ-111" value="分类标签" style="rounded=0;whiteSpace=wrap;html=1;shadow=0;fillColor=#99CCFF;direction=west;fontSize=14;fontStyle=1" vertex="1" parent="1">
          <mxGeometry x="964.75" y="657" width="94.5" height="30" as="geometry" />
        </mxCell>
        <mxCell id="LbmgVifA0ND9j1pK7FNZ-113" value="action 2：" style="text;html=1;strokeColor=none;fillColor=none;align=center;verticalAlign=middle;whiteSpace=wrap;rounded=0;shadow=0;fontColor=#006600;fontSize=14;fontStyle=1" vertex="1" parent="1">
          <mxGeometry x="856" y="400" width="70" height="20" as="geometry" />
        </mxCell>
        <mxCell id="LbmgVifA0ND9j1pK7FNZ-114" value="action k：" style="text;html=1;strokeColor=none;fillColor=none;align=center;verticalAlign=middle;whiteSpace=wrap;rounded=0;shadow=0;fontColor=#006600;fontSize=14;fontStyle=1" vertex="1" parent="1">
          <mxGeometry x="856" y="430" width="69" height="20" as="geometry" />
        </mxCell>
        <mxCell id="LbmgVifA0ND9j1pK7FNZ-115" value="0.95" style="text;html=1;strokeColor=none;fillColor=none;align=center;verticalAlign=middle;whiteSpace=wrap;rounded=0;shadow=0;fontColor=#006600;fontSize=14;fontStyle=1" vertex="1" parent="1">
          <mxGeometry x="927" y="400" width="40" height="20" as="geometry" />
        </mxCell>
        <mxCell id="LbmgVifA0ND9j1pK7FNZ-116" value="0.01" style="text;html=1;strokeColor=none;fillColor=none;align=center;verticalAlign=middle;whiteSpace=wrap;rounded=0;shadow=0;fontColor=#006600;fontSize=14;fontStyle=1" vertex="1" parent="1">
          <mxGeometry x="927" y="430" width="40" height="20" as="geometry" />
        </mxCell>
        <mxCell id="LbmgVifA0ND9j1pK7FNZ-118" value="" style="rounded=0;whiteSpace=wrap;html=1;shadow=0;fillColor=none;dashed=1;fontSize=14;fontStyle=1" vertex="1" parent="1">
          <mxGeometry x="930" y="535" width="40" height="100" as="geometry" />
        </mxCell>
        <mxCell id="LbmgVifA0ND9j1pK7FNZ-119" value="background：" style="text;html=1;strokeColor=none;fillColor=none;align=center;verticalAlign=middle;whiteSpace=wrap;rounded=0;shadow=0;fontColor=#FF0000;fontSize=14;fontStyle=1" vertex="1" parent="1">
          <mxGeometry x="857" y="543" width="70" height="20" as="geometry" />
        </mxCell>
        <mxCell id="LbmgVifA0ND9j1pK7FNZ-120" value="action 1：" style="text;html=1;strokeColor=none;fillColor=none;align=center;verticalAlign=middle;whiteSpace=wrap;rounded=0;shadow=0;fontColor=#006600;fontSize=14;fontStyle=1" vertex="1" parent="1">
          <mxGeometry x="856" y="566" width="73" height="20" as="geometry" />
        </mxCell>
        <mxCell id="LbmgVifA0ND9j1pK7FNZ-121" value="0.01" style="text;html=1;strokeColor=none;fillColor=none;align=center;verticalAlign=middle;whiteSpace=wrap;rounded=0;shadow=0;fontColor=#006600;fontSize=14;fontStyle=1" vertex="1" parent="1">
          <mxGeometry x="929" y="565" width="40" height="20" as="geometry" />
        </mxCell>
        <mxCell id="LbmgVifA0ND9j1pK7FNZ-122" value="0.01" style="text;html=1;strokeColor=none;fillColor=none;align=center;verticalAlign=middle;whiteSpace=wrap;rounded=0;shadow=0;fontColor=#FF0000;fontSize=14;fontStyle=1" vertex="1" parent="1">
          <mxGeometry x="929" y="543" width="40" height="20" as="geometry" />
        </mxCell>
        <mxCell id="LbmgVifA0ND9j1pK7FNZ-123" value="action 2：" style="text;html=1;strokeColor=none;fillColor=none;align=center;verticalAlign=middle;whiteSpace=wrap;rounded=0;shadow=0;fontColor=#006600;fontSize=14;fontStyle=1" vertex="1" parent="1">
          <mxGeometry x="856" y="585" width="73" height="20" as="geometry" />
        </mxCell>
        <mxCell id="LbmgVifA0ND9j1pK7FNZ-124" value="action k：" style="text;html=1;strokeColor=none;fillColor=none;align=center;verticalAlign=middle;whiteSpace=wrap;rounded=0;shadow=0;fontColor=#006600;fontSize=14;fontStyle=1" vertex="1" parent="1">
          <mxGeometry x="856" y="615" width="73" height="20" as="geometry" />
        </mxCell>
        <mxCell id="LbmgVifA0ND9j1pK7FNZ-125" value="0.82" style="text;html=1;strokeColor=none;fillColor=none;align=center;verticalAlign=middle;whiteSpace=wrap;rounded=0;shadow=0;fontColor=#006600;fontSize=14;fontStyle=1" vertex="1" parent="1">
          <mxGeometry x="929" y="585" width="40" height="20" as="geometry" />
        </mxCell>
        <mxCell id="LbmgVifA0ND9j1pK7FNZ-126" value="0.01" style="text;html=1;strokeColor=none;fillColor=none;align=center;verticalAlign=middle;whiteSpace=wrap;rounded=0;shadow=0;fontColor=#006600;fontSize=14;fontStyle=1" vertex="1" parent="1">
          <mxGeometry x="929" y="615" width="40" height="20" as="geometry" />
        </mxCell>
        <mxCell id="LbmgVifA0ND9j1pK7FNZ-127" value="&lt;font color=&quot;#000000&quot; style=&quot;font-size: 14px;&quot;&gt;推断&lt;/font&gt;" style="text;html=1;strokeColor=none;fillColor=none;align=center;verticalAlign=middle;whiteSpace=wrap;rounded=0;shadow=0;dashed=1;fontColor=#FF0000;fontSize=14;fontStyle=1" vertex="1" parent="1">
          <mxGeometry x="824" y="285" width="40" height="20" as="geometry" />
        </mxCell>
        <mxCell id="LbmgVifA0ND9j1pK7FNZ-128" value="&lt;font color=&quot;#000000&quot; style=&quot;font-size: 14px;&quot;&gt;分类&lt;/font&gt;" style="text;html=1;strokeColor=none;fillColor=none;align=center;verticalAlign=middle;whiteSpace=wrap;rounded=0;shadow=0;dashed=1;fontColor=#FF0000;fontSize=14;fontStyle=1" vertex="1" parent="1">
          <mxGeometry x="831.5" y="473" width="40" height="20" as="geometry" />
        </mxCell>
        <mxCell id="LbmgVifA0ND9j1pK7FNZ-129" value="&lt;font color=&quot;#000000&quot; style=&quot;font-size: 14px;&quot;&gt;定位&lt;/font&gt;" style="text;html=1;strokeColor=none;fillColor=none;align=center;verticalAlign=middle;whiteSpace=wrap;rounded=0;shadow=0;dashed=1;fontColor=#FF0000;fontSize=14;fontStyle=1" vertex="1" parent="1">
          <mxGeometry x="839.5" y="670" width="40" height="20" as="geometry" />
        </mxCell>
        <mxCell id="LbmgVifA0ND9j1pK7FNZ-130" value="&lt;font style=&quot;font-size: 14px;&quot;&gt;···&lt;/font&gt;" style="text;html=1;strokeColor=none;fillColor=none;align=center;verticalAlign=middle;whiteSpace=wrap;rounded=0;shadow=0;dashed=1;rotation=90;fontColor=#006600;fontSize=14;fontStyle=1" vertex="1" parent="1">
          <mxGeometry x="867" y="417" width="40" height="20" as="geometry" />
        </mxCell>
        <mxCell id="LbmgVifA0ND9j1pK7FNZ-131" value="&lt;font style=&quot;font-size: 14px;&quot;&gt;···&lt;/font&gt;" style="text;html=1;strokeColor=none;fillColor=none;align=center;verticalAlign=middle;whiteSpace=wrap;rounded=0;shadow=0;dashed=1;rotation=90;fontColor=#006600;fontSize=14;fontStyle=1" vertex="1" parent="1">
          <mxGeometry x="865" y="600" width="40" height="20" as="geometry" />
        </mxCell>
        <mxCell id="LbmgVifA0ND9j1pK7FNZ-132" value="背景" style="shape=cube;whiteSpace=wrap;html=1;boundedLbl=1;backgroundOutline=1;darkOpacity=0.05;darkOpacity2=0.1;size=10;fillColor=#CFF0FF;fontSize=14;fontStyle=1" vertex="1" parent="1">
          <mxGeometry x="447.5" y="510" width="98" height="30" as="geometry" />
        </mxCell>
        <mxCell id="LbmgVifA0ND9j1pK7FNZ-133" value="悬崖跳水" style="shape=cube;whiteSpace=wrap;html=1;boundedLbl=1;backgroundOutline=1;darkOpacity=0.05;darkOpacity2=0.1;size=10;fillColor=#99CCFF;fontSize=14;fontStyle=1" vertex="1" parent="1">
          <mxGeometry x="144.5" y="510" width="310" height="30" as="geometry" />
        </mxCell>
        <mxCell id="LbmgVifA0ND9j1pK7FNZ-137" style="edgeStyle=elbowEdgeStyle;rounded=0;orthogonalLoop=1;jettySize=auto;html=1;entryX=0;entryY=0.5;entryDx=0;entryDy=0;fontColor=#006600;elbow=vertical;fontSize=14;fontStyle=1" edge="1" parent="1" source="LbmgVifA0ND9j1pK7FNZ-134" target="LbmgVifA0ND9j1pK7FNZ-136">
          <mxGeometry relative="1" as="geometry">
            <Array as="points">
              <mxPoint x="25" y="563" />
            </Array>
          </mxGeometry>
        </mxCell>
        <mxCell id="LbmgVifA0ND9j1pK7FNZ-134" value="背景" style="shape=cube;whiteSpace=wrap;html=1;boundedLbl=1;backgroundOutline=1;darkOpacity=0.05;darkOpacity2=0.1;size=10;fillColor=#CFF0FF;fontSize=14;fontStyle=1" vertex="1" parent="1">
          <mxGeometry x="34.5" y="510" width="116" height="30" as="geometry" />
        </mxCell>
        <mxCell id="LbmgVifA0ND9j1pK7FNZ-136" value="" style="rounded=1;whiteSpace=wrap;html=1;shadow=0;fillColor=#F1F5BD;fontSize=14;fontStyle=1" vertex="1" parent="1">
          <mxGeometry x="70.5" y="573.25" width="475" height="109" as="geometry" />
        </mxCell>
        <mxCell id="LbmgVifA0ND9j1pK7FNZ-138" value="&lt;font color=&quot;#000000&quot; style=&quot;font-size: 14px;&quot;&gt;预测&lt;/font&gt;" style="text;html=1;strokeColor=none;fillColor=none;align=center;verticalAlign=middle;whiteSpace=wrap;rounded=0;shadow=0;fontColor=#006600;fontSize=14;fontStyle=1" vertex="1" parent="1">
          <mxGeometry x="27" y="595" width="40" height="20" as="geometry" />
        </mxCell>
        <mxCell id="LbmgVifA0ND9j1pK7FNZ-139" value="" style="shape=cube;whiteSpace=wrap;html=1;boundedLbl=1;backgroundOutline=1;darkOpacity=0.05;darkOpacity2=0.1;fillColor=#99CCFF;size=10;fontSize=14;fontStyle=1" vertex="1" parent="1">
          <mxGeometry x="204" y="629" width="308" height="30" as="geometry" />
        </mxCell>
        <mxCell id="LbmgVifA0ND9j1pK7FNZ-140" value="" style="shape=cube;whiteSpace=wrap;html=1;boundedLbl=1;backgroundOutline=1;darkOpacity=0.05;darkOpacity2=0.1;fillColor=#99CCFF;size=10;fontSize=14;fontStyle=1" vertex="1" parent="1">
          <mxGeometry x="302" y="593" width="140" height="30" as="geometry" />
        </mxCell>
        <mxCell id="LbmgVifA0ND9j1pK7FNZ-141" value="&lt;font color=&quot;#000000&quot; style=&quot;font-size: 14px;&quot;&gt;悬崖跳水&amp;nbsp; 0.75&lt;/font&gt;" style="text;html=1;strokeColor=none;fillColor=none;align=center;verticalAlign=middle;whiteSpace=wrap;rounded=0;shadow=0;fontColor=#006600;fontSize=14;fontStyle=1" vertex="1" parent="1">
          <mxGeometry x="70.5" y="595" width="97" height="20" as="geometry" />
        </mxCell>
        <mxCell id="LbmgVifA0ND9j1pK7FNZ-142" value="&lt;font color=&quot;#000000&quot; style=&quot;font-size: 14px;&quot;&gt;悬崖跳水&amp;nbsp; 0.80&lt;/font&gt;" style="text;html=1;strokeColor=none;fillColor=none;align=center;verticalAlign=middle;whiteSpace=wrap;rounded=0;shadow=0;fontColor=#006600;fontSize=14;fontStyle=1" vertex="1" parent="1">
          <mxGeometry x="74" y="634" width="97" height="20" as="geometry" />
        </mxCell>
        <mxCell id="LbmgVifA0ND9j1pK7FNZ-144" value="&lt;font color=&quot;#000000&quot; style=&quot;font-size: 14px;&quot;&gt;···&lt;/font&gt;" style="text;html=1;strokeColor=none;fillColor=none;align=center;verticalAlign=middle;whiteSpace=wrap;rounded=0;shadow=0;fontColor=#006600;rotation=90;fontSize=14;fontStyle=1" vertex="1" parent="1">
          <mxGeometry x="95" y="654" width="40" height="20" as="geometry" />
        </mxCell>
      </root>
    </mxGraphModel>
  </diagram>
</mxfile>
